<svg width="18" height="16" viewBox="0 0 18 16" fill="none" xmlns="http://www.w3.org/2000/svg">
<path d="M2 13.9V15.025C2 15.3083 1.90417 15.5417 1.7125 15.725C1.52083 15.9083 1.28333 16 1 16C0.716667 16 0.479167 15.9042 0.2875 15.7125C0.0958332 15.5208 0 15.2833 0 15V7.15L2.125 0.75C2.20833 0.516667 2.34583 0.333333 2.5375 0.2C2.72917 0.0666665 2.95 0 3.2 0H14.8C15.05 0 15.2708 0.0666665 15.4625 0.2C15.6542 0.333333 15.7917 0.516667 15.875 0.75L18 7.15V15.025C18 15.3083 17.9042 15.5417 17.7125 15.725C17.5208 15.9083 17.2833 16 17 16C16.7167 16 16.4792 15.9042 16.2875 15.7125C16.0958 15.5208 16 15.2833 16 15V13.9H2ZM2.075 5.65H15.925L14.55 1.5H3.45L2.075 5.65ZM1.5 7.15V12.4V7.15ZM4.15 11.15C4.53333 11.15 4.85417 11.0167 5.1125 10.75C5.37083 10.4833 5.5 10.1667 5.5 9.8C5.5 9.41667 5.37083 9.0875 5.1125 8.8125C4.85417 8.5375 4.53333 8.4 4.15 8.4C3.76667 8.4 3.4375 8.5375 3.1625 8.8125C2.8875 9.0875 2.75 9.41667 2.75 9.8C2.75 10.1833 2.8875 10.5042 3.1625 10.7625C3.4375 11.0208 3.76667 11.15 4.15 11.15ZM13.875 11.15C14.2583 11.15 14.5875 11.0167 14.8625 10.75C15.1375 10.4833 15.275 10.1667 15.275 9.8C15.275 9.41667 15.1375 9.0875 14.8625 8.8125C14.5875 8.5375 14.2583 8.4 13.875 8.4C13.4917 8.4 13.1708 8.5375 12.9125 8.8125C12.6542 9.0875 12.525 9.41667 12.525 9.8C12.525 10.1833 12.6583 10.5042 12.925 10.7625C13.1917 11.0208 13.5083 11.15 13.875 11.15ZM1.5 12.4H16.5V7.15H1.5V12.4Z" fill="white"/>
</svg>
