<svg width="19" height="21" viewBox="0 0 19 21" fill="none" xmlns="http://www.w3.org/2000/svg">
<path d="M3.10133 20.75C2.65689 20.75 2.268 20.5833 1.93467 20.25C1.60133 19.9167 1.43467 19.5278 1.43467 19.0833V3.25H1.12911C0.888369 3.25 0.689295 3.1713 0.531888 3.01389C0.37448 2.85648 0.295776 2.65741 0.295776 2.41667C0.295776 2.17593 0.37448 1.97685 0.531888 1.81944C0.689295 1.66204 0.888369 1.58333 1.12911 1.58333H5.518C5.518 1.34259 5.5967 1.14352 5.75411 0.986111C5.91152 0.828704 6.11059 0.75 6.35133 0.75H12.018C12.2587 0.75 12.4578 0.828704 12.6152 0.986111C12.7726 1.14352 12.8513 1.34259 12.8513 1.58333H17.2402C17.481 1.58333 17.68 1.66204 17.8374 1.81944C17.9949 1.97685 18.0736 2.17593 18.0736 2.41667C18.0736 2.65741 17.9949 2.85648 17.8374 3.01389C17.68 3.1713 17.481 3.25 17.2402 3.25H16.9347V19.0833C16.9347 19.5278 16.768 19.9167 16.4347 20.25C16.1013 20.5833 15.7124 20.75 15.268 20.75H3.10133ZM3.10133 3.25V19.0833H15.268V3.25H3.10133ZM6.04578 15.8611C6.04578 16.1019 6.12448 16.3009 6.28189 16.4583C6.43929 16.6157 6.63837 16.6944 6.87911 16.6944C7.11985 16.6944 7.31892 16.6157 7.47633 16.4583C7.63374 16.3009 7.71244 16.1019 7.71244 15.8611V6.44444C7.71244 6.2037 7.63374 6.00463 7.47633 5.84722C7.31892 5.68982 7.11985 5.61111 6.87911 5.61111C6.63837 5.61111 6.43929 5.68982 6.28189 5.84722C6.12448 6.00463 6.04578 6.2037 6.04578 6.44444V15.8611ZM10.6569 15.8611C10.6569 16.1019 10.7356 16.3009 10.893 16.4583C11.0504 16.6157 11.2495 16.6944 11.4902 16.6944C11.731 16.6944 11.93 16.6157 12.0874 16.4583C12.2449 16.3009 12.3236 16.1019 12.3236 15.8611V6.44444C12.3236 6.2037 12.2449 6.00463 12.0874 5.84722C11.93 5.68982 11.731 5.61111 11.4902 5.61111C11.2495 5.61111 11.0504 5.68982 10.893 5.84722C10.7356 6.00463 10.6569 6.2037 10.6569 6.44444V15.8611ZM3.10133 3.25V19.0833V3.25Z" fill="#C40202"/>
</svg>
