<svg width="19" height="20" viewBox="0 0 19 20" fill="none" xmlns="http://www.w3.org/2000/svg">
<path d="M1.37219 20C0.991023 20 0.667035 19.8628 0.400221 19.5883C0.133407 19.3139 0 18.9861 0 18.6049C0 18.2238 0.137219 17.8998 0.411656 17.633C0.686093 17.3662 1.01389 17.2328 1.39506 17.2328H16.9236C17.3048 17.2328 17.6288 17.3662 17.8956 17.633C18.1624 17.8998 18.2958 18.2238 18.2958 18.6049C18.2958 18.9861 18.1586 19.3139 17.8842 19.5883C17.6097 19.8628 17.2819 20 16.9008 20H1.37219ZM2.56141 14.8086C2.36321 14.8086 2.19931 14.7438 2.06971 14.6142C1.94012 14.4846 1.87532 14.3207 1.87532 14.1225V12.0413C1.87532 11.9498 1.89057 11.866 1.92106 11.7898C1.95155 11.7135 2.00492 11.6373 2.08115 11.5611L10.4057 3.23647L13.4474 6.27814L5.12283 14.6027C5.04659 14.679 4.97036 14.7323 4.89413 14.7628C4.8179 14.7933 4.73404 14.8086 4.64256 14.8086H2.56141ZM3.24751 13.4364H4.27665L11.4806 6.2324L10.4515 5.20326L3.24751 12.4072V13.4364ZM14.4537 5.27187L11.412 2.2302L13.3331 0.309136C13.5008 0.110931 13.6914 0.00801756 13.9048 0.000394307C14.1183 -0.00722895 14.3317 0.0956848 14.5452 0.309136L16.329 2.09298C16.5272 2.29118 16.6263 2.50082 16.6263 2.7219C16.6263 2.94297 16.5425 3.15261 16.3747 3.35081L14.4537 5.27187Z" fill="#F07C62"/>
</svg>
