<svg width="28" height="28" viewBox="0 0 28 28" fill="none" xmlns="http://www.w3.org/2000/svg">
<path d="M20.1875 19.7375C19.9625 19.5125 19.85 19.2375 19.85 18.9125C19.85 18.5875 19.9625 18.325 20.1875 18.125L23.1875 15.125H11.1875C10.8625 15.125 10.5937 15.0188 10.3812 14.8063C10.1687 14.5938 10.0625 14.325 10.0625 14C10.0625 13.675 10.1687 13.4062 10.3812 13.1937C10.5937 12.9812 10.8625 12.875 11.1875 12.875H23.1125L20.075 9.8375C19.875 9.6375 19.775 9.38125 19.775 9.06875C19.775 8.75625 19.8875 8.4875 20.1125 8.2625C20.3375 8.0375 20.6062 7.925 20.9187 7.925C21.2312 7.925 21.5 8.0375 21.725 8.2625L26.7125 13.25C26.8375 13.375 26.925 13.5 26.975 13.625C27.025 13.75 27.05 13.8875 27.05 14.0375C27.05 14.1875 27.025 14.325 26.975 14.45C26.925 14.575 26.8375 14.7 26.7125 14.825L21.7625 19.775C21.5625 19.975 21.3062 20.075 20.9938 20.075C20.6813 20.075 20.4125 19.9625 20.1875 19.7375ZM2.75 27.5C2.15 27.5 1.625 27.275 1.175 26.825C0.725 26.375 0.5 25.85 0.5 25.25V2.75C0.5 2.15 0.725 1.625 1.175 1.175C1.625 0.725 2.15 0.5 2.75 0.5H12.5375C12.8625 0.5 13.1313 0.60625 13.3438 0.81875C13.5562 1.03125 13.6625 1.3 13.6625 1.625C13.6625 1.95 13.5562 2.21875 13.3438 2.43125C13.1313 2.64375 12.8625 2.75 12.5375 2.75H2.75V25.25H12.5375C12.8625 25.25 13.1313 25.3562 13.3438 25.5687C13.5562 25.7812 13.6625 26.05 13.6625 26.375C13.6625 26.7 13.5562 26.9688 13.3438 27.1813C13.1313 27.3938 12.8625 27.5 12.5375 27.5H2.75Z" fill="white"/>
</svg>
