<svg width="18" height="16" viewBox="0 0 18 16" fill="none" xmlns="http://www.w3.org/2000/svg">
<path d="M1.91675 3.66671H16.0834V1.58337H1.91675V3.66671ZM0.666748 1.58337C0.666748 1.23615 0.788276 0.941013 1.03133 0.697957C1.27439 0.454902 1.56953 0.333374 1.91675 0.333374H16.0834C16.4306 0.333374 16.7258 0.454902 16.9688 0.697957C17.2119 0.941013 17.3334 1.23615 17.3334 1.58337V6.56254H1.91675V12.375H5.52091C5.70147 12.375 5.8473 12.4375 5.95842 12.5625C6.06953 12.6875 6.12508 12.8403 6.12508 13.0209C6.12508 13.2014 6.06258 13.3542 5.93758 13.4792C5.81258 13.6042 5.6598 13.6667 5.47925 13.6667H1.91675C1.56953 13.6667 1.27439 13.5452 1.03133 13.3021C0.788276 13.0591 0.666748 12.7639 0.666748 12.4167V1.58337ZM11.4584 13.5417L16.0209 8.97921C16.132 8.8681 16.2744 8.81254 16.448 8.81254C16.6216 8.81254 16.7709 8.87504 16.8959 9.00004C17.0209 9.12504 17.0799 9.27782 17.073 9.45837C17.0661 9.63893 17.0001 9.79171 16.8751 9.91671L11.8959 14.8959C11.7709 15.0209 11.6251 15.0834 11.4584 15.0834C11.2917 15.0834 11.1459 15.0209 11.0209 14.8959L8.35425 12.2292C8.24314 12.1181 8.18758 11.9723 8.18758 11.7917C8.18758 11.6112 8.25008 11.4584 8.37508 11.3334C8.50008 11.2084 8.64939 11.1459 8.823 11.1459C8.99661 11.1459 9.14591 11.2084 9.27091 11.3334L11.4584 13.5417ZM1.91675 1.58337V12.375V9.91671V11.8334V1.58337Z" fill="white"/>
</svg>
