<svg width="16" height="15" viewBox="0 0 16 15" fill="none" xmlns="http://www.w3.org/2000/svg">
<path d="M1.625 11.8063V13.625H14.375V11.8063H1.625ZM4.49375 3.5V1.625C4.49375 1.3125 4.60312 1.04688 4.82187 0.828125C5.04062 0.609375 5.30625 0.5 5.61875 0.5H10.3625C10.675 0.5 10.9406 0.609375 11.1594 0.828125C11.3781 1.04688 11.4875 1.3125 11.4875 1.625V3.5H14.375C14.6875 3.5 14.9531 3.60938 15.1719 3.82813C15.3906 4.04688 15.5 4.3125 15.5 4.625V13.625C15.5 13.9375 15.3906 14.2031 15.1719 14.4219C14.9531 14.6406 14.6875 14.75 14.375 14.75H1.625C1.3125 14.75 1.04687 14.6406 0.828125 14.4219C0.609375 14.2031 0.5 13.9375 0.5 13.625V4.625C0.5 4.3125 0.609375 4.04688 0.828125 3.82813C1.04687 3.60938 1.3125 3.5 1.625 3.5H4.49375ZM1.625 9.78125H14.375V4.625H11.4875V5.4875C11.4875 5.6375 11.4344 5.76563 11.3281 5.87188C11.2219 5.97813 11.0875 6.03125 10.925 6.03125C10.7625 6.03125 10.6281 5.97813 10.5219 5.87188C10.4156 5.76563 10.3625 5.63125 10.3625 5.46875V4.625H5.61875V5.4875C5.61875 5.6375 5.56562 5.76563 5.45937 5.87188C5.35312 5.97813 5.21875 6.03125 5.05625 6.03125C4.89375 6.03125 4.75937 5.97813 4.65312 5.87188C4.54687 5.76563 4.49375 5.63125 4.49375 5.46875V4.625H1.625V9.78125ZM5.61875 3.5H10.3625V1.625H5.61875V3.5ZM1.625 13.625V4.625V13.625Z" fill="white"/>
</svg>
