<svg width="240" height="47" viewBox="0 0 240 47" fill="none" xmlns="http://www.w3.org/2000/svg">
<path d="M0.792 35V0.727998H8.568V29H21.288V35H0.792ZM49.227 21.848C49.227 24.024 48.939 25.96 48.363 27.656C47.819 29.352 47.019 30.792 45.963 31.976C44.907 33.128 43.611 34.008 42.075 34.616C40.571 35.192 38.875 35.48 36.987 35.48C35.227 35.48 33.595 35.192 32.091 34.616C30.587 34.008 29.291 33.128 28.203 31.976C27.147 30.792 26.315 29.352 25.707 27.656C25.131 25.96 24.843 24.024 24.843 21.848C24.843 18.936 25.339 16.488 26.331 14.504C27.323 12.488 28.731 10.952 30.555 9.896C32.379 8.84 34.571 8.312 37.131 8.312C39.499 8.312 41.579 8.84 43.371 9.896C45.195 10.952 46.619 12.488 47.643 14.504C48.699 16.488 49.227 18.936 49.227 21.848ZM32.667 21.848C32.667 23.576 32.811 25.032 33.099 26.216C33.419 27.368 33.899 28.248 34.539 28.856C35.211 29.432 36.059 29.72 37.083 29.72C38.139 29.72 38.971 29.432 39.579 28.856C40.219 28.248 40.683 27.368 40.971 26.216C41.259 25.032 41.403 23.576 41.403 21.848C41.403 20.12 41.259 18.68 40.971 17.528C40.683 16.376 40.203 15.512 39.531 14.936C38.891 14.36 38.059 14.072 37.035 14.072C35.467 14.072 34.347 14.728 33.675 16.04C33.003 17.32 32.667 19.256 32.667 21.848ZM62.4195 8.312C64.0515 8.312 65.4275 8.632 66.5475 9.272C67.6995 9.912 68.6435 10.872 69.3795 12.152H69.5715L70.1475 8.792H76.7235V35.048C76.7235 37.544 76.2435 39.64 75.2835 41.336C74.3555 43.032 72.9475 44.312 71.0595 45.176C69.1715 46.072 66.7875 46.52 63.9075 46.52C62.0515 46.52 60.3555 46.408 58.8195 46.184C57.3155 45.96 55.8595 45.56 54.4515 44.984V39.272C55.4755 39.72 56.4675 40.088 57.4275 40.376C58.4195 40.696 59.4275 40.92 60.4515 41.048C61.5075 41.208 62.6435 41.288 63.8595 41.288C65.6195 41.288 66.9155 40.792 67.7475 39.8C68.6115 38.808 69.0435 37.32 69.0435 35.336V34.808C69.0435 34.264 69.0595 33.704 69.0915 33.128C69.1555 32.552 69.2195 32.04 69.2835 31.592H69.0435C68.3395 32.968 67.4275 33.96 66.3075 34.568C65.2195 35.176 63.8755 35.48 62.2755 35.48C59.4915 35.48 57.2675 34.296 55.6035 31.928C53.9715 29.528 53.1555 26.2 53.1555 21.944C53.1555 19.064 53.5395 16.616 54.3075 14.6C55.0755 12.552 56.1475 11 57.5235 9.944C58.9315 8.856 60.5635 8.312 62.4195 8.312ZM65.1075 14.12C64.1795 14.12 63.4115 14.424 62.8035 15.032C62.1955 15.608 61.7315 16.488 61.4115 17.672C61.1235 18.824 60.9795 20.28 60.9795 22.04C60.9795 24.664 61.3155 26.632 61.9875 27.944C62.6915 29.224 63.7635 29.864 65.2035 29.864C65.9715 29.864 66.6275 29.752 67.1715 29.528C67.7475 29.272 68.2115 28.872 68.5635 28.328C68.9155 27.752 69.1715 27.016 69.3315 26.12C69.5235 25.224 69.6195 24.136 69.6195 22.856V21.992C69.6195 20.104 69.4755 18.584 69.1875 17.432C68.8995 16.28 68.4195 15.448 67.7475 14.936C67.1075 14.392 66.2275 14.12 65.1075 14.12ZM106.321 21.848C106.321 24.024 106.033 25.96 105.457 27.656C104.913 29.352 104.113 30.792 103.057 31.976C102.001 33.128 100.705 34.008 99.1688 34.616C97.6648 35.192 95.9688 35.48 94.0807 35.48C92.3208 35.48 90.6888 35.192 89.1848 34.616C87.6808 34.008 86.3848 33.128 85.2968 31.976C84.2408 30.792 83.4088 29.352 82.8008 27.656C82.2248 25.96 81.9368 24.024 81.9368 21.848C81.9368 18.936 82.4328 16.488 83.4248 14.504C84.4168 12.488 85.8248 10.952 87.6488 9.896C89.4728 8.84 91.6648 8.312 94.2248 8.312C96.5928 8.312 98.6728 8.84 100.465 9.896C102.289 10.952 103.713 12.488 104.737 14.504C105.793 16.488 106.321 18.936 106.321 21.848ZM89.7608 21.848C89.7608 23.576 89.9048 25.032 90.1928 26.216C90.5128 27.368 90.9928 28.248 91.6328 28.856C92.3048 29.432 93.1528 29.72 94.1768 29.72C95.2328 29.72 96.0648 29.432 96.6728 28.856C97.3128 28.248 97.7768 27.368 98.0648 26.216C98.3528 25.032 98.4968 23.576 98.4968 21.848C98.4968 20.12 98.3528 18.68 98.0648 17.528C97.7768 16.376 97.2968 15.512 96.6248 14.936C95.9848 14.36 95.1528 14.072 94.1288 14.072C92.5608 14.072 91.4408 14.728 90.7688 16.04C90.0968 17.32 89.7608 19.256 89.7608 21.848Z" fill="white"/>
<path d="M126.041 6.296C124.889 6.296 123.849 6.568 122.921 7.112C122.025 7.656 121.257 8.44 120.617 9.464C119.977 10.456 119.497 11.672 119.177 13.112C118.857 14.552 118.697 16.168 118.697 17.96C118.697 20.392 118.969 22.472 119.513 24.2C120.057 25.896 120.889 27.192 122.009 28.088C123.129 28.984 124.553 29.432 126.281 29.432C127.657 29.432 129.001 29.272 130.313 28.952C131.657 28.632 133.049 28.184 134.489 27.608V33.704C133.081 34.312 131.657 34.76 130.217 35.048C128.777 35.336 127.209 35.48 125.513 35.48C122.089 35.48 119.289 34.76 117.113 33.32C114.937 31.848 113.321 29.8 112.265 27.176C111.241 24.52 110.729 21.432 110.729 17.912C110.729 15.32 111.065 12.952 111.737 10.808C112.409 8.632 113.401 6.76 114.713 5.192C116.025 3.624 117.625 2.408 119.513 1.544C121.433 0.679998 123.625 0.247998 126.089 0.247998C127.689 0.247998 129.369 0.471998 131.129 0.919998C132.921 1.336 134.473 1.912 135.785 2.648L133.337 8.552C132.153 7.944 130.953 7.416 129.737 6.968C128.553 6.52 127.321 6.296 126.041 6.296ZM151.65 8.264C154.882 8.264 157.378 9.032 159.138 10.568C160.93 12.072 161.826 14.392 161.826 17.528V35H156.498L155.01 31.448H154.818C154.114 32.376 153.394 33.144 152.658 33.752C151.922 34.36 151.074 34.792 150.114 35.048C149.154 35.336 147.986 35.48 146.61 35.48C145.17 35.48 143.874 35.192 142.722 34.616C141.602 34.008 140.706 33.096 140.034 31.88C139.362 30.632 139.026 29.064 139.026 27.176C139.026 24.392 139.938 22.344 141.762 21.032C143.618 19.688 146.338 18.952 149.922 18.824L154.146 18.68V17.528C154.146 16.152 153.842 15.144 153.234 14.504C152.626 13.864 151.794 13.544 150.738 13.544C149.65 13.544 148.514 13.736 147.33 14.12C146.146 14.472 144.962 14.92 143.778 15.464L141.426 10.616C142.834 9.88 144.386 9.304 146.082 8.888C147.81 8.472 149.666 8.264 151.65 8.264ZM151.938 22.952C150.05 23.016 148.722 23.432 147.954 24.2C147.218 24.968 146.85 25.976 146.85 27.224C146.85 28.312 147.106 29.096 147.618 29.576C148.162 30.024 148.866 30.248 149.73 30.248C150.946 30.248 151.986 29.8 152.85 28.904C153.746 27.976 154.194 26.68 154.194 25.016V22.856L151.938 22.952ZM182.617 8.312C183.033 8.312 183.481 8.328 183.961 8.36C184.441 8.392 184.809 8.44 185.065 8.504L184.441 15.224C184.185 15.16 183.849 15.112 183.433 15.08C183.017 15.016 182.537 14.984 181.993 14.984C181.289 14.984 180.569 15.112 179.833 15.368C179.129 15.592 178.473 15.96 177.865 16.472C177.289 16.984 176.809 17.672 176.425 18.536C176.073 19.368 175.897 20.408 175.897 21.656V35H168.217V8.792H173.977L175.129 13.208H175.513C175.993 12.312 176.585 11.496 177.289 10.76C177.993 10.024 178.793 9.432 179.689 8.984C180.617 8.536 181.593 8.312 182.617 8.312ZM206.886 27.224C206.886 28.984 206.502 30.488 205.734 31.736C204.998 32.952 203.862 33.88 202.326 34.52C200.79 35.16 198.806 35.48 196.374 35.48C194.614 35.48 193.078 35.352 191.766 35.096C190.454 34.872 189.126 34.488 187.782 33.944V28.04C189.254 28.68 190.774 29.208 192.342 29.624C193.91 30.04 195.222 30.248 196.278 30.248C197.43 30.248 198.246 30.04 198.726 29.624C199.238 29.208 199.494 28.664 199.494 27.992C199.494 27.544 199.366 27.144 199.11 26.792C198.854 26.44 198.342 26.04 197.574 25.592C196.806 25.144 195.67 24.568 194.166 23.864C192.694 23.16 191.478 22.472 190.518 21.8C189.59 21.096 188.886 20.264 188.406 19.304C187.958 18.312 187.734 17.08 187.734 15.608C187.734 13.176 188.646 11.352 190.47 10.136C192.326 8.92 194.758 8.312 197.766 8.312C199.366 8.312 200.87 8.472 202.278 8.792C203.686 9.112 205.142 9.64 206.646 10.376L204.486 15.512C203.654 15.128 202.838 14.792 202.038 14.504C201.238 14.216 200.47 13.992 199.734 13.832C199.03 13.672 198.358 13.592 197.718 13.592C196.886 13.592 196.246 13.736 195.798 14.024C195.382 14.312 195.174 14.744 195.174 15.32C195.174 15.736 195.302 16.12 195.558 16.472C195.814 16.792 196.31 17.16 197.046 17.576C197.782 17.96 198.854 18.456 200.262 19.064C201.702 19.672 202.902 20.312 203.862 20.984C204.854 21.624 205.606 22.44 206.118 23.432C206.63 24.392 206.886 25.656 206.886 27.224ZM239.937 35H231.009L224.097 22.04L217.233 35H208.689L219.393 17.336L209.361 0.727998H217.953L224.337 13.064L230.529 0.727998H239.169L228.993 17.72L239.937 35Z" fill="#F07C62"/>
</svg>
