<svg width="390" height="204" viewBox="0 0 390 204" fill="none" xmlns="http://www.w3.org/2000/svg">
<g filter="url(#filter0_d_1_626)">
<path d="M2 13.9615C2 8.45992 6.45993 4 11.9615 4H366.038C371.54 4 376 8.45993 376 13.9615V182.038C376 187.54 371.54 192 366.038 192H11.9616C6.45995 192 2 187.54 2 182.038V13.9615Z" fill="white"/>
</g>
<path d="M31.4022 176.688V177.822C31.4022 178.432 31.3477 178.946 31.2387 179.365C31.1297 179.784 30.9731 180.121 30.7687 180.377C30.5643 180.632 30.3174 180.818 30.0279 180.934C29.7418 181.046 29.4182 181.102 29.0572 181.102C28.771 181.102 28.5071 181.066 28.2652 180.995C28.0234 180.923 27.8054 180.809 27.6113 180.653C27.4205 180.492 27.2571 180.285 27.1208 180.029C26.9846 179.774 26.8807 179.464 26.8092 179.099C26.7376 178.735 26.7019 178.309 26.7019 177.822V176.688C26.7019 176.078 26.7564 175.567 26.8654 175.155C26.9778 174.743 27.1361 174.413 27.3405 174.164C27.5449 173.912 27.7901 173.731 28.0762 173.622C28.3657 173.513 28.6893 173.459 29.0469 173.459C29.3365 173.459 29.6021 173.495 29.844 173.566C30.0892 173.634 30.3072 173.745 30.4979 173.898C30.6887 174.048 30.8505 174.249 30.9833 174.501C31.1195 174.75 31.2234 175.055 31.2949 175.416C31.3665 175.777 31.4022 176.201 31.4022 176.688ZM30.4519 177.975V176.53C30.4519 176.196 30.4315 175.903 30.3906 175.651C30.3532 175.395 30.297 175.177 30.222 174.997C30.1471 174.816 30.0517 174.67 29.9359 174.557C29.8235 174.445 29.6924 174.363 29.5425 174.312C29.3961 174.258 29.2309 174.23 29.0469 174.23C28.8221 174.23 28.6229 174.273 28.4492 174.358C28.2755 174.44 28.129 174.571 28.0098 174.752C27.894 174.932 27.8054 175.169 27.7441 175.462C27.6828 175.755 27.6522 176.111 27.6522 176.53V177.975C27.6522 178.309 27.6709 178.604 27.7084 178.859C27.7492 179.115 27.8088 179.336 27.8872 179.523C27.9655 179.707 28.0609 179.859 28.1733 179.978C28.2857 180.097 28.4151 180.186 28.5616 180.244C28.7114 180.298 28.8766 180.326 29.0572 180.326C29.2888 180.326 29.4914 180.281 29.6651 180.193C29.8389 180.104 29.9836 179.966 30.0994 179.779C30.2186 179.588 30.3072 179.345 30.3651 179.048C30.423 178.749 30.4519 178.391 30.4519 177.975Z" fill="#333333"/>
<path d="M12.7642 140.52V148H11.8191V141.7L9.91336 142.395V141.542L12.6161 140.52H12.7642ZM20.2133 143.688V144.822C20.2133 145.432 20.1588 145.946 20.0498 146.365C19.9408 146.784 19.7841 147.121 19.5798 147.377C19.3754 147.632 19.1285 147.818 18.839 147.934C18.5528 148.046 18.2293 148.102 17.8682 148.102C17.5821 148.102 17.3181 148.066 17.0763 147.995C16.8345 147.923 16.6165 147.809 16.4224 147.653C16.2316 147.492 16.0681 147.285 15.9319 147.029C15.7956 146.774 15.6917 146.464 15.6202 146.099C15.5487 145.735 15.5129 145.309 15.5129 144.822V143.688C15.5129 143.078 15.5674 142.567 15.6764 142.155C15.7888 141.743 15.9472 141.413 16.1516 141.164C16.3559 140.912 16.6012 140.731 16.8873 140.622C17.1768 140.513 17.5004 140.459 17.858 140.459C18.1475 140.459 18.4132 140.495 18.655 140.566C18.9003 140.634 19.1183 140.745 19.309 140.898C19.4997 141.048 19.6615 141.249 19.7944 141.501C19.9306 141.75 20.0345 142.055 20.106 142.416C20.1775 142.777 20.2133 143.201 20.2133 143.688ZM19.263 144.975V143.53C19.263 143.196 19.2426 142.903 19.2017 142.651C19.1642 142.395 19.108 142.177 19.0331 141.997C18.9582 141.816 18.8628 141.67 18.747 141.557C18.6346 141.445 18.5035 141.363 18.3536 141.312C18.2071 141.258 18.0419 141.23 17.858 141.23C17.6332 141.23 17.434 141.273 17.2602 141.358C17.0865 141.44 16.9401 141.571 16.8209 141.752C16.7051 141.932 16.6165 142.169 16.5552 142.462C16.4939 142.755 16.4632 143.111 16.4632 143.53V144.975C16.4632 145.309 16.482 145.604 16.5194 145.859C16.5603 146.115 16.6199 146.336 16.6982 146.523C16.7766 146.707 16.872 146.859 16.9844 146.978C17.0968 147.097 17.2262 147.186 17.3726 147.244C17.5225 147.298 17.6877 147.326 17.8682 147.326C18.0998 147.326 18.3025 147.281 18.4762 147.193C18.6499 147.104 18.7947 146.966 18.9105 146.779C19.0297 146.588 19.1183 146.345 19.1762 146.048C19.2341 145.749 19.263 145.391 19.263 144.975ZM26.099 143.688V144.822C26.099 145.432 26.0445 145.946 25.9355 146.365C25.8265 146.784 25.6698 147.121 25.4655 147.377C25.2611 147.632 25.0142 147.818 24.7246 147.934C24.4385 148.046 24.115 148.102 23.7539 148.102C23.4678 148.102 23.2038 148.066 22.962 147.995C22.7202 147.923 22.5022 147.809 22.308 147.653C22.1173 147.492 21.9538 147.285 21.8176 147.029C21.6813 146.774 21.5774 146.464 21.5059 146.099C21.4344 145.735 21.3986 145.309 21.3986 144.822V143.688C21.3986 143.078 21.4531 142.567 21.5621 142.155C21.6745 141.743 21.8329 141.413 22.0373 141.164C22.2416 140.912 22.4869 140.731 22.773 140.622C23.0625 140.513 23.3861 140.459 23.7437 140.459C24.0332 140.459 24.2989 140.495 24.5407 140.566C24.7859 140.634 25.0039 140.745 25.1947 140.898C25.3854 141.048 25.5472 141.249 25.68 141.501C25.8163 141.75 25.9202 142.055 25.9917 142.416C26.0632 142.777 26.099 143.201 26.099 143.688ZM25.1487 144.975V143.53C25.1487 143.196 25.1283 142.903 25.0874 142.651C25.0499 142.395 24.9937 142.177 24.9188 141.997C24.8439 141.816 24.7485 141.67 24.6327 141.557C24.5203 141.445 24.3891 141.363 24.2393 141.312C24.0928 141.258 23.9276 141.23 23.7437 141.23C23.5189 141.23 23.3196 141.273 23.1459 141.358C22.9722 141.44 22.8258 141.571 22.7065 141.752C22.5907 141.932 22.5022 142.169 22.4409 142.462C22.3796 142.755 22.3489 143.111 22.3489 143.53V144.975C22.3489 145.309 22.3676 145.604 22.4051 145.859C22.446 146.115 22.5056 146.336 22.5839 146.523C22.6623 146.707 22.7576 146.859 22.87 146.978C22.9824 147.097 23.1119 147.186 23.2583 147.244C23.4082 147.298 23.5734 147.326 23.7539 147.326C23.9855 147.326 24.1882 147.281 24.3619 147.193C24.5356 147.104 24.6804 146.966 24.7962 146.779C24.9154 146.588 25.0039 146.345 25.0618 146.048C25.1197 145.749 25.1487 145.391 25.1487 144.975ZM28.3674 140.152V148H27.4171V140.152H28.3674ZM31.7445 142.472L29.333 145.052L27.9842 146.452L27.9076 145.445L28.8732 144.291L30.5899 142.472H31.7445ZM30.8811 148L28.909 145.364L29.3995 144.521L31.9949 148H30.8811Z" fill="#333333"/>
<path d="M14.532 114.223V115H9.66301V114.32L12.1001 111.608C12.3998 111.274 12.6314 110.991 12.7949 110.759C12.9618 110.524 13.0776 110.315 13.1423 110.131C13.2104 109.944 13.2445 109.753 13.2445 109.559C13.2445 109.314 13.1934 109.092 13.0912 108.895C12.9924 108.694 12.846 108.534 12.6518 108.414C12.4577 108.295 12.2227 108.236 11.9468 108.236C11.6164 108.236 11.3405 108.3 11.1191 108.43C10.9011 108.556 10.7376 108.733 10.6286 108.961C10.5196 109.189 10.4651 109.452 10.4651 109.748H9.51996C9.51996 109.329 9.61192 108.946 9.79585 108.598C9.97977 108.251 10.2523 107.975 10.6133 107.771C10.9743 107.563 11.4188 107.459 11.9468 107.459C12.4168 107.459 12.8187 107.542 13.1525 107.709C13.4863 107.873 13.7418 108.104 13.9189 108.404C14.0994 108.7 14.1897 109.048 14.1897 109.446C14.1897 109.664 14.1522 109.886 14.0773 110.111C14.0057 110.332 13.9053 110.553 13.7758 110.775C13.6498 110.996 13.5016 111.214 13.3313 111.429C13.1644 111.643 12.9856 111.854 12.7949 112.062L10.8023 114.223H14.532ZM20.2133 110.688V111.822C20.2133 112.432 20.1588 112.946 20.0498 113.365C19.9408 113.784 19.7841 114.121 19.5798 114.377C19.3754 114.632 19.1285 114.818 18.839 114.934C18.5528 115.046 18.2293 115.102 17.8682 115.102C17.5821 115.102 17.3181 115.066 17.0763 114.995C16.8345 114.923 16.6165 114.809 16.4224 114.653C16.2316 114.492 16.0681 114.285 15.9319 114.029C15.7956 113.774 15.6917 113.464 15.6202 113.099C15.5487 112.735 15.5129 112.309 15.5129 111.822V110.688C15.5129 110.078 15.5674 109.567 15.6764 109.155C15.7888 108.743 15.9472 108.413 16.1516 108.164C16.3559 107.912 16.6012 107.731 16.8873 107.622C17.1768 107.513 17.5004 107.459 17.858 107.459C18.1475 107.459 18.4132 107.495 18.655 107.566C18.9003 107.634 19.1183 107.745 19.309 107.898C19.4997 108.048 19.6615 108.249 19.7944 108.501C19.9306 108.75 20.0345 109.055 20.106 109.416C20.1775 109.777 20.2133 110.201 20.2133 110.688ZM19.263 111.975V110.53C19.263 110.196 19.2426 109.903 19.2017 109.651C19.1642 109.395 19.108 109.177 19.0331 108.997C18.9582 108.816 18.8628 108.67 18.747 108.557C18.6346 108.445 18.5035 108.363 18.3536 108.312C18.2071 108.258 18.0419 108.23 17.858 108.23C17.6332 108.23 17.434 108.273 17.2602 108.358C17.0865 108.44 16.9401 108.571 16.8209 108.752C16.7051 108.932 16.6165 109.169 16.5552 109.462C16.4939 109.755 16.4632 110.111 16.4632 110.53V111.975C16.4632 112.309 16.482 112.604 16.5194 112.859C16.5603 113.115 16.6199 113.336 16.6982 113.523C16.7766 113.707 16.872 113.859 16.9844 113.978C17.0968 114.097 17.2262 114.186 17.3726 114.244C17.5225 114.298 17.6877 114.326 17.8682 114.326C18.0998 114.326 18.3025 114.281 18.4762 114.193C18.6499 114.104 18.7947 113.966 18.9105 113.779C19.0297 113.588 19.1183 113.345 19.1762 113.048C19.2341 112.749 19.263 112.391 19.263 111.975ZM26.099 110.688V111.822C26.099 112.432 26.0445 112.946 25.9355 113.365C25.8265 113.784 25.6698 114.121 25.4655 114.377C25.2611 114.632 25.0142 114.818 24.7246 114.934C24.4385 115.046 24.115 115.102 23.7539 115.102C23.4678 115.102 23.2038 115.066 22.962 114.995C22.7202 114.923 22.5022 114.809 22.308 114.653C22.1173 114.492 21.9538 114.285 21.8176 114.029C21.6813 113.774 21.5774 113.464 21.5059 113.099C21.4344 112.735 21.3986 112.309 21.3986 111.822V110.688C21.3986 110.078 21.4531 109.567 21.5621 109.155C21.6745 108.743 21.8329 108.413 22.0373 108.164C22.2416 107.912 22.4869 107.731 22.773 107.622C23.0625 107.513 23.3861 107.459 23.7437 107.459C24.0332 107.459 24.2989 107.495 24.5407 107.566C24.7859 107.634 25.0039 107.745 25.1947 107.898C25.3854 108.048 25.5472 108.249 25.68 108.501C25.8163 108.75 25.9202 109.055 25.9917 109.416C26.0632 109.777 26.099 110.201 26.099 110.688ZM25.1487 111.975V110.53C25.1487 110.196 25.1283 109.903 25.0874 109.651C25.0499 109.395 24.9937 109.177 24.9188 108.997C24.8439 108.816 24.7485 108.67 24.6327 108.557C24.5203 108.445 24.3891 108.363 24.2393 108.312C24.0928 108.258 23.9276 108.23 23.7437 108.23C23.5189 108.23 23.3196 108.273 23.1459 108.358C22.9722 108.44 22.8258 108.571 22.7065 108.752C22.5907 108.932 22.5022 109.169 22.4409 109.462C22.3796 109.755 22.3489 110.111 22.3489 110.53V111.975C22.3489 112.309 22.3676 112.604 22.4051 112.859C22.446 113.115 22.5056 113.336 22.5839 113.523C22.6623 113.707 22.7576 113.859 22.87 113.978C22.9824 114.097 23.1119 114.186 23.2583 114.244C23.4082 114.298 23.5734 114.326 23.7539 114.326C23.9855 114.326 24.1882 114.281 24.3619 114.193C24.5356 114.104 24.6804 113.966 24.7962 113.779C24.9154 113.588 25.0039 113.345 25.0618 113.048C25.1197 112.749 25.1487 112.391 25.1487 111.975ZM28.3674 107.152V115H27.4171V107.152H28.3674ZM31.7445 109.472L29.333 112.052L27.9842 113.452L27.9076 112.445L28.8732 111.291L30.5899 109.472H31.7445ZM30.8811 115L28.909 112.364L29.3995 111.521L31.9949 115H30.8811Z" fill="#333333"/>
<path d="M11.0374 78.8156H11.7118C12.0421 78.8156 12.3146 78.7611 12.5292 78.6522C12.7472 78.5398 12.909 78.3882 13.0146 78.1974C13.1236 78.0033 13.1781 77.7853 13.1781 77.5435C13.1781 77.2574 13.1304 77.0172 13.035 76.8231C12.9396 76.629 12.7966 76.4825 12.6059 76.3837C12.4151 76.2849 12.1733 76.2356 11.8804 76.2356C11.6147 76.2356 11.3797 76.2883 11.1753 76.3939C10.9743 76.4961 10.816 76.6426 10.7002 76.8333C10.5878 77.0241 10.5316 77.2489 10.5316 77.5077H9.58637C9.58637 77.1296 9.68174 76.7856 9.87248 76.4757C10.0632 76.1657 10.3306 75.9188 10.6746 75.7349C11.022 75.5509 11.4239 75.459 11.8804 75.459C12.33 75.459 12.7234 75.539 13.0606 75.6991C13.3978 75.8558 13.66 76.0908 13.8474 76.4042C14.0347 76.7141 14.1284 77.1007 14.1284 77.5639C14.1284 77.7513 14.0841 77.9522 13.9955 78.1668C13.9104 78.378 13.7758 78.5755 13.5919 78.7594C13.4114 78.9434 13.1764 79.0949 12.8869 79.2142C12.5973 79.33 12.2499 79.3879 11.8446 79.3879H11.0374V78.8156ZM11.0374 79.5922V79.0251H11.8446C12.318 79.0251 12.7097 79.0813 13.0197 79.1937C13.3296 79.3061 13.5732 79.456 13.7503 79.6433C13.9308 79.8307 14.0568 80.0367 14.1284 80.2615C14.2033 80.4829 14.2408 80.7043 14.2408 80.9257C14.2408 81.2731 14.1812 81.5814 14.0619 81.8505C13.9461 82.1195 13.7809 82.3477 13.5664 82.5351C13.3552 82.7224 13.1065 82.8638 12.8204 82.9591C12.5343 83.0545 12.2227 83.1022 11.8855 83.1022C11.5619 83.1022 11.257 83.0562 10.9709 82.9642C10.6882 82.8723 10.4379 82.7394 10.2199 82.5657C10.0019 82.3886 9.83161 82.1723 9.70899 81.9169C9.58637 81.658 9.52506 81.3634 9.52506 81.033H10.4702C10.4702 81.2919 10.5264 81.5184 10.6388 81.7125C10.7547 81.9067 10.9181 82.0582 11.1293 82.1672C11.3439 82.2728 11.596 82.3256 11.8855 82.3256C12.175 82.3256 12.4236 82.2762 12.6314 82.1774C12.8426 82.0753 13.0044 81.922 13.1168 81.7176C13.2326 81.5133 13.2905 81.2561 13.2905 80.9461C13.2905 80.6362 13.2258 80.3824 13.0963 80.1849C12.9669 79.9839 12.783 79.8358 12.5445 79.7404C12.3095 79.6416 12.0319 79.5922 11.7118 79.5922H11.0374ZM20.2133 78.6879V79.8221C20.2133 80.4318 20.1588 80.9461 20.0498 81.3651C19.9408 81.784 19.7841 82.1212 19.5798 82.3767C19.3754 82.6321 19.1285 82.8178 18.839 82.9336C18.5528 83.046 18.2293 83.1022 17.8682 83.1022C17.5821 83.1022 17.3181 83.0664 17.0763 82.9949C16.8345 82.9234 16.6165 82.8093 16.4224 82.6526C16.2316 82.4925 16.0681 82.2847 15.9319 82.0293C15.7956 81.7738 15.6917 81.4639 15.6202 81.0994C15.5487 80.735 15.5129 80.3092 15.5129 79.8221V78.6879C15.5129 78.0782 15.5674 77.5673 15.6764 77.1552C15.7888 76.7431 15.9472 76.4127 16.1516 76.164C16.3559 75.912 16.6012 75.7315 16.8873 75.6225C17.1768 75.5135 17.5004 75.459 17.858 75.459C18.1475 75.459 18.4132 75.4947 18.655 75.5663C18.9003 75.6344 19.1183 75.7451 19.309 75.8983C19.4997 76.0482 19.6615 76.2492 19.7944 76.5012C19.9306 76.7499 20.0345 77.0547 20.106 77.4158C20.1775 77.7768 20.2133 78.2009 20.2133 78.6879ZM19.263 79.9754V78.5295C19.263 78.1957 19.2426 77.9028 19.2017 77.6508C19.1642 77.3953 19.108 77.1773 19.0331 76.9968C18.9582 76.8163 18.8628 76.6698 18.747 76.5574C18.6346 76.445 18.5035 76.3633 18.3536 76.3122C18.2071 76.2577 18.0419 76.2304 17.858 76.2304C17.6332 76.2304 17.434 76.273 17.2602 76.3582C17.0865 76.4399 16.9401 76.571 16.8209 76.7516C16.7051 76.9321 16.6165 77.1688 16.5552 77.4617C16.4939 77.7547 16.4632 78.1106 16.4632 78.5295V79.9754C16.4632 80.3092 16.482 80.6038 16.5194 80.8593C16.5603 81.1147 16.6199 81.3361 16.6982 81.5235C16.7766 81.7074 16.872 81.859 16.9844 81.9782C17.0968 82.0974 17.2262 82.1859 17.3726 82.2439C17.5225 82.2984 17.6877 82.3256 17.8682 82.3256C18.0998 82.3256 18.3025 82.2813 18.4762 82.1928C18.6499 82.1042 18.7947 81.9663 18.9105 81.7789C19.0297 81.5882 19.1183 81.3447 19.1762 81.0483C19.2341 80.7486 19.263 80.391 19.263 79.9754ZM26.099 78.6879V79.8221C26.099 80.4318 26.0445 80.9461 25.9355 81.3651C25.8265 81.784 25.6698 82.1212 25.4655 82.3767C25.2611 82.6321 25.0142 82.8178 24.7246 82.9336C24.4385 83.046 24.115 83.1022 23.7539 83.1022C23.4678 83.1022 23.2038 83.0664 22.962 82.9949C22.7202 82.9234 22.5022 82.8093 22.308 82.6526C22.1173 82.4925 21.9538 82.2847 21.8176 82.0293C21.6813 81.7738 21.5774 81.4639 21.5059 81.0994C21.4344 80.735 21.3986 80.3092 21.3986 79.8221V78.6879C21.3986 78.0782 21.4531 77.5673 21.5621 77.1552C21.6745 76.7431 21.8329 76.4127 22.0373 76.164C22.2416 75.912 22.4869 75.7315 22.773 75.6225C23.0625 75.5135 23.3861 75.459 23.7437 75.459C24.0332 75.459 24.2989 75.4947 24.5407 75.5663C24.7859 75.6344 25.0039 75.7451 25.1947 75.8983C25.3854 76.0482 25.5472 76.2492 25.68 76.5012C25.8163 76.7499 25.9202 77.0547 25.9917 77.4158C26.0632 77.7768 26.099 78.2009 26.099 78.6879ZM25.1487 79.9754V78.5295C25.1487 78.1957 25.1283 77.9028 25.0874 77.6508C25.0499 77.3953 24.9937 77.1773 24.9188 76.9968C24.8439 76.8163 24.7485 76.6698 24.6327 76.5574C24.5203 76.445 24.3891 76.3633 24.2393 76.3122C24.0928 76.2577 23.9276 76.2304 23.7437 76.2304C23.5189 76.2304 23.3196 76.273 23.1459 76.3582C22.9722 76.4399 22.8258 76.571 22.7065 76.7516C22.5907 76.9321 22.5022 77.1688 22.4409 77.4617C22.3796 77.7547 22.3489 78.1106 22.3489 78.5295V79.9754C22.3489 80.3092 22.3676 80.6038 22.4051 80.8593C22.446 81.1147 22.5056 81.3361 22.5839 81.5235C22.6623 81.7074 22.7576 81.859 22.87 81.9782C22.9824 82.0974 23.1119 82.1859 23.2583 82.2439C23.4082 82.2984 23.5734 82.3256 23.7539 82.3256C23.9855 82.3256 24.1882 82.2813 24.3619 82.1928C24.5356 82.1042 24.6804 81.9663 24.7962 81.7789C24.9154 81.5882 25.0039 81.3447 25.0618 81.0483C25.1197 80.7486 25.1487 80.391 25.1487 79.9754ZM28.3674 75.1524V83H27.4171V75.1524H28.3674ZM31.7445 77.472L29.333 80.052L27.9842 81.4519L27.9076 80.4454L28.8732 79.2908L30.5899 77.472H31.7445ZM30.8811 83L28.909 80.3637L29.3995 79.5207L31.9949 83H30.8811Z" fill="#333333"/>
<path d="M14.6853 47.4965V48.2731H9.31048V47.7162L12.6416 42.5611H13.4131L12.5854 44.053L10.3834 47.4965H14.6853ZM13.6481 42.5611V50H12.7029V42.5611H13.6481ZM20.2133 45.6879V46.8221C20.2133 47.4318 20.1588 47.9461 20.0498 48.3651C19.9408 48.784 19.7841 49.1212 19.5798 49.3767C19.3754 49.6321 19.1285 49.8178 18.839 49.9336C18.5528 50.046 18.2293 50.1022 17.8682 50.1022C17.5821 50.1022 17.3181 50.0664 17.0763 49.9949C16.8345 49.9234 16.6165 49.8093 16.4224 49.6526C16.2316 49.4925 16.0681 49.2847 15.9319 49.0293C15.7956 48.7738 15.6917 48.4639 15.6202 48.0994C15.5487 47.735 15.5129 47.3092 15.5129 46.8221V45.6879C15.5129 45.0782 15.5674 44.5673 15.6764 44.1552C15.7888 43.7431 15.9472 43.4127 16.1516 43.164C16.3559 42.912 16.6012 42.7315 16.8873 42.6225C17.1768 42.5135 17.5004 42.459 17.858 42.459C18.1475 42.459 18.4132 42.4947 18.655 42.5663C18.9003 42.6344 19.1183 42.7451 19.309 42.8983C19.4997 43.0482 19.6615 43.2492 19.7944 43.5012C19.9306 43.7499 20.0345 44.0547 20.106 44.4158C20.1775 44.7768 20.2133 45.2009 20.2133 45.6879ZM19.263 46.9754V45.5295C19.263 45.1957 19.2426 44.9028 19.2017 44.6508C19.1642 44.3953 19.108 44.1773 19.0331 43.9968C18.9582 43.8163 18.8628 43.6698 18.747 43.5574C18.6346 43.445 18.5035 43.3633 18.3536 43.3122C18.2071 43.2577 18.0419 43.2304 17.858 43.2304C17.6332 43.2304 17.434 43.273 17.2602 43.3582C17.0865 43.4399 16.9401 43.571 16.8209 43.7516C16.7051 43.9321 16.6165 44.1688 16.5552 44.4617C16.4939 44.7547 16.4632 45.1106 16.4632 45.5295V46.9754C16.4632 47.3092 16.482 47.6038 16.5194 47.8593C16.5603 48.1147 16.6199 48.3361 16.6982 48.5235C16.7766 48.7074 16.872 48.859 16.9844 48.9782C17.0968 49.0974 17.2262 49.1859 17.3726 49.2439C17.5225 49.2984 17.6877 49.3256 17.8682 49.3256C18.0998 49.3256 18.3025 49.2813 18.4762 49.1928C18.6499 49.1042 18.7947 48.9663 18.9105 48.7789C19.0297 48.5882 19.1183 48.3447 19.1762 48.0483C19.2341 47.7486 19.263 47.391 19.263 46.9754ZM26.099 45.6879V46.8221C26.099 47.4318 26.0445 47.9461 25.9355 48.3651C25.8265 48.784 25.6698 49.1212 25.4655 49.3767C25.2611 49.6321 25.0142 49.8178 24.7246 49.9336C24.4385 50.046 24.115 50.1022 23.7539 50.1022C23.4678 50.1022 23.2038 50.0664 22.962 49.9949C22.7202 49.9234 22.5022 49.8093 22.308 49.6526C22.1173 49.4925 21.9538 49.2847 21.8176 49.0293C21.6813 48.7738 21.5774 48.4639 21.5059 48.0994C21.4344 47.735 21.3986 47.3092 21.3986 46.8221V45.6879C21.3986 45.0782 21.4531 44.5673 21.5621 44.1552C21.6745 43.7431 21.8329 43.4127 22.0373 43.164C22.2416 42.912 22.4869 42.7315 22.773 42.6225C23.0625 42.5135 23.3861 42.459 23.7437 42.459C24.0332 42.459 24.2989 42.4947 24.5407 42.5663C24.7859 42.6344 25.0039 42.7451 25.1947 42.8983C25.3854 43.0482 25.5472 43.2492 25.68 43.5012C25.8163 43.7499 25.9202 44.0547 25.9917 44.4158C26.0632 44.7768 26.099 45.2009 26.099 45.6879ZM25.1487 46.9754V45.5295C25.1487 45.1957 25.1283 44.9028 25.0874 44.6508C25.0499 44.3953 24.9937 44.1773 24.9188 43.9968C24.8439 43.8163 24.7485 43.6698 24.6327 43.5574C24.5203 43.445 24.3891 43.3633 24.2393 43.3122C24.0928 43.2577 23.9276 43.2304 23.7437 43.2304C23.5189 43.2304 23.3196 43.273 23.1459 43.3582C22.9722 43.4399 22.8258 43.571 22.7065 43.7516C22.5907 43.9321 22.5022 44.1688 22.4409 44.4617C22.3796 44.7547 22.3489 45.1106 22.3489 45.5295V46.9754C22.3489 47.3092 22.3676 47.6038 22.4051 47.8593C22.446 48.1147 22.5056 48.3361 22.5839 48.5235C22.6623 48.7074 22.7576 48.859 22.87 48.9782C22.9824 49.0974 23.1119 49.1859 23.2583 49.2439C23.4082 49.2984 23.5734 49.3256 23.7539 49.3256C23.9855 49.3256 24.1882 49.2813 24.3619 49.1928C24.5356 49.1042 24.6804 48.9663 24.7962 48.7789C24.9154 48.5882 25.0039 48.3447 25.0618 48.0483C25.1197 47.7486 25.1487 47.391 25.1487 46.9754ZM28.3674 42.1524V50H27.4171V42.1524H28.3674ZM31.7445 44.472L29.333 47.052L27.9842 48.4519L27.9076 47.4454L28.8732 46.2908L30.5899 44.472H31.7445ZM30.8811 50L28.909 47.3637L29.3995 46.5207L31.9949 50H30.8811Z" fill="#333333"/>
<rect width="49.4028" height="14.3162" rx="5" transform="matrix(-0.00208098 -0.999998 1 -0.000794135 69.1716 167.224)" fill="#17120F"/>
<rect width="39.9628" height="14.3162" rx="5" transform="matrix(-0.00230552 -0.999997 1 -0.000716793 90.2954 167.275)" fill="#F07C62"/>
<rect width="122.659" height="14.3162" rx="5" transform="matrix(-0.00230552 -0.999997 1 -0.000716793 111.234 168.197)" fill="#17120F"/>
<rect width="10.1904" height="14.3162" rx="5" transform="matrix(-0.00208098 -0.999998 1 -0.000794135 177.021 167.224)" fill="#17120F"/>
<rect width="72.9088" height="14.3162" rx="5" transform="matrix(-0.00230552 -0.999997 1 -0.000716793 198.144 166.34)" fill="#F07C62"/>
<rect width="39.4656" height="14.3162" rx="5" transform="matrix(-0.00230552 -0.999997 1 -0.000716793 219.024 166.043)" fill="#17120F"/>
<rect width="31.1992" height="14.3162" rx="5" transform="matrix(-0.00208098 -0.999998 1 -0.000794135 284.915 166.69)" fill="#17120F"/>
<rect width="52.8294" height="14.3162" rx="5" transform="matrix(-0.00230552 -0.999997 1 -0.000716793 305.92 167.511)" fill="#F07C62"/>
<rect width="18.2893" height="14.3162" rx="5" transform="matrix(-0.00230552 -0.999997 1 -0.000716793 326.862 167.258)" fill="#17120F"/>
<path d="M22.696 21.12C22.024 21.12 21.376 20.988 20.752 20.724C20.128 20.46 19.576 20.088 19.096 19.608L19.864 18.72C20.32 19.168 20.784 19.5 21.256 19.716C21.736 19.932 22.236 20.04 22.756 20.04C23.164 20.04 23.52 19.984 23.824 19.872C24.136 19.752 24.376 19.584 24.544 19.368C24.712 19.152 24.796 18.908 24.796 18.636C24.796 18.26 24.664 17.972 24.4 17.772C24.136 17.572 23.7 17.42 23.092 17.316L21.688 17.088C20.92 16.952 20.344 16.704 19.96 16.344C19.584 15.984 19.396 15.504 19.396 14.904C19.396 14.424 19.524 14.004 19.78 13.644C20.036 13.276 20.396 12.992 20.86 12.792C21.332 12.592 21.876 12.492 22.492 12.492C23.1 12.492 23.696 12.592 24.28 12.792C24.872 12.984 25.404 13.264 25.876 13.632L25.18 14.592C24.276 13.904 23.36 13.56 22.432 13.56C22.064 13.56 21.744 13.612 21.472 13.716C21.2 13.82 20.988 13.968 20.836 14.16C20.684 14.344 20.608 14.56 20.608 14.808C20.608 15.152 20.724 15.416 20.956 15.6C21.188 15.776 21.572 15.904 22.108 15.984L23.464 16.212C24.352 16.356 25.004 16.616 25.42 16.992C25.836 17.368 26.044 17.884 26.044 18.54C26.044 19.052 25.904 19.504 25.624 19.896C25.344 20.28 24.952 20.58 24.448 20.796C23.944 21.012 23.36 21.12 22.696 21.12ZM30.1126 21.108C29.5126 21.108 28.9686 20.968 28.4806 20.688C28.0006 20.408 27.6166 20.028 27.3286 19.548C27.0486 19.068 26.9086 18.532 26.9086 17.94C26.9086 17.356 27.0446 16.828 27.3166 16.356C27.5886 15.876 27.9566 15.496 28.4206 15.216C28.8846 14.928 29.4006 14.784 29.9686 14.784C30.5366 14.784 31.0406 14.928 31.4806 15.216C31.9206 15.496 32.2686 15.88 32.5246 16.368C32.7886 16.848 32.9206 17.392 32.9206 18V18.336H28.1086C28.1726 18.672 28.2966 18.972 28.4806 19.236C28.6726 19.5 28.9126 19.708 29.2006 19.86C29.4966 20.012 29.8166 20.088 30.1606 20.088C30.4566 20.088 30.7406 20.044 31.0126 19.956C31.2926 19.86 31.5246 19.724 31.7086 19.548L32.4766 20.304C32.1166 20.576 31.7446 20.78 31.3606 20.916C30.9846 21.044 30.5686 21.108 30.1126 21.108ZM28.1206 17.436H31.7326C31.6846 17.116 31.5726 16.836 31.3966 16.596C31.2286 16.348 31.0166 16.156 30.7606 16.02C30.5126 15.876 30.2406 15.804 29.9446 15.804C29.6406 15.804 29.3606 15.872 29.1046 16.008C28.8486 16.144 28.6326 16.336 28.4566 16.584C28.2886 16.824 28.1766 17.108 28.1206 17.436ZM34.0635 21V12.6L35.2635 12.372V21H34.0635ZM36.6768 21V12.6L37.8768 12.372V21H36.6768ZM42.218 21.108C41.618 21.108 41.074 20.968 40.586 20.688C40.106 20.408 39.722 20.028 39.434 19.548C39.154 19.068 39.014 18.532 39.014 17.94C39.014 17.356 39.15 16.828 39.422 16.356C39.694 15.876 40.062 15.496 40.526 15.216C40.99 14.928 41.506 14.784 42.074 14.784C42.642 14.784 43.146 14.928 43.586 15.216C44.026 15.496 44.374 15.88 44.63 16.368C44.894 16.848 45.026 17.392 45.026 18V18.336H40.214C40.278 18.672 40.402 18.972 40.586 19.236C40.778 19.5 41.018 19.708 41.306 19.86C41.602 20.012 41.922 20.088 42.266 20.088C42.562 20.088 42.846 20.044 43.118 19.956C43.398 19.86 43.63 19.724 43.814 19.548L44.582 20.304C44.222 20.576 43.85 20.78 43.466 20.916C43.09 21.044 42.674 21.108 42.218 21.108ZM40.226 17.436H43.838C43.79 17.116 43.678 16.836 43.502 16.596C43.334 16.348 43.122 16.156 42.866 16.02C42.618 15.876 42.346 15.804 42.05 15.804C41.746 15.804 41.466 15.872 41.21 16.008C40.954 16.144 40.738 16.336 40.562 16.584C40.394 16.824 40.282 17.108 40.226 17.436ZM46.1689 21V14.892H47.3689V15.672C47.5609 15.384 47.7969 15.16 48.0769 15C48.3649 14.832 48.6889 14.748 49.0489 14.748C49.2969 14.756 49.5009 14.792 49.6609 14.856V15.936C49.5489 15.888 49.4329 15.856 49.3129 15.84C49.1929 15.816 49.0729 15.804 48.9529 15.804C48.6009 15.804 48.2889 15.9 48.0169 16.092C47.7449 16.276 47.5289 16.548 47.3689 16.908V21H46.1689ZM52.7221 21.12C52.1941 21.12 51.6981 21.044 51.2341 20.892C50.7781 20.732 50.3821 20.508 50.0461 20.22L50.7061 19.428C51.0181 19.676 51.3381 19.868 51.6661 20.004C52.0021 20.132 52.3421 20.196 52.6861 20.196C53.1181 20.196 53.4701 20.112 53.7421 19.944C54.0141 19.776 54.1501 19.556 54.1501 19.284C54.1501 19.06 54.0701 18.884 53.9101 18.756C53.7501 18.628 53.5021 18.54 53.1661 18.492L52.0621 18.336C51.4541 18.248 50.9981 18.06 50.6941 17.772C50.3901 17.484 50.2381 17.1 50.2381 16.62C50.2381 16.252 50.3381 15.932 50.5381 15.66C50.7381 15.38 51.0181 15.164 51.3781 15.012C51.7381 14.852 52.1581 14.772 52.6381 14.772C53.0781 14.772 53.5021 14.836 53.9101 14.964C54.3181 15.092 54.7101 15.292 55.0861 15.564L54.4741 16.356C54.1381 16.132 53.8101 15.968 53.4901 15.864C53.1781 15.76 52.8621 15.708 52.5421 15.708C52.1741 15.708 51.8781 15.788 51.6541 15.948C51.4301 16.1 51.3181 16.3 51.3181 16.548C51.3181 16.772 51.3941 16.948 51.5461 17.076C51.7061 17.196 51.9661 17.28 52.3261 17.328L53.4301 17.484C54.0381 17.572 54.4981 17.76 54.8101 18.048C55.1221 18.328 55.2781 18.708 55.2781 19.188C55.2781 19.556 55.1661 19.888 54.9421 20.184C54.7181 20.472 54.4141 20.7 54.0301 20.868C53.6461 21.036 53.2101 21.12 52.7221 21.12ZM58.708 21V12.6L59.908 12.372V15.468C60.42 15.02 61.04 14.796 61.768 14.796C62.344 14.796 62.864 14.936 63.328 15.216C63.8 15.496 64.172 15.872 64.444 16.344C64.716 16.816 64.852 17.348 64.852 17.94C64.852 18.532 64.712 19.068 64.432 19.548C64.16 20.02 63.788 20.396 63.316 20.676C62.852 20.956 62.328 21.096 61.744 21.096C61.408 21.096 61.08 21.044 60.76 20.94C60.448 20.828 60.16 20.672 59.896 20.472V21H58.708ZM61.612 20.052C62.004 20.052 62.352 19.96 62.656 19.776C62.968 19.592 63.216 19.344 63.4 19.032C63.584 18.712 63.676 18.352 63.676 17.952C63.676 17.552 63.584 17.192 63.4 16.872C63.216 16.552 62.968 16.3 62.656 16.116C62.352 15.932 62.004 15.84 61.612 15.84C61.268 15.84 60.948 15.904 60.652 16.032C60.356 16.16 60.108 16.34 59.908 16.572V19.332C60.108 19.556 60.356 19.732 60.652 19.86C60.956 19.988 61.276 20.052 61.612 20.052ZM66.2293 23.58C66.1013 23.58 65.9813 23.572 65.8693 23.556C65.7573 23.548 65.6653 23.532 65.5933 23.508V22.452C65.7373 22.484 65.9133 22.5 66.1213 22.5C66.6813 22.5 67.0853 22.2 67.3333 21.6L67.5973 21.012L65.1493 14.892H66.4813L68.2573 19.548L70.2253 14.892H71.5213L68.5693 21.756C68.3773 22.188 68.1733 22.536 67.9573 22.8C67.7413 23.072 67.4933 23.268 67.2133 23.388C66.9333 23.516 66.6053 23.58 66.2293 23.58ZM76.8744 21.12C76.3464 21.12 75.8504 21.044 75.3864 20.892C74.9304 20.732 74.5344 20.508 74.1984 20.22L74.8584 19.428C75.1704 19.676 75.4904 19.868 75.8184 20.004C76.1544 20.132 76.4944 20.196 76.8384 20.196C77.2704 20.196 77.6224 20.112 77.8944 19.944C78.1664 19.776 78.3024 19.556 78.3024 19.284C78.3024 19.06 78.2224 18.884 78.0624 18.756C77.9024 18.628 77.6544 18.54 77.3184 18.492L76.2144 18.336C75.6064 18.248 75.1504 18.06 74.8464 17.772C74.5424 17.484 74.3904 17.1 74.3904 16.62C74.3904 16.252 74.4904 15.932 74.6904 15.66C74.8904 15.38 75.1704 15.164 75.5304 15.012C75.8904 14.852 76.3104 14.772 76.7904 14.772C77.2304 14.772 77.6544 14.836 78.0624 14.964C78.4704 15.092 78.8624 15.292 79.2384 15.564L78.6264 16.356C78.2904 16.132 77.9624 15.968 77.6424 15.864C77.3304 15.76 77.0144 15.708 76.6944 15.708C76.3264 15.708 76.0304 15.788 75.8064 15.948C75.5824 16.1 75.4704 16.3 75.4704 16.548C75.4704 16.772 75.5464 16.948 75.6984 17.076C75.8584 17.196 76.1184 17.28 76.4784 17.328L77.5824 17.484C78.1904 17.572 78.6504 17.76 78.9624 18.048C79.2744 18.328 79.4304 18.708 79.4304 19.188C79.4304 19.556 79.3184 19.888 79.0944 20.184C78.8704 20.472 78.5664 20.7 78.1824 20.868C77.7984 21.036 77.3624 21.12 76.8744 21.12ZM83.3151 21.12C82.7231 21.12 82.1831 20.98 81.6951 20.7C81.2151 20.42 80.8351 20.04 80.5551 19.56C80.2751 19.08 80.1351 18.544 80.1351 17.952C80.1351 17.36 80.2751 16.824 80.5551 16.344C80.8351 15.864 81.2151 15.484 81.6951 15.204C82.1831 14.916 82.7231 14.772 83.3151 14.772C83.9151 14.772 84.4551 14.916 84.9351 15.204C85.4151 15.484 85.7951 15.864 86.0751 16.344C86.3551 16.824 86.4951 17.36 86.4951 17.952C86.4951 18.544 86.3551 19.08 86.0751 19.56C85.7951 20.04 85.4151 20.42 84.9351 20.7C84.4551 20.98 83.9151 21.12 83.3151 21.12ZM83.3151 20.064C83.6911 20.064 84.0311 19.972 84.3351 19.788C84.6391 19.596 84.8791 19.34 85.0551 19.02C85.2311 18.7 85.3191 18.34 85.3191 17.94C85.3191 17.548 85.2271 17.196 85.0431 16.884C84.8671 16.564 84.6271 16.308 84.3231 16.116C84.0271 15.924 83.6911 15.828 83.3151 15.828C82.9391 15.828 82.5991 15.924 82.2951 16.116C81.9991 16.308 81.7591 16.564 81.5751 16.884C81.3991 17.196 81.3111 17.548 81.3111 17.94C81.3111 18.34 81.3991 18.7 81.5751 19.02C81.7511 19.34 81.9911 19.596 82.2951 19.788C82.5991 19.972 82.9391 20.064 83.3151 20.064ZM87.6299 21V12.6L88.8299 12.372V21H87.6299ZM93.0512 21.096C92.4832 21.096 91.9632 20.956 91.4912 20.676C91.0192 20.396 90.6472 20.02 90.3752 19.548C90.1032 19.068 89.9672 18.532 89.9672 17.94C89.9672 17.348 90.1032 16.816 90.3752 16.344C90.6552 15.872 91.0312 15.496 91.5032 15.216C91.9752 14.936 92.4992 14.796 93.0752 14.796C93.4112 14.796 93.7352 14.848 94.0472 14.952C94.3592 15.056 94.6472 15.208 94.9112 15.408V12.6L96.1112 12.372V21H94.9232V20.412C94.4032 20.868 93.7792 21.096 93.0512 21.096ZM93.2072 20.052C93.5592 20.052 93.8792 19.988 94.1672 19.86C94.4632 19.732 94.7112 19.548 94.9112 19.308V16.56C94.7112 16.336 94.4632 16.16 94.1672 16.032C93.8792 15.896 93.5592 15.828 93.2072 15.828C92.8232 15.828 92.4752 15.92 92.1632 16.104C91.8512 16.288 91.6032 16.54 91.4192 16.86C91.2352 17.172 91.1432 17.528 91.1432 17.928C91.1432 18.328 91.2352 18.688 91.4192 19.008C91.6032 19.328 91.8512 19.584 92.1632 19.776C92.4752 19.96 92.8232 20.052 93.2072 20.052ZM102.008 21L99.368 14.892H100.688L102.596 19.464L104.504 14.892H105.776L103.16 21H102.008ZM108.206 21.108C107.766 21.108 107.378 21.032 107.042 20.88C106.706 20.72 106.442 20.5 106.25 20.22C106.058 19.94 105.962 19.616 105.962 19.248C105.962 18.672 106.182 18.22 106.622 17.892C107.062 17.556 107.666 17.388 108.434 17.388C109.034 17.388 109.59 17.504 110.102 17.736V17.088C110.102 16.648 109.974 16.32 109.718 16.104C109.47 15.888 109.102 15.78 108.614 15.78C108.334 15.78 108.042 15.824 107.738 15.912C107.434 15.992 107.094 16.12 106.718 16.296L106.274 15.396C106.738 15.18 107.17 15.024 107.57 14.928C107.97 14.824 108.374 14.772 108.782 14.772C109.574 14.772 110.186 14.96 110.618 15.336C111.058 15.712 111.278 16.248 111.278 16.944V21H110.102V20.472C109.83 20.688 109.538 20.848 109.226 20.952C108.914 21.056 108.574 21.108 108.206 21.108ZM107.114 19.224C107.114 19.52 107.238 19.76 107.486 19.944C107.742 20.128 108.074 20.22 108.482 20.22C108.802 20.22 109.094 20.172 109.358 20.076C109.63 19.98 109.878 19.832 110.102 19.632V18.6C109.87 18.464 109.626 18.368 109.37 18.312C109.122 18.248 108.842 18.216 108.53 18.216C108.09 18.216 107.742 18.308 107.486 18.492C107.238 18.668 107.114 18.912 107.114 19.224ZM112.661 21V12.6L113.861 12.372V21H112.661ZM117.638 21.12C117.166 21.12 116.75 21.02 116.39 20.82C116.03 20.62 115.75 20.34 115.55 19.98C115.35 19.612 115.25 19.192 115.25 18.72V14.892H116.438V18.516C116.438 18.996 116.574 19.376 116.846 19.656C117.126 19.936 117.498 20.076 117.962 20.076C118.29 20.076 118.582 20.008 118.838 19.872C119.094 19.728 119.302 19.528 119.462 19.272V14.892H120.662V21H119.462V20.376C118.99 20.872 118.382 21.12 117.638 21.12ZM125.011 21.108C124.411 21.108 123.867 20.968 123.379 20.688C122.899 20.408 122.515 20.028 122.227 19.548C121.947 19.068 121.807 18.532 121.807 17.94C121.807 17.356 121.943 16.828 122.215 16.356C122.487 15.876 122.855 15.496 123.319 15.216C123.783 14.928 124.299 14.784 124.867 14.784C125.435 14.784 125.939 14.928 126.379 15.216C126.819 15.496 127.167 15.88 127.423 16.368C127.687 16.848 127.819 17.392 127.819 18V18.336H123.007C123.071 18.672 123.195 18.972 123.379 19.236C123.571 19.5 123.811 19.708 124.099 19.86C124.395 20.012 124.715 20.088 125.059 20.088C125.355 20.088 125.639 20.044 125.911 19.956C126.191 19.86 126.423 19.724 126.607 19.548L127.375 20.304C127.015 20.576 126.643 20.78 126.259 20.916C125.883 21.044 125.467 21.108 125.011 21.108ZM123.019 17.436H126.631C126.583 17.116 126.471 16.836 126.295 16.596C126.127 16.348 125.915 16.156 125.659 16.02C125.411 15.876 125.139 15.804 124.843 15.804C124.539 15.804 124.259 15.872 124.003 16.008C123.747 16.144 123.531 16.336 123.355 16.584C123.187 16.824 123.075 17.108 123.019 17.436ZM134.398 21.108C133.798 21.108 133.254 20.968 132.766 20.688C132.286 20.408 131.902 20.028 131.614 19.548C131.334 19.068 131.194 18.532 131.194 17.94C131.194 17.356 131.33 16.828 131.602 16.356C131.874 15.876 132.242 15.496 132.706 15.216C133.17 14.928 133.686 14.784 134.254 14.784C134.822 14.784 135.326 14.928 135.766 15.216C136.206 15.496 136.554 15.88 136.81 16.368C137.074 16.848 137.206 17.392 137.206 18V18.336H132.394C132.458 18.672 132.582 18.972 132.766 19.236C132.958 19.5 133.198 19.708 133.486 19.86C133.782 20.012 134.102 20.088 134.446 20.088C134.742 20.088 135.026 20.044 135.298 19.956C135.578 19.86 135.81 19.724 135.994 19.548L136.762 20.304C136.402 20.576 136.03 20.78 135.646 20.916C135.27 21.044 134.854 21.108 134.398 21.108ZM132.406 17.436H136.018C135.97 17.116 135.858 16.836 135.682 16.596C135.514 16.348 135.302 16.156 135.046 16.02C134.798 15.876 134.526 15.804 134.23 15.804C133.926 15.804 133.646 15.872 133.39 16.008C133.134 16.144 132.918 16.336 132.742 16.584C132.574 16.824 132.462 17.108 132.406 17.436ZM140.199 21.108C139.759 21.108 139.371 21.032 139.035 20.88C138.699 20.72 138.435 20.5 138.243 20.22C138.051 19.94 137.955 19.616 137.955 19.248C137.955 18.672 138.175 18.22 138.615 17.892C139.055 17.556 139.659 17.388 140.427 17.388C141.027 17.388 141.583 17.504 142.095 17.736V17.088C142.095 16.648 141.967 16.32 141.711 16.104C141.463 15.888 141.095 15.78 140.607 15.78C140.327 15.78 140.035 15.824 139.731 15.912C139.427 15.992 139.087 16.12 138.711 16.296L138.267 15.396C138.731 15.18 139.163 15.024 139.563 14.928C139.963 14.824 140.367 14.772 140.775 14.772C141.567 14.772 142.179 14.96 142.611 15.336C143.051 15.712 143.271 16.248 143.271 16.944V21H142.095V20.472C141.823 20.688 141.531 20.848 141.219 20.952C140.907 21.056 140.567 21.108 140.199 21.108ZM139.107 19.224C139.107 19.52 139.231 19.76 139.479 19.944C139.735 20.128 140.067 20.22 140.475 20.22C140.795 20.22 141.087 20.172 141.351 20.076C141.623 19.98 141.871 19.832 142.095 19.632V18.6C141.863 18.464 141.619 18.368 141.363 18.312C141.115 18.248 140.835 18.216 140.523 18.216C140.083 18.216 139.735 18.308 139.479 18.492C139.231 18.668 139.107 18.912 139.107 19.224ZM147.521 21.108C146.937 21.108 146.405 20.968 145.925 20.688C145.445 20.408 145.065 20.028 144.785 19.548C144.513 19.068 144.377 18.532 144.377 17.94C144.377 17.348 144.517 16.816 144.797 16.344C145.077 15.864 145.453 15.484 145.925 15.204C146.405 14.916 146.937 14.772 147.521 14.772C147.985 14.772 148.429 14.86 148.853 15.036C149.285 15.212 149.657 15.46 149.969 15.78L149.225 16.608C148.993 16.352 148.733 16.16 148.445 16.032C148.157 15.904 147.857 15.84 147.545 15.84C147.177 15.84 146.841 15.932 146.537 16.116C146.241 16.3 146.005 16.552 145.829 16.872C145.653 17.192 145.565 17.548 145.565 17.94C145.565 18.332 145.653 18.688 145.829 19.008C146.005 19.328 146.245 19.584 146.549 19.776C146.853 19.96 147.193 20.052 147.569 20.052C147.881 20.052 148.173 19.992 148.445 19.872C148.717 19.744 148.973 19.56 149.213 19.32L149.945 20.088C149.625 20.416 149.253 20.668 148.829 20.844C148.413 21.02 147.977 21.108 147.521 21.108ZM150.911 21V12.6L152.111 12.336V15.516C152.583 15.02 153.195 14.772 153.947 14.772C154.419 14.772 154.831 14.872 155.183 15.072C155.543 15.272 155.823 15.552 156.023 15.912C156.231 16.272 156.335 16.688 156.335 17.16V21H155.135V17.364C155.135 16.884 154.999 16.508 154.727 16.236C154.455 15.956 154.083 15.816 153.611 15.816C153.291 15.816 153.003 15.884 152.747 16.02C152.491 16.156 152.279 16.352 152.111 16.608V21H150.911ZM160.228 21V14.892H161.428V15.48C161.884 15.008 162.456 14.772 163.144 14.772C163.56 14.772 163.928 14.864 164.248 15.048C164.576 15.232 164.836 15.48 165.028 15.792C165.284 15.456 165.584 15.204 165.928 15.036C166.272 14.86 166.66 14.772 167.092 14.772C167.548 14.772 167.944 14.872 168.28 15.072C168.624 15.272 168.892 15.552 169.084 15.912C169.284 16.272 169.384 16.688 169.384 17.16V21H168.184V17.364C168.184 16.884 168.056 16.508 167.8 16.236C167.552 15.956 167.212 15.816 166.78 15.816C166.484 15.816 166.216 15.884 165.976 16.02C165.736 16.156 165.528 16.364 165.352 16.644C165.368 16.724 165.38 16.808 165.388 16.896C165.396 16.984 165.4 17.072 165.4 17.16V21H164.212V17.364C164.212 16.884 164.084 16.508 163.828 16.236C163.58 15.956 163.24 15.816 162.808 15.816C162.52 15.816 162.26 15.88 162.028 16.008C161.796 16.128 161.596 16.312 161.428 16.56V21H160.228ZM173.667 21.12C173.075 21.12 172.535 20.98 172.047 20.7C171.567 20.42 171.187 20.04 170.907 19.56C170.627 19.08 170.487 18.544 170.487 17.952C170.487 17.36 170.627 16.824 170.907 16.344C171.187 15.864 171.567 15.484 172.047 15.204C172.535 14.916 173.075 14.772 173.667 14.772C174.267 14.772 174.807 14.916 175.287 15.204C175.767 15.484 176.147 15.864 176.427 16.344C176.707 16.824 176.847 17.36 176.847 17.952C176.847 18.544 176.707 19.08 176.427 19.56C176.147 20.04 175.767 20.42 175.287 20.7C174.807 20.98 174.267 21.12 173.667 21.12ZM173.667 20.064C174.043 20.064 174.383 19.972 174.687 19.788C174.991 19.596 175.231 19.34 175.407 19.02C175.583 18.7 175.671 18.34 175.671 17.94C175.671 17.548 175.579 17.196 175.395 16.884C175.219 16.564 174.979 16.308 174.675 16.116C174.379 15.924 174.043 15.828 173.667 15.828C173.291 15.828 172.951 15.924 172.647 16.116C172.351 16.308 172.111 16.564 171.927 16.884C171.751 17.196 171.663 17.548 171.663 17.94C171.663 18.34 171.751 18.7 171.927 19.02C172.103 19.34 172.343 19.596 172.647 19.788C172.951 19.972 173.291 20.064 173.667 20.064ZM177.981 21V14.892H179.181V15.516C179.653 15.02 180.265 14.772 181.017 14.772C181.489 14.772 181.901 14.872 182.253 15.072C182.613 15.272 182.893 15.552 183.093 15.912C183.301 16.272 183.405 16.688 183.405 17.16V21H182.205V17.364C182.205 16.884 182.069 16.508 181.797 16.236C181.533 15.956 181.161 15.816 180.681 15.816C180.361 15.816 180.073 15.884 179.817 16.02C179.561 16.156 179.349 16.352 179.181 16.608V21H177.981ZM187.23 21.108C186.638 21.108 186.186 20.972 185.874 20.7C185.562 20.42 185.406 20.016 185.406 19.488V15.9H184.11V14.892H185.406V13.332L186.594 13.044V14.892H188.394V15.9H186.594V19.212C186.594 19.524 186.662 19.748 186.798 19.884C186.942 20.012 187.174 20.076 187.494 20.076C187.662 20.076 187.81 20.064 187.938 20.04C188.074 20.016 188.218 19.98 188.37 19.932V20.94C188.21 20.996 188.022 21.036 187.806 21.06C187.598 21.092 187.406 21.108 187.23 21.108ZM189.278 21V12.6L190.478 12.336V15.516C190.95 15.02 191.562 14.772 192.314 14.772C192.786 14.772 193.198 14.872 193.55 15.072C193.91 15.272 194.19 15.552 194.39 15.912C194.598 16.272 194.702 16.688 194.702 17.16V21H193.502V17.364C193.502 16.884 193.366 16.508 193.094 16.236C192.822 15.956 192.45 15.816 191.978 15.816C191.658 15.816 191.37 15.884 191.114 16.02C190.858 16.156 190.646 16.352 190.478 16.608V21H189.278Z" fill="black"/>
<path d="M84.7808 180.132C84.0048 180.132 83.3408 179.936 82.7888 179.544C82.2368 179.144 81.8368 178.58 81.5888 177.852L82.7408 177.396C82.9408 177.932 83.2088 178.332 83.5448 178.596C83.8888 178.852 84.3008 178.98 84.7808 178.98C85.4048 178.98 85.9008 178.78 86.2688 178.38C86.6448 177.98 86.8328 177.444 86.8328 176.772V171.6H88.0928V176.796C88.0928 177.468 87.9568 178.056 87.6848 178.56C87.4128 179.056 87.0288 179.444 86.5328 179.724C86.0368 179.996 85.4528 180.132 84.7808 180.132ZM92.427 180.108C91.827 180.108 91.283 179.968 90.795 179.688C90.315 179.408 89.931 179.028 89.643 178.548C89.363 178.068 89.223 177.532 89.223 176.94C89.223 176.356 89.359 175.828 89.631 175.356C89.903 174.876 90.271 174.496 90.735 174.216C91.199 173.928 91.715 173.784 92.283 173.784C92.851 173.784 93.355 173.928 93.795 174.216C94.235 174.496 94.583 174.88 94.839 175.368C95.103 175.848 95.235 176.392 95.235 177V177.336H90.423C90.487 177.672 90.611 177.972 90.795 178.236C90.987 178.5 91.227 178.708 91.515 178.86C91.811 179.012 92.131 179.088 92.475 179.088C92.771 179.088 93.055 179.044 93.327 178.956C93.607 178.86 93.839 178.724 94.023 178.548L94.791 179.304C94.431 179.576 94.059 179.78 93.675 179.916C93.299 180.044 92.883 180.108 92.427 180.108ZM90.435 176.436H94.047C93.999 176.116 93.887 175.836 93.711 175.596C93.543 175.348 93.331 175.156 93.075 175.02C92.827 174.876 92.555 174.804 92.259 174.804C91.955 174.804 91.675 174.872 91.419 175.008C91.163 175.144 90.947 175.336 90.771 175.584C90.603 175.824 90.491 176.108 90.435 176.436ZM96.3779 180V173.892H97.5779V174.516C98.0499 174.02 98.6619 173.772 99.4139 173.772C99.8859 173.772 100.298 173.872 100.65 174.072C101.01 174.272 101.29 174.552 101.49 174.912C101.698 175.272 101.802 175.688 101.802 176.16V180H100.602V176.364C100.602 175.884 100.466 175.508 100.194 175.236C99.9299 174.956 99.5579 174.816 99.0779 174.816C98.7579 174.816 98.4699 174.884 98.2139 175.02C97.9579 175.156 97.7459 175.352 97.5779 175.608V180H96.3779ZM103.187 180V173.892H104.387V174.516C104.859 174.02 105.471 173.772 106.223 173.772C106.695 173.772 107.107 173.872 107.459 174.072C107.819 174.272 108.099 174.552 108.299 174.912C108.507 175.272 108.611 175.688 108.611 176.16V180H107.411V176.364C107.411 175.884 107.275 175.508 107.003 175.236C106.739 174.956 106.367 174.816 105.887 174.816C105.567 174.816 105.279 174.884 105.023 175.02C104.767 175.156 104.555 175.352 104.387 175.608V180H103.187ZM110.286 182.58C110.158 182.58 110.038 182.572 109.926 182.556C109.814 182.548 109.722 182.532 109.65 182.508V181.452C109.794 181.484 109.97 181.5 110.178 181.5C110.738 181.5 111.142 181.2 111.39 180.6L111.654 180.012L109.206 173.892H110.538L112.314 178.548L114.282 173.892H115.578L112.626 180.756C112.434 181.188 112.23 181.536 112.014 181.8C111.798 182.072 111.55 182.268 111.27 182.388C110.99 182.516 110.662 182.58 110.286 182.58Z" fill="black"/>
<path d="M196.351 180.132C195.727 180.132 195.147 180.024 194.611 179.808C194.083 179.584 193.615 179.276 193.207 178.884C192.807 178.484 192.495 178.024 192.271 177.504C192.055 176.976 191.947 176.408 191.947 175.8C191.947 175.192 192.055 174.628 192.271 174.108C192.495 173.58 192.807 173.12 193.207 172.728C193.615 172.328 194.087 172.02 194.623 171.804C195.159 171.58 195.735 171.468 196.351 171.468C196.791 171.468 197.219 171.528 197.635 171.648C198.059 171.76 198.447 171.924 198.799 172.14C199.159 172.356 199.471 172.616 199.735 172.92L198.895 173.784C198.583 173.408 198.203 173.124 197.755 172.932C197.307 172.732 196.839 172.632 196.351 172.632C195.903 172.632 195.487 172.712 195.103 172.872C194.727 173.032 194.399 173.256 194.119 173.544C193.839 173.824 193.619 174.156 193.459 174.54C193.307 174.924 193.231 175.344 193.231 175.8C193.231 176.248 193.307 176.664 193.459 177.048C193.619 177.432 193.843 177.768 194.131 178.056C194.419 178.344 194.755 178.568 195.139 178.728C195.523 178.888 195.939 178.968 196.387 178.968C196.875 178.968 197.335 178.872 197.767 178.68C198.207 178.48 198.579 178.2 198.883 177.84L199.711 178.68C199.431 178.976 199.111 179.236 198.751 179.46C198.399 179.676 198.015 179.844 197.599 179.964C197.191 180.076 196.775 180.132 196.351 180.132ZM200.8 180V171.6L202 171.336V174.516C202.472 174.02 203.084 173.772 203.836 173.772C204.308 173.772 204.72 173.872 205.072 174.072C205.432 174.272 205.712 174.552 205.912 174.912C206.12 175.272 206.224 175.688 206.224 176.16V180H205.024V176.364C205.024 175.884 204.888 175.508 204.616 175.236C204.344 174.956 203.972 174.816 203.5 174.816C203.18 174.816 202.892 174.884 202.636 175.02C202.38 175.156 202.168 175.352 202 175.608V180H200.8ZM207.608 180V173.892H208.808V174.672C209 174.384 209.236 174.16 209.516 174C209.804 173.832 210.128 173.748 210.488 173.748C210.736 173.756 210.94 173.792 211.1 173.856V174.936C210.988 174.888 210.872 174.856 210.752 174.84C210.632 174.816 210.512 174.804 210.392 174.804C210.04 174.804 209.728 174.9 209.456 175.092C209.184 175.276 208.968 175.548 208.808 175.908V180H207.608ZM212.062 180V173.892H213.262V180H212.062ZM212.662 172.908C212.462 172.908 212.29 172.836 212.146 172.692C212.002 172.54 211.93 172.364 211.93 172.164C211.93 171.956 212.002 171.784 212.146 171.648C212.29 171.504 212.462 171.432 212.662 171.432C212.87 171.432 213.046 171.504 213.19 171.648C213.334 171.784 213.406 171.956 213.406 172.164C213.406 172.364 213.334 172.54 213.19 172.692C213.046 172.836 212.87 172.908 212.662 172.908ZM216.775 180.12C216.247 180.12 215.751 180.044 215.287 179.892C214.831 179.732 214.435 179.508 214.099 179.22L214.759 178.428C215.071 178.676 215.391 178.868 215.719 179.004C216.055 179.132 216.395 179.196 216.739 179.196C217.171 179.196 217.523 179.112 217.795 178.944C218.067 178.776 218.203 178.556 218.203 178.284C218.203 178.06 218.123 177.884 217.963 177.756C217.803 177.628 217.555 177.54 217.219 177.492L216.115 177.336C215.507 177.248 215.051 177.06 214.747 176.772C214.443 176.484 214.291 176.1 214.291 175.62C214.291 175.252 214.391 174.932 214.591 174.66C214.791 174.38 215.071 174.164 215.431 174.012C215.791 173.852 216.211 173.772 216.691 173.772C217.131 173.772 217.555 173.836 217.963 173.964C218.371 174.092 218.763 174.292 219.139 174.564L218.527 175.356C218.191 175.132 217.863 174.968 217.543 174.864C217.231 174.76 216.915 174.708 216.595 174.708C216.227 174.708 215.931 174.788 215.707 174.948C215.483 175.1 215.371 175.3 215.371 175.548C215.371 175.772 215.447 175.948 215.599 176.076C215.759 176.196 216.019 176.28 216.379 176.328L217.483 176.484C218.091 176.572 218.551 176.76 218.863 177.048C219.175 177.328 219.331 177.708 219.331 178.188C219.331 178.556 219.219 178.888 218.995 179.184C218.771 179.472 218.467 179.7 218.083 179.868C217.699 180.036 217.263 180.12 216.775 180.12Z" fill="black"/>
<path d="M308.351 180.132C307.727 180.132 307.147 180.024 306.611 179.808C306.083 179.584 305.615 179.276 305.207 178.884C304.807 178.484 304.495 178.024 304.271 177.504C304.055 176.976 303.947 176.408 303.947 175.8C303.947 175.192 304.055 174.628 304.271 174.108C304.495 173.58 304.807 173.12 305.207 172.728C305.615 172.328 306.087 172.02 306.623 171.804C307.159 171.58 307.735 171.468 308.351 171.468C308.791 171.468 309.219 171.528 309.635 171.648C310.059 171.76 310.447 171.924 310.799 172.14C311.159 172.356 311.471 172.616 311.735 172.92L310.895 173.784C310.583 173.408 310.203 173.124 309.755 172.932C309.307 172.732 308.839 172.632 308.351 172.632C307.903 172.632 307.487 172.712 307.103 172.872C306.727 173.032 306.399 173.256 306.119 173.544C305.839 173.824 305.619 174.156 305.459 174.54C305.307 174.924 305.231 175.344 305.231 175.8C305.231 176.248 305.307 176.664 305.459 177.048C305.619 177.432 305.843 177.768 306.131 178.056C306.419 178.344 306.755 178.568 307.139 178.728C307.523 178.888 307.939 178.968 308.387 178.968C308.875 178.968 309.335 178.872 309.767 178.68C310.207 178.48 310.579 178.2 310.883 177.84L311.711 178.68C311.431 178.976 311.111 179.236 310.751 179.46C310.399 179.676 310.015 179.844 309.599 179.964C309.191 180.076 308.775 180.132 308.351 180.132ZM314.732 180.108C314.292 180.108 313.904 180.032 313.568 179.88C313.232 179.72 312.968 179.5 312.776 179.22C312.584 178.94 312.488 178.616 312.488 178.248C312.488 177.672 312.708 177.22 313.148 176.892C313.588 176.556 314.192 176.388 314.96 176.388C315.56 176.388 316.116 176.504 316.628 176.736V176.088C316.628 175.648 316.5 175.32 316.244 175.104C315.996 174.888 315.628 174.78 315.14 174.78C314.86 174.78 314.568 174.824 314.264 174.912C313.96 174.992 313.62 175.12 313.244 175.296L312.8 174.396C313.264 174.18 313.696 174.024 314.096 173.928C314.496 173.824 314.9 173.772 315.308 173.772C316.1 173.772 316.712 173.96 317.144 174.336C317.584 174.712 317.804 175.248 317.804 175.944V180H316.628V179.472C316.356 179.688 316.064 179.848 315.752 179.952C315.44 180.056 315.1 180.108 314.732 180.108ZM313.64 178.224C313.64 178.52 313.764 178.76 314.012 178.944C314.268 179.128 314.6 179.22 315.008 179.22C315.328 179.22 315.62 179.172 315.884 179.076C316.156 178.98 316.404 178.832 316.628 178.632V177.6C316.396 177.464 316.152 177.368 315.896 177.312C315.648 177.248 315.368 177.216 315.056 177.216C314.616 177.216 314.268 177.308 314.012 177.492C313.764 177.668 313.64 177.912 313.64 178.224ZM319.187 180V173.892H320.387V174.672C320.579 174.384 320.815 174.16 321.095 174C321.383 173.832 321.707 173.748 322.067 173.748C322.315 173.756 322.519 173.792 322.679 173.856V174.936C322.567 174.888 322.451 174.856 322.331 174.84C322.211 174.816 322.091 174.804 321.971 174.804C321.619 174.804 321.307 174.9 321.035 175.092C320.763 175.276 320.547 175.548 320.387 175.908V180H319.187ZM323.64 180V171.6L324.84 171.372V180H323.64Z" fill="black"/>
<defs>
<filter id="filter0_d_1_626" x="0.00769234" y="0.0153847" width="389.938" height="203.938" filterUnits="userSpaceOnUse" color-interpolation-filters="sRGB">
<feFlood flood-opacity="0" result="BackgroundImageFix"/>
<feColorMatrix in="SourceAlpha" type="matrix" values="0 0 0 0 0 0 0 0 0 0 0 0 0 0 0 0 0 0 127 0" result="hardAlpha"/>
<feOffset dx="5.97692" dy="3.98462"/>
<feGaussianBlur stdDeviation="3.98462"/>
<feComposite in2="hardAlpha" operator="out"/>
<feColorMatrix type="matrix" values="0 0 0 0 0 0 0 0 0 0 0 0 0 0 0 0 0 0 0.25 0"/>
<feBlend mode="normal" in2="BackgroundImageFix" result="effect1_dropShadow_1_626"/>
<feBlend mode="normal" in="SourceGraphic" in2="effect1_dropShadow_1_626" result="shape"/>
</filter>
</defs>
</svg>
