<svg width="390" height="204" viewBox="0 0 390 204" fill="none" xmlns="http://www.w3.org/2000/svg">
<g filter="url(#filter0_d_1_686)">
<path d="M2 13.9615C2 8.45992 6.45993 4 11.9615 4H366.038C371.54 4 376 8.45993 376 13.9615V182.038C376 187.54 371.54 192 366.038 192H11.9616C6.45995 192 2 187.54 2 182.038V13.9615Z" fill="white"/>
</g>
<path d="M31.4022 176.688V177.822C31.4022 178.432 31.3477 178.946 31.2387 179.365C31.1297 179.784 30.9731 180.121 30.7687 180.377C30.5643 180.632 30.3174 180.818 30.0279 180.934C29.7418 181.046 29.4182 181.102 29.0572 181.102C28.771 181.102 28.5071 181.066 28.2652 180.995C28.0234 180.923 27.8054 180.809 27.6113 180.653C27.4205 180.492 27.2571 180.285 27.1208 180.029C26.9846 179.774 26.8807 179.464 26.8092 179.099C26.7376 178.735 26.7019 178.309 26.7019 177.822V176.688C26.7019 176.078 26.7564 175.567 26.8654 175.155C26.9778 174.743 27.1361 174.413 27.3405 174.164C27.5449 173.912 27.7901 173.731 28.0762 173.622C28.3657 173.513 28.6893 173.459 29.0469 173.459C29.3365 173.459 29.6021 173.495 29.844 173.566C30.0892 173.634 30.3072 173.745 30.4979 173.898C30.6887 174.048 30.8505 174.249 30.9833 174.501C31.1195 174.75 31.2234 175.055 31.2949 175.416C31.3665 175.777 31.4022 176.201 31.4022 176.688ZM30.4519 177.975V176.53C30.4519 176.196 30.4315 175.903 30.3906 175.651C30.3532 175.395 30.297 175.177 30.222 174.997C30.1471 174.816 30.0517 174.67 29.9359 174.557C29.8235 174.445 29.6924 174.363 29.5425 174.312C29.3961 174.258 29.2309 174.23 29.0469 174.23C28.8221 174.23 28.6229 174.273 28.4492 174.358C28.2755 174.44 28.129 174.571 28.0098 174.752C27.894 174.932 27.8054 175.169 27.7441 175.462C27.6828 175.755 27.6522 176.111 27.6522 176.53V177.975C27.6522 178.309 27.6709 178.604 27.7084 178.859C27.7492 179.115 27.8088 179.336 27.8872 179.523C27.9655 179.707 28.0609 179.859 28.1733 179.978C28.2857 180.097 28.4151 180.186 28.5616 180.244C28.7114 180.298 28.8766 180.326 29.0572 180.326C29.2888 180.326 29.4914 180.281 29.6651 180.193C29.8389 180.104 29.9836 179.966 30.0994 179.779C30.2186 179.588 30.3072 179.345 30.3651 179.048C30.423 178.749 30.4519 178.391 30.4519 177.975Z" fill="#333333"/>
<path d="M31.6066 147.223V148H26.7376V147.32L29.1747 144.608C29.4744 144.274 29.706 143.991 29.8695 143.759C30.0364 143.524 30.1522 143.315 30.2169 143.131C30.285 142.944 30.3191 142.753 30.3191 142.559C30.3191 142.314 30.268 142.092 30.1658 141.895C30.0671 141.694 29.9206 141.534 29.7264 141.414C29.5323 141.295 29.2973 141.236 29.0214 141.236C28.691 141.236 28.4151 141.3 28.1937 141.43C27.9757 141.556 27.8122 141.733 27.7032 141.961C27.5943 142.189 27.5398 142.452 27.5398 142.748H26.5946C26.5946 142.329 26.6865 141.946 26.8705 141.598C27.0544 141.251 27.3269 140.975 27.6879 140.771C28.049 140.563 28.4935 140.459 29.0214 140.459C29.4914 140.459 29.8933 140.542 30.2271 140.709C30.5609 140.873 30.8164 141.104 30.9935 141.404C31.174 141.7 31.2643 142.048 31.2643 142.446C31.2643 142.664 31.2268 142.886 31.1519 143.111C31.0804 143.332 30.9799 143.553 30.8505 143.775C30.7244 143.996 30.5763 144.214 30.406 144.429C30.2391 144.643 30.0602 144.854 29.8695 145.062L27.877 147.223H31.6066Z" fill="#333333"/>
<path d="M31.7599 112.497V113.273H26.3851V112.716L29.7162 107.561H30.4877L29.66 109.053L27.458 112.497H31.7599ZM30.7227 107.561V115H29.7775V107.561H30.7227Z" fill="#333333"/>
<path d="M30.36 75.5509H30.4417V76.3531H30.36C29.8593 76.3531 29.4403 76.4348 29.1031 76.5983C28.7659 76.7584 28.4986 76.9747 28.301 77.2472C28.1035 77.5162 27.9604 77.8194 27.8718 78.1566C27.7867 78.4938 27.7441 78.8361 27.7441 79.1835V80.2768C27.7441 80.6072 27.7833 80.9002 27.8616 81.1556C27.94 81.4077 28.0473 81.6205 28.1835 81.7943C28.3197 81.968 28.473 82.0991 28.6433 82.1877C28.817 82.2762 28.9976 82.3205 29.1849 82.3205C29.4029 82.3205 29.597 82.2796 29.7673 82.1979C29.9376 82.1127 30.0807 81.9952 30.1965 81.8453C30.3157 81.6921 30.406 81.5115 30.4673 81.3038C30.5286 81.096 30.5592 80.8678 30.5592 80.6192C30.5592 80.3978 30.532 80.1849 30.4775 79.9805C30.423 79.7728 30.3395 79.5888 30.2271 79.4287C30.1147 79.2652 29.9734 79.1375 29.8031 79.0456C29.6362 78.9502 29.4369 78.9025 29.2053 78.9025C28.9431 78.9025 28.6978 78.9672 28.4696 79.0966C28.2448 79.2227 28.0592 79.3896 27.9127 79.5973C27.7697 79.8017 27.6879 80.0248 27.6675 80.2666L27.1668 80.2615C27.2145 79.88 27.303 79.5548 27.4325 79.2857C27.5653 79.0132 27.7288 78.7918 27.9229 78.6215C28.1205 78.4478 28.3402 78.3218 28.582 78.2434C28.8272 78.1617 29.0861 78.1208 29.3586 78.1208C29.7299 78.1208 30.05 78.1906 30.3191 78.3303C30.5882 78.4699 30.8096 78.6573 30.9833 78.8923C31.157 79.1239 31.2847 79.3862 31.3665 79.6791C31.4516 79.9686 31.4942 80.2666 31.4942 80.5732C31.4942 80.924 31.4448 81.2527 31.346 81.5592C31.2473 81.8658 31.0991 82.1349 30.9015 82.3665C30.7074 82.5981 30.4673 82.7786 30.1812 82.908C29.8951 83.0375 29.563 83.1022 29.1849 83.1022C28.783 83.1022 28.4321 83.0204 28.1324 82.8569C27.8327 82.69 27.584 82.4687 27.3865 82.1928C27.1889 81.9169 27.0408 81.6103 26.942 81.2731C26.8432 80.9359 26.7938 80.5936 26.7938 80.2462V79.8017C26.7938 79.2772 26.8466 78.7629 26.9522 78.2588C27.0578 77.7547 27.24 77.2982 27.4989 76.8895C27.7611 76.4808 28.1239 76.1555 28.5871 75.9137C29.0503 75.6718 29.6413 75.5509 30.36 75.5509Z" fill="#333333"/>
<path d="M31.4227 47.987C31.4227 48.44 31.3171 48.8249 31.1059 49.1417C30.8981 49.455 30.6154 49.6935 30.2578 49.8569C29.9036 50.0204 29.5034 50.1022 29.0572 50.1022C28.611 50.1022 28.209 50.0204 27.8514 49.8569C27.4938 49.6935 27.2111 49.455 27.0033 49.1417C26.7955 48.8249 26.6916 48.44 26.6916 47.987C26.6916 47.6907 26.7478 47.4199 26.8602 47.1747C26.9761 46.926 27.1378 46.7097 27.3456 46.5258C27.5568 46.3419 27.8054 46.2005 28.0915 46.1018C28.3811 45.9996 28.6995 45.9485 29.0469 45.9485C29.5034 45.9485 29.9104 46.037 30.268 46.2142C30.6257 46.3879 30.9067 46.628 31.111 46.9345C31.3188 47.2411 31.4227 47.5919 31.4227 47.987ZM30.4724 47.9666C30.4724 47.6907 30.4128 47.4472 30.2936 47.236C30.1743 47.0214 30.0075 46.8545 29.7929 46.7353C29.5783 46.6161 29.3296 46.5565 29.0469 46.5565C28.7574 46.5565 28.5071 46.6161 28.2959 46.7353C28.0881 46.8545 27.9263 47.0214 27.8105 47.236C27.6947 47.4472 27.6368 47.6907 27.6368 47.9666C27.6368 48.2527 27.693 48.4979 27.8054 48.7023C27.9212 48.9032 28.0847 49.0582 28.2959 49.1672C28.5105 49.2728 28.7642 49.3256 29.0572 49.3256C29.3501 49.3256 29.6021 49.2728 29.8133 49.1672C30.0245 49.0582 30.1863 48.9032 30.2987 48.7023C30.4145 48.4979 30.4724 48.2527 30.4724 47.9666ZM31.249 44.4975C31.249 44.8585 31.1536 45.1838 30.9629 45.4733C30.7721 45.7629 30.5115 45.9911 30.1812 46.158C29.8508 46.3249 29.4761 46.4083 29.0572 46.4083C28.6314 46.4083 28.2516 46.3249 27.9178 46.158C27.5874 45.9911 27.3286 45.7629 27.1412 45.4733C26.9539 45.1838 26.8602 44.8585 26.8602 44.4975C26.8602 44.0649 26.9539 43.6971 27.1412 43.3939C27.332 43.0908 27.5925 42.8592 27.9229 42.6991C28.2533 42.539 28.6297 42.459 29.052 42.459C29.4778 42.459 29.8559 42.539 30.1863 42.6991C30.5167 42.8592 30.7755 43.0908 30.9629 43.3939C31.1536 43.6971 31.249 44.0649 31.249 44.4975ZM30.3038 44.5128C30.3038 44.2642 30.251 44.0445 30.1454 43.8538C30.0398 43.663 29.8933 43.5131 29.706 43.4042C29.5187 43.2918 29.3007 43.2356 29.052 43.2356C28.8034 43.2356 28.5854 43.2883 28.3981 43.3939C28.2142 43.4961 28.0694 43.6426 27.9638 43.8333C27.8616 44.0241 27.8105 44.2506 27.8105 44.5128C27.8105 44.7683 27.8616 44.9914 27.9638 45.1821C28.0694 45.3729 28.2159 45.521 28.4032 45.6266C28.5905 45.7322 28.8085 45.785 29.0572 45.785C29.3058 45.785 29.5221 45.7322 29.706 45.6266C29.8933 45.521 30.0398 45.3729 30.1454 45.1821C30.251 44.9914 30.3038 44.7683 30.3038 44.5128Z" fill="#333333"/>
<rect width="105.348" height="55.7695" rx="5" transform="matrix(-0.00208098 -0.999998 1 -0.000794135 69.1716 168.224)" fill="#17120F"/>
<rect width="88.4082" height="55.8148" rx="5" transform="matrix(-0.00230552 -0.999997 1 -0.000716793 176.741 167.355)" fill="#F07C62"/>
<rect width="72.1113" height="55.9216" rx="5" transform="matrix(-0.00230552 -0.999997 1 -0.000716793 285.257 167.288)" fill="#17120F"/>
<path d="M19.852 21V12.6H21.544L24.172 17.976L26.8 12.6H28.48V21H27.292V14.136L24.16 20.4L21.028 14.136V21H19.852ZM32.9479 21.12C32.3559 21.12 31.8159 20.98 31.3279 20.7C30.8479 20.42 30.4679 20.04 30.1879 19.56C29.9079 19.08 29.7679 18.544 29.7679 17.952C29.7679 17.36 29.9079 16.824 30.1879 16.344C30.4679 15.864 30.8479 15.484 31.3279 15.204C31.8159 14.916 32.3559 14.772 32.9479 14.772C33.5479 14.772 34.0879 14.916 34.5679 15.204C35.0479 15.484 35.4279 15.864 35.7079 16.344C35.9879 16.824 36.1279 17.36 36.1279 17.952C36.1279 18.544 35.9879 19.08 35.7079 19.56C35.4279 20.04 35.0479 20.42 34.5679 20.7C34.0879 20.98 33.5479 21.12 32.9479 21.12ZM32.9479 20.064C33.3239 20.064 33.6639 19.972 33.9679 19.788C34.2719 19.596 34.5119 19.34 34.6879 19.02C34.8639 18.7 34.9519 18.34 34.9519 17.94C34.9519 17.548 34.8599 17.196 34.6759 16.884C34.4999 16.564 34.2599 16.308 33.9559 16.116C33.6599 15.924 33.3239 15.828 32.9479 15.828C32.5719 15.828 32.2319 15.924 31.9279 16.116C31.6319 16.308 31.3919 16.564 31.2079 16.884C31.0319 17.196 30.9439 17.548 30.9439 17.94C30.9439 18.34 31.0319 18.7 31.2079 19.02C31.3839 19.34 31.6239 19.596 31.9279 19.788C32.2319 19.972 32.5719 20.064 32.9479 20.064ZM39.3627 21.12C38.8347 21.12 38.3387 21.044 37.8747 20.892C37.4187 20.732 37.0227 20.508 36.6867 20.22L37.3467 19.428C37.6587 19.676 37.9787 19.868 38.3067 20.004C38.6427 20.132 38.9827 20.196 39.3267 20.196C39.7587 20.196 40.1107 20.112 40.3827 19.944C40.6547 19.776 40.7907 19.556 40.7907 19.284C40.7907 19.06 40.7107 18.884 40.5507 18.756C40.3907 18.628 40.1427 18.54 39.8067 18.492L38.7027 18.336C38.0947 18.248 37.6387 18.06 37.3347 17.772C37.0307 17.484 36.8787 17.1 36.8787 16.62C36.8787 16.252 36.9787 15.932 37.1787 15.66C37.3787 15.38 37.6587 15.164 38.0187 15.012C38.3787 14.852 38.7987 14.772 39.2787 14.772C39.7187 14.772 40.1427 14.836 40.5507 14.964C40.9587 15.092 41.3507 15.292 41.7267 15.564L41.1147 16.356C40.7787 16.132 40.4507 15.968 40.1307 15.864C39.8187 15.76 39.5027 15.708 39.1827 15.708C38.8147 15.708 38.5187 15.788 38.2947 15.948C38.0707 16.1 37.9587 16.3 37.9587 16.548C37.9587 16.772 38.0347 16.948 38.1867 17.076C38.3467 17.196 38.6067 17.28 38.9667 17.328L40.0707 17.484C40.6787 17.572 41.1387 17.76 41.4507 18.048C41.7627 18.328 41.9187 18.708 41.9187 19.188C41.9187 19.556 41.8067 19.888 41.5827 20.184C41.3587 20.472 41.0547 20.7 40.6707 20.868C40.2867 21.036 39.8507 21.12 39.3627 21.12ZM45.3396 21.108C44.7476 21.108 44.2956 20.972 43.9836 20.7C43.6716 20.42 43.5156 20.016 43.5156 19.488V15.9H42.2196V14.892H43.5156V13.332L44.7036 13.044V14.892H46.5036V15.9H44.7036V19.212C44.7036 19.524 44.7716 19.748 44.9076 19.884C45.0516 20.012 45.2836 20.076 45.6036 20.076C45.7716 20.076 45.9196 20.064 46.0476 20.04C46.1836 20.016 46.3276 19.98 46.4796 19.932V20.94C46.3196 20.996 46.1316 21.036 45.9156 21.06C45.7076 21.092 45.5156 21.108 45.3396 21.108ZM51.9955 21.12C51.4675 21.12 50.9715 21.044 50.5075 20.892C50.0515 20.732 49.6555 20.508 49.3195 20.22L49.9795 19.428C50.2915 19.676 50.6115 19.868 50.9395 20.004C51.2755 20.132 51.6155 20.196 51.9595 20.196C52.3915 20.196 52.7435 20.112 53.0155 19.944C53.2875 19.776 53.4235 19.556 53.4235 19.284C53.4235 19.06 53.3435 18.884 53.1835 18.756C53.0235 18.628 52.7755 18.54 52.4395 18.492L51.3355 18.336C50.7275 18.248 50.2715 18.06 49.9675 17.772C49.6635 17.484 49.5115 17.1 49.5115 16.62C49.5115 16.252 49.6115 15.932 49.8115 15.66C50.0115 15.38 50.2915 15.164 50.6515 15.012C51.0115 14.852 51.4315 14.772 51.9115 14.772C52.3515 14.772 52.7755 14.836 53.1835 14.964C53.5915 15.092 53.9835 15.292 54.3595 15.564L53.7475 16.356C53.4115 16.132 53.0835 15.968 52.7635 15.864C52.4515 15.76 52.1355 15.708 51.8155 15.708C51.4475 15.708 51.1515 15.788 50.9275 15.948C50.7035 16.1 50.5915 16.3 50.5915 16.548C50.5915 16.772 50.6675 16.948 50.8195 17.076C50.9795 17.196 51.2395 17.28 51.5995 17.328L52.7035 17.484C53.3115 17.572 53.7715 17.76 54.0835 18.048C54.3955 18.328 54.5515 18.708 54.5515 19.188C54.5515 19.556 54.4395 19.888 54.2155 20.184C53.9915 20.472 53.6875 20.7 53.3035 20.868C52.9195 21.036 52.4835 21.12 51.9955 21.12ZM58.4362 21.12C57.8442 21.12 57.3042 20.98 56.8162 20.7C56.3362 20.42 55.9562 20.04 55.6762 19.56C55.3962 19.08 55.2562 18.544 55.2562 17.952C55.2562 17.36 55.3962 16.824 55.6762 16.344C55.9562 15.864 56.3362 15.484 56.8162 15.204C57.3042 14.916 57.8442 14.772 58.4362 14.772C59.0362 14.772 59.5762 14.916 60.0562 15.204C60.5362 15.484 60.9162 15.864 61.1962 16.344C61.4762 16.824 61.6162 17.36 61.6162 17.952C61.6162 18.544 61.4762 19.08 61.1962 19.56C60.9162 20.04 60.5362 20.42 60.0562 20.7C59.5762 20.98 59.0362 21.12 58.4362 21.12ZM58.4362 20.064C58.8122 20.064 59.1522 19.972 59.4562 19.788C59.7602 19.596 60.0002 19.34 60.1762 19.02C60.3522 18.7 60.4402 18.34 60.4402 17.94C60.4402 17.548 60.3482 17.196 60.1642 16.884C59.9882 16.564 59.7482 16.308 59.4442 16.116C59.1482 15.924 58.8122 15.828 58.4362 15.828C58.0602 15.828 57.7202 15.924 57.4162 16.116C57.1202 16.308 56.8802 16.564 56.6962 16.884C56.5202 17.196 56.4322 17.548 56.4322 17.94C56.4322 18.34 56.5202 18.7 56.6962 19.02C56.8722 19.34 57.1122 19.596 57.4162 19.788C57.7202 19.972 58.0602 20.064 58.4362 20.064ZM62.751 21V12.6L63.951 12.372V21H62.751ZM68.1723 21.096C67.6043 21.096 67.0843 20.956 66.6123 20.676C66.1403 20.396 65.7683 20.02 65.4963 19.548C65.2243 19.068 65.0883 18.532 65.0883 17.94C65.0883 17.348 65.2243 16.816 65.4963 16.344C65.7763 15.872 66.1523 15.496 66.6243 15.216C67.0963 14.936 67.6203 14.796 68.1963 14.796C68.5323 14.796 68.8563 14.848 69.1683 14.952C69.4803 15.056 69.7683 15.208 70.0323 15.408V12.6L71.2323 12.372V21H70.0443V20.412C69.5243 20.868 68.9003 21.096 68.1723 21.096ZM68.3283 20.052C68.6803 20.052 69.0003 19.988 69.2883 19.86C69.5843 19.732 69.8323 19.548 70.0323 19.308V16.56C69.8323 16.336 69.5843 16.16 69.2883 16.032C69.0003 15.896 68.6803 15.828 68.3283 15.828C67.9443 15.828 67.5963 15.92 67.2843 16.104C66.9723 16.288 66.7243 16.54 66.5403 16.86C66.3563 17.172 66.2643 17.528 66.2643 17.928C66.2643 18.328 66.3563 18.688 66.5403 19.008C66.7243 19.328 66.9723 19.584 67.2843 19.776C67.5963 19.96 67.9443 20.052 68.3283 20.052ZM78.0291 21.108C77.4451 21.108 76.9131 20.968 76.4331 20.688C75.9531 20.408 75.5731 20.028 75.2931 19.548C75.0211 19.068 74.8851 18.532 74.8851 17.94C74.8851 17.348 75.0251 16.816 75.3051 16.344C75.5851 15.864 75.9611 15.484 76.4331 15.204C76.9131 14.916 77.4451 14.772 78.0291 14.772C78.4931 14.772 78.9371 14.86 79.3611 15.036C79.7931 15.212 80.1651 15.46 80.4771 15.78L79.7331 16.608C79.5011 16.352 79.2411 16.16 78.9531 16.032C78.6651 15.904 78.3651 15.84 78.0531 15.84C77.6851 15.84 77.3491 15.932 77.0451 16.116C76.7491 16.3 76.5131 16.552 76.3371 16.872C76.1611 17.192 76.0731 17.548 76.0731 17.94C76.0731 18.332 76.1611 18.688 76.3371 19.008C76.5131 19.328 76.7531 19.584 77.0571 19.776C77.3611 19.96 77.7011 20.052 78.0771 20.052C78.3891 20.052 78.6811 19.992 78.9531 19.872C79.2251 19.744 79.4811 19.56 79.7211 19.32L80.4531 20.088C80.1331 20.416 79.7611 20.668 79.3371 20.844C78.9211 21.02 78.4851 21.108 78.0291 21.108ZM83.3509 21.108C82.9109 21.108 82.5229 21.032 82.1869 20.88C81.8509 20.72 81.5869 20.5 81.3949 20.22C81.2029 19.94 81.1069 19.616 81.1069 19.248C81.1069 18.672 81.3269 18.22 81.7669 17.892C82.2069 17.556 82.8109 17.388 83.5789 17.388C84.1789 17.388 84.7349 17.504 85.2469 17.736V17.088C85.2469 16.648 85.1189 16.32 84.8629 16.104C84.6149 15.888 84.2469 15.78 83.7589 15.78C83.4789 15.78 83.1869 15.824 82.8829 15.912C82.5789 15.992 82.2389 16.12 81.8629 16.296L81.4189 15.396C81.8829 15.18 82.3149 15.024 82.7149 14.928C83.1149 14.824 83.5189 14.772 83.9269 14.772C84.7189 14.772 85.3309 14.96 85.7629 15.336C86.2029 15.712 86.4229 16.248 86.4229 16.944V21H85.2469V20.472C84.9749 20.688 84.6829 20.848 84.3709 20.952C84.0589 21.056 83.7189 21.108 83.3509 21.108ZM82.2589 19.224C82.2589 19.52 82.3829 19.76 82.6309 19.944C82.8869 20.128 83.2189 20.22 83.6269 20.22C83.9469 20.22 84.2389 20.172 84.5029 20.076C84.7749 19.98 85.0229 19.832 85.2469 19.632V18.6C85.0149 18.464 84.7709 18.368 84.5149 18.312C84.2669 18.248 83.9869 18.216 83.6749 18.216C83.2349 18.216 82.8869 18.308 82.6309 18.492C82.3829 18.668 82.2589 18.912 82.2589 19.224ZM87.8057 21V14.892H89.0057V15.672C89.1977 15.384 89.4337 15.16 89.7137 15C90.0017 14.832 90.3257 14.748 90.6857 14.748C90.9337 14.756 91.1377 14.792 91.2977 14.856V15.936C91.1857 15.888 91.0697 15.856 90.9497 15.84C90.8297 15.816 90.7097 15.804 90.5897 15.804C90.2377 15.804 89.9257 15.9 89.6537 16.092C89.3817 16.276 89.1657 16.548 89.0057 16.908V21H87.8057ZM94.3588 21.12C93.8308 21.12 93.3348 21.044 92.8708 20.892C92.4148 20.732 92.0188 20.508 91.6828 20.22L92.3428 19.428C92.6548 19.676 92.9748 19.868 93.3028 20.004C93.6388 20.132 93.9788 20.196 94.3228 20.196C94.7548 20.196 95.1068 20.112 95.3788 19.944C95.6508 19.776 95.7868 19.556 95.7868 19.284C95.7868 19.06 95.7068 18.884 95.5468 18.756C95.3868 18.628 95.1388 18.54 94.8028 18.492L93.6988 18.336C93.0908 18.248 92.6348 18.06 92.3308 17.772C92.0268 17.484 91.8748 17.1 91.8748 16.62C91.8748 16.252 91.9748 15.932 92.1748 15.66C92.3748 15.38 92.6548 15.164 93.0148 15.012C93.3748 14.852 93.7948 14.772 94.2748 14.772C94.7148 14.772 95.1388 14.836 95.5468 14.964C95.9548 15.092 96.3468 15.292 96.7228 15.564L96.1108 16.356C95.7748 16.132 95.4468 15.968 95.1268 15.864C94.8148 15.76 94.4988 15.708 94.1788 15.708C93.8108 15.708 93.5148 15.788 93.2908 15.948C93.0668 16.1 92.9548 16.3 92.9548 16.548C92.9548 16.772 93.0308 16.948 93.1828 17.076C93.3428 17.196 93.6028 17.28 93.9628 17.328L95.0668 17.484C95.6748 17.572 96.1348 17.76 96.4468 18.048C96.7588 18.328 96.9148 18.708 96.9148 19.188C96.9148 19.556 96.8028 19.888 96.5788 20.184C96.3548 20.472 96.0508 20.7 95.6668 20.868C95.2828 21.036 94.8468 21.12 94.3588 21.12ZM100.345 21V12.6L101.545 12.372V15.468C102.057 15.02 102.677 14.796 103.405 14.796C103.981 14.796 104.501 14.936 104.965 15.216C105.437 15.496 105.809 15.872 106.081 16.344C106.353 16.816 106.489 17.348 106.489 17.94C106.489 18.532 106.349 19.068 106.069 19.548C105.797 20.02 105.425 20.396 104.953 20.676C104.489 20.956 103.965 21.096 103.381 21.096C103.045 21.096 102.717 21.044 102.397 20.94C102.085 20.828 101.797 20.672 101.533 20.472V21H100.345ZM103.249 20.052C103.641 20.052 103.989 19.96 104.293 19.776C104.605 19.592 104.853 19.344 105.037 19.032C105.221 18.712 105.313 18.352 105.313 17.952C105.313 17.552 105.221 17.192 105.037 16.872C104.853 16.552 104.605 16.3 104.293 16.116C103.989 15.932 103.641 15.84 103.249 15.84C102.905 15.84 102.585 15.904 102.289 16.032C101.993 16.16 101.745 16.34 101.545 16.572V19.332C101.745 19.556 101.993 19.732 102.289 19.86C102.593 19.988 102.913 20.052 103.249 20.052ZM107.866 23.58C107.738 23.58 107.618 23.572 107.506 23.556C107.394 23.548 107.302 23.532 107.23 23.508V22.452C107.374 22.484 107.55 22.5 107.758 22.5C108.318 22.5 108.722 22.2 108.97 21.6L109.234 21.012L106.786 14.892H108.118L109.894 19.548L111.862 14.892H113.158L110.206 21.756C110.014 22.188 109.81 22.536 109.594 22.8C109.378 23.072 109.13 23.268 108.85 23.388C108.57 23.516 108.242 23.58 107.866 23.58ZM118.775 21.12C118.303 21.12 117.887 21.02 117.527 20.82C117.167 20.62 116.887 20.34 116.687 19.98C116.487 19.612 116.387 19.192 116.387 18.72V14.892H117.575V18.516C117.575 18.996 117.711 19.376 117.983 19.656C118.263 19.936 118.635 20.076 119.099 20.076C119.427 20.076 119.719 20.008 119.975 19.872C120.231 19.728 120.439 19.528 120.599 19.272V14.892H121.799V21H120.599V20.376C120.127 20.872 119.519 21.12 118.775 21.12ZM123.22 21V14.892H124.42V15.516C124.892 15.02 125.504 14.772 126.256 14.772C126.728 14.772 127.14 14.872 127.492 15.072C127.852 15.272 128.132 15.552 128.332 15.912C128.54 16.272 128.644 16.688 128.644 17.16V21H127.444V17.364C127.444 16.884 127.308 16.508 127.036 16.236C126.772 15.956 126.4 15.816 125.92 15.816C125.6 15.816 125.312 15.884 125.056 16.02C124.8 16.156 124.588 16.352 124.42 16.608V21H123.22ZM130.028 21V14.892H131.228V21H130.028ZM130.628 13.908C130.428 13.908 130.256 13.836 130.112 13.692C129.968 13.54 129.896 13.364 129.896 13.164C129.896 12.956 129.968 12.784 130.112 12.648C130.256 12.504 130.428 12.432 130.628 12.432C130.836 12.432 131.012 12.504 131.156 12.648C131.3 12.784 131.372 12.956 131.372 13.164C131.372 13.364 131.3 13.54 131.156 13.692C131.012 13.836 130.836 13.908 130.628 13.908ZM135.258 21.108C134.666 21.108 134.214 20.972 133.902 20.7C133.59 20.42 133.434 20.016 133.434 19.488V15.9H132.138V14.892H133.434V13.332L134.622 13.044V14.892H136.422V15.9H134.622V19.212C134.622 19.524 134.69 19.748 134.826 19.884C134.97 20.012 135.202 20.076 135.522 20.076C135.69 20.076 135.838 20.064 135.966 20.04C136.102 20.016 136.246 19.98 136.398 19.932V20.94C136.238 20.996 136.05 21.036 135.834 21.06C135.626 21.092 135.434 21.108 135.258 21.108Z" fill="black"/>
<path d="M78.2563 180V171.6H84.4723V172.704H79.5163V175.284H82.7803V176.352H79.5163V180H78.2563ZM87.2155 180.12C86.6235 180.12 86.0835 179.98 85.5955 179.7C85.1155 179.42 84.7355 179.04 84.4555 178.56C84.1755 178.08 84.0355 177.544 84.0355 176.952C84.0355 176.36 84.1755 175.824 84.4555 175.344C84.7355 174.864 85.1155 174.484 85.5955 174.204C86.0835 173.916 86.6235 173.772 87.2155 173.772C87.8155 173.772 88.3555 173.916 88.8355 174.204C89.3155 174.484 89.6955 174.864 89.9755 175.344C90.2555 175.824 90.3955 176.36 90.3955 176.952C90.3955 177.544 90.2555 178.08 89.9755 178.56C89.6955 179.04 89.3155 179.42 88.8355 179.7C88.3555 179.98 87.8155 180.12 87.2155 180.12ZM87.2155 179.064C87.5915 179.064 87.9315 178.972 88.2355 178.788C88.5395 178.596 88.7795 178.34 88.9555 178.02C89.1315 177.7 89.2195 177.34 89.2195 176.94C89.2195 176.548 89.1275 176.196 88.9435 175.884C88.7675 175.564 88.5275 175.308 88.2235 175.116C87.9275 174.924 87.5915 174.828 87.2155 174.828C86.8395 174.828 86.4995 174.924 86.1955 175.116C85.8995 175.308 85.6595 175.564 85.4755 175.884C85.2995 176.196 85.2115 176.548 85.2115 176.94C85.2115 177.34 85.2995 177.7 85.4755 178.02C85.6515 178.34 85.8915 178.596 86.1955 178.788C86.4995 178.972 86.8395 179.064 87.2155 179.064ZM91.5303 180V173.892H92.7303V174.672C92.9223 174.384 93.1583 174.16 93.4383 174C93.7263 173.832 94.0503 173.748 94.4103 173.748C94.6583 173.756 94.8623 173.792 95.0223 173.856V174.936C94.9103 174.888 94.7943 174.856 94.6743 174.84C94.5543 174.816 94.4343 174.804 94.3143 174.804C93.9623 174.804 93.6503 174.9 93.3783 175.092C93.1063 175.276 92.8903 175.548 92.7303 175.908V180H91.5303ZM98.4398 180.096C97.8718 180.096 97.3518 179.956 96.8798 179.676C96.4078 179.396 96.0358 179.02 95.7638 178.548C95.4918 178.068 95.3558 177.532 95.3558 176.94C95.3558 176.348 95.4918 175.816 95.7638 175.344C96.0438 174.872 96.4198 174.496 96.8918 174.216C97.3638 173.936 97.8878 173.796 98.4638 173.796C98.7998 173.796 99.1238 173.848 99.4358 173.952C99.7478 174.056 100.036 174.208 100.3 174.408V171.6L101.5 171.372V180H100.312V179.412C99.7918 179.868 99.1678 180.096 98.4398 180.096ZM98.5958 179.052C98.9478 179.052 99.2678 178.988 99.5558 178.86C99.8518 178.732 100.1 178.548 100.3 178.308V175.56C100.1 175.336 99.8518 175.16 99.5558 175.032C99.2678 174.896 98.9478 174.828 98.5958 174.828C98.2118 174.828 97.8638 174.92 97.5518 175.104C97.2398 175.288 96.9918 175.54 96.8078 175.86C96.6238 176.172 96.5318 176.528 96.5318 176.928C96.5318 177.328 96.6238 177.688 96.8078 178.008C96.9918 178.328 97.2398 178.584 97.5518 178.776C97.8638 178.96 98.2118 179.052 98.5958 179.052ZM105.573 180V171.6H106.833V175.488L110.901 171.6H112.497L108.129 175.668L112.629 180H110.901L106.833 176.016V180H105.573ZM114.849 180.108C114.409 180.108 114.021 180.032 113.685 179.88C113.349 179.72 113.085 179.5 112.893 179.22C112.701 178.94 112.605 178.616 112.605 178.248C112.605 177.672 112.825 177.22 113.265 176.892C113.705 176.556 114.309 176.388 115.077 176.388C115.677 176.388 116.233 176.504 116.745 176.736V176.088C116.745 175.648 116.617 175.32 116.361 175.104C116.113 174.888 115.745 174.78 115.257 174.78C114.977 174.78 114.685 174.824 114.381 174.912C114.077 174.992 113.737 175.12 113.361 175.296L112.917 174.396C113.381 174.18 113.813 174.024 114.213 173.928C114.613 173.824 115.017 173.772 115.425 173.772C116.217 173.772 116.829 173.96 117.261 174.336C117.701 174.712 117.921 175.248 117.921 175.944V180H116.745V179.472C116.473 179.688 116.181 179.848 115.869 179.952C115.557 180.056 115.217 180.108 114.849 180.108ZM113.757 178.224C113.757 178.52 113.881 178.76 114.129 178.944C114.385 179.128 114.717 179.22 115.125 179.22C115.445 179.22 115.737 179.172 116.001 179.076C116.273 178.98 116.521 178.832 116.745 178.632V177.6C116.513 177.464 116.269 177.368 116.013 177.312C115.765 177.248 115.485 177.216 115.173 177.216C114.733 177.216 114.385 177.308 114.129 177.492C113.881 177.668 113.757 177.912 113.757 178.224Z" fill="black"/>
<path d="M167.288 180V171.6H168.548V175.2H173.012V171.6H174.272V180H173.012V176.34H168.548V180H167.288ZM176.247 182.58C176.119 182.58 175.999 182.572 175.887 182.556C175.775 182.548 175.683 182.532 175.611 182.508V181.452C175.755 181.484 175.931 181.5 176.139 181.5C176.699 181.5 177.103 181.2 177.351 180.6L177.615 180.012L175.167 173.892H176.499L178.275 178.548L180.243 173.892H181.539L178.587 180.756C178.395 181.188 178.191 181.536 177.975 181.8C177.759 182.072 177.511 182.268 177.231 182.388C176.951 182.516 176.623 182.58 176.247 182.58ZM184.531 180.12C184.059 180.12 183.643 180.02 183.283 179.82C182.923 179.62 182.643 179.34 182.443 178.98C182.243 178.612 182.143 178.192 182.143 177.72V173.892H183.331V177.516C183.331 177.996 183.467 178.376 183.739 178.656C184.019 178.936 184.391 179.076 184.855 179.076C185.183 179.076 185.475 179.008 185.731 178.872C185.987 178.728 186.195 178.528 186.355 178.272V173.892H187.555V180H186.355V179.376C185.883 179.872 185.275 180.12 184.531 180.12ZM188.976 180V173.892H190.176V174.516C190.648 174.02 191.26 173.772 192.012 173.772C192.484 173.772 192.896 173.872 193.248 174.072C193.608 174.272 193.888 174.552 194.088 174.912C194.296 175.272 194.4 175.688 194.4 176.16V180H193.2V176.364C193.2 175.884 193.064 175.508 192.792 175.236C192.528 174.956 192.156 174.816 191.676 174.816C191.356 174.816 191.068 174.884 190.812 175.02C190.556 175.156 190.344 175.352 190.176 175.608V180H188.976ZM198.592 180.096C198.024 180.096 197.504 179.956 197.032 179.676C196.56 179.396 196.188 179.02 195.916 178.548C195.644 178.068 195.508 177.532 195.508 176.94C195.508 176.348 195.644 175.816 195.916 175.344C196.196 174.872 196.572 174.496 197.044 174.216C197.516 173.936 198.04 173.796 198.616 173.796C198.952 173.796 199.276 173.848 199.588 173.952C199.9 174.056 200.188 174.208 200.452 174.408V171.6L201.652 171.372V180H200.464V179.412C199.944 179.868 199.32 180.096 198.592 180.096ZM198.748 179.052C199.1 179.052 199.42 178.988 199.708 178.86C200.004 178.732 200.252 178.548 200.452 178.308V175.56C200.252 175.336 200.004 175.16 199.708 175.032C199.42 174.896 199.1 174.828 198.748 174.828C198.364 174.828 198.016 174.92 197.704 175.104C197.392 175.288 197.144 175.54 196.96 175.86C196.776 176.172 196.684 176.528 196.684 176.928C196.684 177.328 196.776 177.688 196.96 178.008C197.144 178.328 197.392 178.584 197.704 178.776C198.016 178.96 198.364 179.052 198.748 179.052ZM205.005 180.108C204.565 180.108 204.177 180.032 203.841 179.88C203.505 179.72 203.241 179.5 203.049 179.22C202.857 178.94 202.761 178.616 202.761 178.248C202.761 177.672 202.981 177.22 203.421 176.892C203.861 176.556 204.465 176.388 205.233 176.388C205.833 176.388 206.389 176.504 206.901 176.736V176.088C206.901 175.648 206.773 175.32 206.517 175.104C206.269 174.888 205.901 174.78 205.413 174.78C205.133 174.78 204.841 174.824 204.537 174.912C204.233 174.992 203.893 175.12 203.517 175.296L203.073 174.396C203.537 174.18 203.969 174.024 204.369 173.928C204.769 173.824 205.173 173.772 205.581 173.772C206.373 173.772 206.985 173.96 207.417 174.336C207.857 174.712 208.077 175.248 208.077 175.944V180H206.901V179.472C206.629 179.688 206.337 179.848 206.025 179.952C205.713 180.056 205.373 180.108 205.005 180.108ZM203.913 178.224C203.913 178.52 204.037 178.76 204.285 178.944C204.541 179.128 204.873 179.22 205.281 179.22C205.601 179.22 205.893 179.172 206.157 179.076C206.429 178.98 206.677 178.832 206.901 178.632V177.6C206.669 177.464 206.425 177.368 206.169 177.312C205.921 177.248 205.641 177.216 205.329 177.216C204.889 177.216 204.541 177.308 204.285 177.492C204.037 177.668 203.913 177.912 203.913 178.224ZM209.46 180V173.892H210.66V180H209.46ZM210.06 172.908C209.86 172.908 209.688 172.836 209.544 172.692C209.4 172.54 209.328 172.364 209.328 172.164C209.328 171.956 209.4 171.784 209.544 171.648C209.688 171.504 209.86 171.432 210.06 171.432C210.268 171.432 210.444 171.504 210.588 171.648C210.732 171.784 210.804 171.956 210.804 172.164C210.804 172.364 210.732 172.54 210.588 172.692C210.444 172.836 210.268 172.908 210.06 172.908ZM214.725 180V171.6H215.985V175.2H220.449V171.6H221.709V180H220.449V176.34H215.985V180H214.725ZM223.276 180V171.6L224.476 171.372V174.468C224.988 174.02 225.608 173.796 226.336 173.796C226.912 173.796 227.432 173.936 227.896 174.216C228.368 174.496 228.74 174.872 229.012 175.344C229.284 175.816 229.42 176.348 229.42 176.94C229.42 177.532 229.28 178.068 229 178.548C228.728 179.02 228.356 179.396 227.884 179.676C227.42 179.956 226.896 180.096 226.312 180.096C225.976 180.096 225.648 180.044 225.328 179.94C225.016 179.828 224.728 179.672 224.464 179.472V180H223.276ZM226.18 179.052C226.572 179.052 226.92 178.96 227.224 178.776C227.536 178.592 227.784 178.344 227.968 178.032C228.152 177.712 228.244 177.352 228.244 176.952C228.244 176.552 228.152 176.192 227.968 175.872C227.784 175.552 227.536 175.3 227.224 175.116C226.92 174.932 226.572 174.84 226.18 174.84C225.836 174.84 225.516 174.904 225.22 175.032C224.924 175.16 224.676 175.34 224.476 175.572V178.332C224.676 178.556 224.924 178.732 225.22 178.86C225.524 178.988 225.844 179.052 226.18 179.052ZM230.445 180V179.16L233.853 175.536C234.085 175.296 234.265 175.08 234.393 174.888C234.521 174.696 234.609 174.516 234.657 174.348C234.713 174.172 234.741 173.988 234.741 173.796C234.741 173.42 234.589 173.108 234.285 172.86C233.981 172.612 233.597 172.488 233.133 172.488C232.749 172.488 232.389 172.564 232.053 172.716C231.717 172.868 231.345 173.132 230.937 173.508L230.289 172.716C230.737 172.3 231.197 171.988 231.669 171.78C232.149 171.572 232.645 171.468 233.157 171.468C233.693 171.468 234.165 171.564 234.573 171.756C234.981 171.948 235.297 172.216 235.521 172.56C235.753 172.896 235.869 173.284 235.869 173.724C235.869 174.004 235.833 174.264 235.761 174.504C235.689 174.736 235.565 174.984 235.389 175.248C235.213 175.504 234.965 175.8 234.645 176.136L231.909 179.016L236.037 179.004V180H230.445ZM240.546 180.132C239.842 180.132 239.226 179.952 238.698 179.592C238.17 179.224 237.754 178.716 237.45 178.068C237.154 177.412 237.006 176.656 237.006 175.8C237.006 174.944 237.154 174.192 237.45 173.544C237.754 172.888 238.17 172.38 238.698 172.02C239.226 171.652 239.842 171.468 240.546 171.468C241.242 171.468 241.854 171.652 242.382 172.02C242.91 172.38 243.322 172.888 243.618 173.544C243.922 174.192 244.074 174.944 244.074 175.8C244.074 176.656 243.922 177.412 243.618 178.068C243.322 178.716 242.91 179.224 242.382 179.592C241.854 179.952 241.242 180.132 240.546 180.132ZM240.546 179.088C241.026 179.088 241.442 178.956 241.794 178.692C242.146 178.42 242.418 178.036 242.61 177.54C242.802 177.044 242.898 176.464 242.898 175.8C242.898 175.128 242.802 174.548 242.61 174.06C242.418 173.564 242.146 173.184 241.794 172.92C241.442 172.648 241.026 172.512 240.546 172.512C240.066 172.512 239.646 172.648 239.286 172.92C238.934 173.184 238.662 173.564 238.47 174.06C238.278 174.548 238.182 175.128 238.182 175.8C238.182 176.464 238.278 177.044 238.47 177.54C238.662 178.036 238.934 178.42 239.286 178.692C239.646 178.956 240.066 179.088 240.546 179.088Z" fill="black"/>
<path d="M284.297 180V172.716H281.345V171.6H288.509V172.716H285.557V180H284.297ZM290.928 180.12C290.336 180.12 289.796 179.98 289.308 179.7C288.828 179.42 288.448 179.04 288.168 178.56C287.888 178.08 287.748 177.544 287.748 176.952C287.748 176.36 287.888 175.824 288.168 175.344C288.448 174.864 288.828 174.484 289.308 174.204C289.796 173.916 290.336 173.772 290.928 173.772C291.528 173.772 292.068 173.916 292.548 174.204C293.028 174.484 293.408 174.864 293.688 175.344C293.968 175.824 294.108 176.36 294.108 176.952C294.108 177.544 293.968 178.08 293.688 178.56C293.408 179.04 293.028 179.42 292.548 179.7C292.068 179.98 291.528 180.12 290.928 180.12ZM290.928 179.064C291.304 179.064 291.644 178.972 291.948 178.788C292.252 178.596 292.492 178.34 292.668 178.02C292.844 177.7 292.932 177.34 292.932 176.94C292.932 176.548 292.84 176.196 292.656 175.884C292.48 175.564 292.24 175.308 291.936 175.116C291.64 174.924 291.304 174.828 290.928 174.828C290.552 174.828 290.212 174.924 289.908 175.116C289.612 175.308 289.372 175.564 289.188 175.884C289.012 176.196 288.924 176.548 288.924 176.94C288.924 177.34 289.012 177.7 289.188 178.02C289.364 178.34 289.604 178.596 289.908 178.788C290.212 178.972 290.552 179.064 290.928 179.064ZM295.475 182.58C295.347 182.58 295.227 182.572 295.115 182.556C295.003 182.548 294.911 182.532 294.839 182.508V181.452C294.983 181.484 295.159 181.5 295.367 181.5C295.927 181.5 296.331 181.2 296.579 180.6L296.843 180.012L294.395 173.892H295.727L297.503 178.548L299.471 173.892H300.767L297.815 180.756C297.623 181.188 297.419 181.536 297.203 181.8C296.987 182.072 296.739 182.268 296.459 182.388C296.179 182.516 295.851 182.58 295.475 182.58ZM304.241 180.12C303.649 180.12 303.109 179.98 302.621 179.7C302.141 179.42 301.761 179.04 301.481 178.56C301.201 178.08 301.061 177.544 301.061 176.952C301.061 176.36 301.201 175.824 301.481 175.344C301.761 174.864 302.141 174.484 302.621 174.204C303.109 173.916 303.649 173.772 304.241 173.772C304.841 173.772 305.381 173.916 305.861 174.204C306.341 174.484 306.721 174.864 307.001 175.344C307.281 175.824 307.421 176.36 307.421 176.952C307.421 177.544 307.281 178.08 307.001 178.56C306.721 179.04 306.341 179.42 305.861 179.7C305.381 179.98 304.841 180.12 304.241 180.12ZM304.241 179.064C304.617 179.064 304.957 178.972 305.261 178.788C305.565 178.596 305.805 178.34 305.981 178.02C306.157 177.7 306.245 177.34 306.245 176.94C306.245 176.548 306.153 176.196 305.969 175.884C305.793 175.564 305.553 175.308 305.249 175.116C304.953 174.924 304.617 174.828 304.241 174.828C303.865 174.828 303.525 174.924 303.221 175.116C302.925 175.308 302.685 175.564 302.501 175.884C302.325 176.196 302.237 176.548 302.237 176.94C302.237 177.34 302.325 177.7 302.501 178.02C302.677 178.34 302.917 178.596 303.221 178.788C303.525 178.972 303.865 179.064 304.241 179.064ZM310.82 180.108C310.228 180.108 309.776 179.972 309.464 179.7C309.152 179.42 308.996 179.016 308.996 178.488V174.9H307.7V173.892H308.996V172.332L310.184 172.044V173.892H311.984V174.9H310.184V178.212C310.184 178.524 310.252 178.748 310.388 178.884C310.532 179.012 310.764 179.076 311.084 179.076C311.252 179.076 311.4 179.064 311.528 179.04C311.664 179.016 311.808 178.98 311.96 178.932V179.94C311.8 179.996 311.612 180.036 311.396 180.06C311.188 180.092 310.996 180.108 310.82 180.108ZM314.8 180.108C314.36 180.108 313.972 180.032 313.636 179.88C313.3 179.72 313.036 179.5 312.844 179.22C312.652 178.94 312.556 178.616 312.556 178.248C312.556 177.672 312.776 177.22 313.216 176.892C313.656 176.556 314.26 176.388 315.028 176.388C315.628 176.388 316.184 176.504 316.696 176.736V176.088C316.696 175.648 316.568 175.32 316.312 175.104C316.064 174.888 315.696 174.78 315.208 174.78C314.928 174.78 314.636 174.824 314.332 174.912C314.028 174.992 313.688 175.12 313.312 175.296L312.868 174.396C313.332 174.18 313.764 174.024 314.164 173.928C314.564 173.824 314.968 173.772 315.376 173.772C316.168 173.772 316.78 173.96 317.212 174.336C317.652 174.712 317.872 175.248 317.872 175.944V180H316.696V179.472C316.424 179.688 316.132 179.848 315.82 179.952C315.508 180.056 315.168 180.108 314.8 180.108ZM313.708 178.224C313.708 178.52 313.832 178.76 314.08 178.944C314.336 179.128 314.668 179.22 315.076 179.22C315.396 179.22 315.688 179.172 315.952 179.076C316.224 178.98 316.472 178.832 316.696 178.632V177.6C316.464 177.464 316.22 177.368 315.964 177.312C315.716 177.248 315.436 177.216 315.124 177.216C314.684 177.216 314.336 177.308 314.08 177.492C313.832 177.668 313.708 177.912 313.708 178.224ZM324.427 180V176.664L321.043 171.6H322.507L325.087 175.548L327.667 171.6H329.071L325.687 176.688V180H324.427ZM330.468 180.108C330.028 180.108 329.64 180.032 329.304 179.88C328.968 179.72 328.704 179.5 328.512 179.22C328.32 178.94 328.224 178.616 328.224 178.248C328.224 177.672 328.444 177.22 328.884 176.892C329.324 176.556 329.928 176.388 330.696 176.388C331.296 176.388 331.852 176.504 332.364 176.736V176.088C332.364 175.648 332.236 175.32 331.98 175.104C331.732 174.888 331.364 174.78 330.876 174.78C330.596 174.78 330.304 174.824 330 174.912C329.696 174.992 329.356 175.12 328.98 175.296L328.536 174.396C329 174.18 329.432 174.024 329.832 173.928C330.232 173.824 330.636 173.772 331.044 173.772C331.836 173.772 332.448 173.96 332.88 174.336C333.32 174.712 333.54 175.248 333.54 175.944V180H332.364V179.472C332.092 179.688 331.8 179.848 331.488 179.952C331.176 180.056 330.836 180.108 330.468 180.108ZM329.376 178.224C329.376 178.52 329.5 178.76 329.748 178.944C330.004 179.128 330.336 179.22 330.744 179.22C331.064 179.22 331.356 179.172 331.62 179.076C331.892 178.98 332.14 178.832 332.364 178.632V177.6C332.132 177.464 331.888 177.368 331.632 177.312C331.384 177.248 331.104 177.216 330.792 177.216C330.352 177.216 330.004 177.308 329.748 177.492C329.5 177.668 329.376 177.912 329.376 178.224ZM334.923 180V173.892H336.123V174.672C336.315 174.384 336.551 174.16 336.831 174C337.119 173.832 337.443 173.748 337.803 173.748C338.051 173.756 338.255 173.792 338.415 173.856V174.936C338.303 174.888 338.187 174.856 338.067 174.84C337.947 174.816 337.827 174.804 337.707 174.804C337.355 174.804 337.043 174.9 336.771 175.092C336.499 175.276 336.283 175.548 336.123 175.908V180H334.923ZM339.376 180V173.892H340.576V180H339.376ZM339.976 172.908C339.776 172.908 339.604 172.836 339.46 172.692C339.316 172.54 339.244 172.364 339.244 172.164C339.244 171.956 339.316 171.784 339.46 171.648C339.604 171.504 339.776 171.432 339.976 171.432C340.184 171.432 340.36 171.504 340.504 171.648C340.648 171.784 340.72 171.956 340.72 172.164C340.72 172.364 340.648 172.54 340.504 172.692C340.36 172.836 340.184 172.908 339.976 172.908ZM344.089 180.12C343.561 180.12 343.065 180.044 342.601 179.892C342.145 179.732 341.749 179.508 341.413 179.22L342.073 178.428C342.385 178.676 342.705 178.868 343.033 179.004C343.369 179.132 343.709 179.196 344.053 179.196C344.485 179.196 344.837 179.112 345.109 178.944C345.381 178.776 345.517 178.556 345.517 178.284C345.517 178.06 345.437 177.884 345.277 177.756C345.117 177.628 344.869 177.54 344.533 177.492L343.429 177.336C342.821 177.248 342.365 177.06 342.061 176.772C341.757 176.484 341.605 176.1 341.605 175.62C341.605 175.252 341.705 174.932 341.905 174.66C342.105 174.38 342.385 174.164 342.745 174.012C343.105 173.852 343.525 173.772 344.005 173.772C344.445 173.772 344.869 173.836 345.277 173.964C345.685 174.092 346.077 174.292 346.453 174.564L345.841 175.356C345.505 175.132 345.177 174.968 344.857 174.864C344.545 174.76 344.229 174.708 343.909 174.708C343.541 174.708 343.245 174.788 343.021 174.948C342.797 175.1 342.685 175.3 342.685 175.548C342.685 175.772 342.761 175.948 342.913 176.076C343.073 176.196 343.333 176.28 343.693 176.328L344.797 176.484C345.405 176.572 345.865 176.76 346.177 177.048C346.489 177.328 346.645 177.708 346.645 178.188C346.645 178.556 346.533 178.888 346.309 179.184C346.085 179.472 345.781 179.7 345.397 179.868C345.013 180.036 344.577 180.12 344.089 180.12Z" fill="black"/>
<defs>
<filter id="filter0_d_1_686" x="0.00769234" y="0.0153847" width="389.938" height="203.938" filterUnits="userSpaceOnUse" color-interpolation-filters="sRGB">
<feFlood flood-opacity="0" result="BackgroundImageFix"/>
<feColorMatrix in="SourceAlpha" type="matrix" values="0 0 0 0 0 0 0 0 0 0 0 0 0 0 0 0 0 0 127 0" result="hardAlpha"/>
<feOffset dx="5.97692" dy="3.98462"/>
<feGaussianBlur stdDeviation="3.98462"/>
<feComposite in2="hardAlpha" operator="out"/>
<feColorMatrix type="matrix" values="0 0 0 0 0 0 0 0 0 0 0 0 0 0 0 0 0 0 0.25 0"/>
<feBlend mode="normal" in2="BackgroundImageFix" result="effect1_dropShadow_1_686"/>
<feBlend mode="normal" in="SourceGraphic" in2="effect1_dropShadow_1_686" result="shape"/>
</filter>
</defs>
</svg>
