<svg width="390" height="204" viewBox="0 0 390 204" fill="none" xmlns="http://www.w3.org/2000/svg">
<g filter="url(#filter0_d_1_646)">
<path d="M2 13.9615C2 8.45992 6.45993 4 11.9615 4H366.038C371.54 4 376 8.45993 376 13.9615V182.038C376 187.54 371.54 192 366.038 192H11.9616C6.45995 192 2 187.54 2 182.038V13.9615Z" fill="white"/>
</g>
<path d="M31.4022 176.688V177.822C31.4022 178.432 31.3477 178.946 31.2387 179.365C31.1297 179.784 30.9731 180.121 30.7687 180.377C30.5643 180.632 30.3174 180.818 30.0279 180.934C29.7418 181.046 29.4182 181.102 29.0572 181.102C28.771 181.102 28.5071 181.066 28.2652 180.995C28.0234 180.923 27.8054 180.809 27.6113 180.653C27.4205 180.492 27.2571 180.285 27.1208 180.029C26.9846 179.774 26.8807 179.464 26.8092 179.099C26.7376 178.735 26.7019 178.309 26.7019 177.822V176.688C26.7019 176.078 26.7564 175.567 26.8654 175.155C26.9778 174.743 27.1361 174.413 27.3405 174.164C27.5449 173.912 27.7901 173.731 28.0762 173.622C28.3657 173.513 28.6893 173.459 29.0469 173.459C29.3365 173.459 29.6021 173.495 29.844 173.566C30.0892 173.634 30.3072 173.745 30.4979 173.898C30.6887 174.048 30.8505 174.249 30.9833 174.501C31.1195 174.75 31.2234 175.055 31.2949 175.416C31.3665 175.777 31.4022 176.201 31.4022 176.688ZM30.4519 177.975V176.53C30.4519 176.196 30.4315 175.903 30.3906 175.651C30.3532 175.395 30.297 175.177 30.222 174.997C30.1471 174.816 30.0517 174.67 29.9359 174.557C29.8235 174.445 29.6924 174.363 29.5425 174.312C29.3961 174.258 29.2309 174.23 29.0469 174.23C28.8221 174.23 28.6229 174.273 28.4492 174.358C28.2755 174.44 28.129 174.571 28.0098 174.752C27.894 174.932 27.8054 175.169 27.7441 175.462C27.6828 175.755 27.6522 176.111 27.6522 176.53V177.975C27.6522 178.309 27.6709 178.604 27.7084 178.859C27.7492 179.115 27.8088 179.336 27.8872 179.523C27.9655 179.707 28.0609 179.859 28.1733 179.978C28.2857 180.097 28.4151 180.186 28.5616 180.244C28.7114 180.298 28.8766 180.326 29.0572 180.326C29.2888 180.326 29.4914 180.281 29.6651 180.193C29.8389 180.104 29.9836 179.966 30.0994 179.779C30.2186 179.588 30.3072 179.345 30.3651 179.048C30.423 178.749 30.4519 178.391 30.4519 177.975Z" fill="#333333"/>
<path d="M10.8534 144.459L10.0973 144.265L10.4702 140.561H14.2867V141.435H11.2724L11.0476 143.458C11.1838 143.38 11.3558 143.306 11.5636 143.238C11.7748 143.17 12.0166 143.136 12.2891 143.136C12.6331 143.136 12.9413 143.196 13.2138 143.315C13.4863 143.431 13.7179 143.598 13.9087 143.816C14.1028 144.034 14.251 144.296 14.3532 144.602C14.4553 144.909 14.5064 145.251 14.5064 145.629C14.5064 145.987 14.457 146.316 14.3583 146.615C14.2629 146.915 14.1181 147.177 13.924 147.402C13.7299 147.624 13.4846 147.796 13.1883 147.918C12.8954 148.041 12.5497 148.102 12.1511 148.102C11.8514 148.102 11.567 148.061 11.2979 147.98C11.0322 147.894 10.7938 147.767 10.5826 147.596C10.3749 147.423 10.2046 147.208 10.0717 146.953C9.94231 146.694 9.86056 146.391 9.8265 146.043H10.7257C10.7666 146.323 10.8483 146.558 10.9709 146.748C11.0936 146.939 11.2536 147.084 11.4512 147.183C11.6522 147.278 11.8855 147.326 12.1511 147.326C12.3759 147.326 12.5752 147.286 12.7489 147.208C12.9226 147.13 13.0691 147.017 13.1883 146.871C13.3075 146.724 13.3978 146.547 13.4591 146.34C13.5238 146.132 13.5561 145.898 13.5561 145.64C13.5561 145.405 13.5238 145.187 13.4591 144.986C13.3944 144.785 13.2973 144.609 13.1679 144.459C13.0418 144.31 12.8869 144.194 12.7029 144.112C12.519 144.027 12.3078 143.984 12.0694 143.984C11.7526 143.984 11.5125 144.027 11.349 144.112C11.1889 144.197 11.0237 144.313 10.8534 144.459ZM20.2133 143.688V144.822C20.2133 145.432 20.1588 145.946 20.0498 146.365C19.9408 146.784 19.7841 147.121 19.5798 147.377C19.3754 147.632 19.1285 147.818 18.839 147.934C18.5528 148.046 18.2293 148.102 17.8682 148.102C17.5821 148.102 17.3181 148.066 17.0763 147.995C16.8345 147.923 16.6165 147.809 16.4224 147.653C16.2316 147.492 16.0681 147.285 15.9319 147.029C15.7956 146.774 15.6917 146.464 15.6202 146.099C15.5487 145.735 15.5129 145.309 15.5129 144.822V143.688C15.5129 143.078 15.5674 142.567 15.6764 142.155C15.7888 141.743 15.9472 141.413 16.1516 141.164C16.3559 140.912 16.6012 140.731 16.8873 140.622C17.1768 140.513 17.5004 140.459 17.858 140.459C18.1475 140.459 18.4132 140.495 18.655 140.566C18.9003 140.634 19.1183 140.745 19.309 140.898C19.4997 141.048 19.6615 141.249 19.7944 141.501C19.9306 141.75 20.0345 142.055 20.106 142.416C20.1775 142.777 20.2133 143.201 20.2133 143.688ZM19.263 144.975V143.53C19.263 143.196 19.2426 142.903 19.2017 142.651C19.1642 142.395 19.108 142.177 19.0331 141.997C18.9582 141.816 18.8628 141.67 18.747 141.557C18.6346 141.445 18.5035 141.363 18.3536 141.312C18.2071 141.258 18.0419 141.23 17.858 141.23C17.6332 141.23 17.434 141.273 17.2602 141.358C17.0865 141.44 16.9401 141.571 16.8209 141.752C16.7051 141.932 16.6165 142.169 16.5552 142.462C16.4939 142.755 16.4632 143.111 16.4632 143.53V144.975C16.4632 145.309 16.482 145.604 16.5194 145.859C16.5603 146.115 16.6199 146.336 16.6982 146.523C16.7766 146.707 16.872 146.859 16.9844 146.978C17.0968 147.097 17.2262 147.186 17.3726 147.244C17.5225 147.298 17.6877 147.326 17.8682 147.326C18.0998 147.326 18.3025 147.281 18.4762 147.193C18.6499 147.104 18.7947 146.966 18.9105 146.779C19.0297 146.588 19.1183 146.345 19.1762 146.048C19.2341 145.749 19.263 145.391 19.263 144.975ZM26.099 143.688V144.822C26.099 145.432 26.0445 145.946 25.9355 146.365C25.8265 146.784 25.6698 147.121 25.4655 147.377C25.2611 147.632 25.0142 147.818 24.7246 147.934C24.4385 148.046 24.115 148.102 23.7539 148.102C23.4678 148.102 23.2038 148.066 22.962 147.995C22.7202 147.923 22.5022 147.809 22.308 147.653C22.1173 147.492 21.9538 147.285 21.8176 147.029C21.6813 146.774 21.5774 146.464 21.5059 146.099C21.4344 145.735 21.3986 145.309 21.3986 144.822V143.688C21.3986 143.078 21.4531 142.567 21.5621 142.155C21.6745 141.743 21.8329 141.413 22.0373 141.164C22.2416 140.912 22.4869 140.731 22.773 140.622C23.0625 140.513 23.3861 140.459 23.7437 140.459C24.0332 140.459 24.2989 140.495 24.5407 140.566C24.7859 140.634 25.0039 140.745 25.1947 140.898C25.3854 141.048 25.5472 141.249 25.68 141.501C25.8163 141.75 25.9202 142.055 25.9917 142.416C26.0632 142.777 26.099 143.201 26.099 143.688ZM25.1487 144.975V143.53C25.1487 143.196 25.1283 142.903 25.0874 142.651C25.0499 142.395 24.9937 142.177 24.9188 141.997C24.8439 141.816 24.7485 141.67 24.6327 141.557C24.5203 141.445 24.3891 141.363 24.2393 141.312C24.0928 141.258 23.9276 141.23 23.7437 141.23C23.5189 141.23 23.3196 141.273 23.1459 141.358C22.9722 141.44 22.8258 141.571 22.7065 141.752C22.5907 141.932 22.5022 142.169 22.4409 142.462C22.3796 142.755 22.3489 143.111 22.3489 143.53V144.975C22.3489 145.309 22.3676 145.604 22.4051 145.859C22.446 146.115 22.5056 146.336 22.5839 146.523C22.6623 146.707 22.7576 146.859 22.87 146.978C22.9824 147.097 23.1119 147.186 23.2583 147.244C23.4082 147.298 23.5734 147.326 23.7539 147.326C23.9855 147.326 24.1882 147.281 24.3619 147.193C24.5356 147.104 24.6804 146.966 24.7962 146.779C24.9154 146.588 25.0039 146.345 25.0618 146.048C25.1197 145.749 25.1487 145.391 25.1487 144.975ZM28.3674 140.152V148H27.4171V140.152H28.3674ZM31.7445 142.472L29.333 145.052L27.9842 146.452L27.9076 145.445L28.8732 144.291L30.5899 142.472H31.7445ZM30.8811 148L28.909 145.364L29.3995 144.521L31.9949 148H30.8811Z" fill="#333333"/>
<path d="M20.6629 107.52V115H19.7177V108.7L17.812 109.395V108.542L20.5147 107.52H20.6629ZM24.4845 110.57V115H23.5342V109.472H24.4334L24.4845 110.57ZM24.2904 112.027L23.851 112.011C23.8544 111.633 23.9038 111.284 23.9991 110.964C24.0945 110.64 24.2359 110.359 24.4232 110.121C24.6105 109.882 24.8439 109.698 25.1232 109.569C25.4024 109.436 25.726 109.37 26.0939 109.37C26.3527 109.37 26.5912 109.407 26.8092 109.482C27.0271 109.554 27.2162 109.668 27.3763 109.824C27.5363 109.981 27.6607 110.182 27.7492 110.427C27.8378 110.673 27.8821 110.969 27.8821 111.316V115H26.9369V111.362C26.9369 111.073 26.8875 110.841 26.7887 110.667C26.6933 110.494 26.5571 110.368 26.38 110.289C26.2029 110.208 25.9951 110.167 25.7567 110.167C25.4774 110.167 25.2441 110.216 25.0567 110.315C24.8694 110.414 24.7195 110.55 24.6071 110.724C24.4947 110.897 24.413 111.097 24.3619 111.321C24.3142 111.543 24.2904 111.778 24.2904 112.027ZM27.8718 111.505L27.2383 111.7C27.2417 111.396 27.2911 111.105 27.3865 110.826C27.4853 110.547 27.6266 110.298 27.8105 110.08C27.9979 109.862 28.2278 109.69 28.5003 109.564C28.7728 109.434 29.0844 109.37 29.4352 109.37C29.7316 109.37 29.9938 109.409 30.222 109.487C30.4536 109.566 30.6478 109.687 30.8045 109.85C30.9646 110.01 31.0855 110.216 31.1672 110.468C31.249 110.72 31.2898 111.02 31.2898 111.367V115H30.3395V111.357C30.3395 111.047 30.2902 110.807 30.1914 110.637C30.096 110.463 29.9598 110.342 29.7827 110.274C29.6089 110.203 29.4012 110.167 29.1593 110.167C28.9516 110.167 28.7676 110.203 28.6076 110.274C28.4475 110.346 28.3129 110.444 28.2039 110.57C28.0949 110.693 28.0115 110.834 27.9536 110.994C27.8991 111.155 27.8718 111.325 27.8718 111.505Z" fill="#333333"/>
<path d="M12.0183 75.5203V83H11.0731V76.7005L9.16743 77.3953V76.5421L11.8701 75.5203H12.0183ZM14.9152 82.4993C14.9152 82.3392 14.9646 82.2047 15.0633 82.0957C15.1655 81.9833 15.312 81.9271 15.5027 81.9271C15.6935 81.9271 15.8382 81.9833 15.937 82.0957C16.0392 82.2047 16.0903 82.3392 16.0903 82.4993C16.0903 82.656 16.0392 82.7888 15.937 82.8978C15.8382 83.0068 15.6935 83.0613 15.5027 83.0613C15.312 83.0613 15.1655 83.0068 15.0633 82.8978C14.9646 82.7888 14.9152 82.656 14.9152 82.4993ZM18.7521 79.4594L17.996 79.2652L18.3689 75.5611H22.1854V76.4348H19.171L18.9462 78.458C19.0825 78.3797 19.2545 78.3064 19.4623 78.2383C19.6734 78.1702 19.9153 78.1361 20.1878 78.1361C20.5318 78.1361 20.84 78.1957 21.1125 78.315C21.385 78.4308 21.6166 78.5977 21.8073 78.8156C22.0015 79.0336 22.1497 79.2959 22.2518 79.6024C22.354 79.909 22.4051 80.2513 22.4051 80.6294C22.4051 80.987 22.3557 81.3157 22.2569 81.6154C22.1616 81.9152 22.0168 82.1774 21.8227 82.4022C21.6285 82.6236 21.3833 82.7956 21.087 82.9183C20.794 83.0409 20.4483 83.1022 20.0498 83.1022C19.7501 83.1022 19.4657 83.0613 19.1966 82.9796C18.9309 82.8944 18.6925 82.7667 18.4813 82.5964C18.2735 82.4227 18.1032 82.2081 17.9704 81.9526C17.841 81.6938 17.7592 81.3906 17.7252 81.0432H18.6244C18.6652 81.3225 18.747 81.5575 18.8696 81.7483C18.9922 81.939 19.1523 82.0838 19.3499 82.1825C19.5508 82.2779 19.7841 82.3256 20.0498 82.3256C20.2746 82.3256 20.4739 82.2864 20.6476 82.2081C20.8213 82.1297 20.9677 82.0173 21.087 81.8709C21.2062 81.7244 21.2964 81.5473 21.3577 81.3395C21.4225 81.1318 21.4548 80.8985 21.4548 80.6396C21.4548 80.4046 21.4225 80.1866 21.3577 79.9856C21.293 79.7847 21.196 79.6093 21.0665 79.4594C20.9405 79.3095 20.7855 79.1937 20.6016 79.112C20.4177 79.0268 20.2065 78.9842 19.9681 78.9842C19.6513 78.9842 19.4112 79.0268 19.2477 79.112C19.0876 79.1971 18.9224 79.3129 18.7521 79.4594ZM24.4845 78.5704V83H23.5342V77.472H24.4334L24.4845 78.5704ZM24.2904 80.0265L23.851 80.0112C23.8544 79.6331 23.9038 79.284 23.9991 78.9638C24.0945 78.6402 24.2359 78.3592 24.4232 78.1208C24.6105 77.8824 24.8439 77.6985 25.1232 77.569C25.4024 77.4362 25.726 77.3698 26.0939 77.3698C26.3527 77.3698 26.5912 77.4072 26.8092 77.4822C27.0271 77.5537 27.2162 77.6678 27.3763 77.8245C27.5363 77.9812 27.6607 78.1821 27.7492 78.4274C27.8378 78.6726 27.8821 78.9689 27.8821 79.3163V83H26.9369V79.3623C26.9369 79.0728 26.8875 78.8412 26.7887 78.6675C26.6933 78.4938 26.5571 78.3677 26.38 78.2894C26.2029 78.2077 25.9951 78.1668 25.7567 78.1668C25.4774 78.1668 25.2441 78.2162 25.0567 78.315C24.8694 78.4137 24.7195 78.55 24.6071 78.7237C24.4947 78.8974 24.413 79.0966 24.3619 79.3214C24.3142 79.5428 24.2904 79.7779 24.2904 80.0265ZM27.8718 79.5054L27.2383 79.6995C27.2417 79.3964 27.2911 79.1052 27.3865 78.8259C27.4853 78.5466 27.6266 78.2979 27.8105 78.0799C27.9979 77.8619 28.2278 77.6899 28.5003 77.5639C28.7728 77.4345 29.0844 77.3698 29.4352 77.3698C29.7316 77.3698 29.9938 77.4089 30.222 77.4873C30.4536 77.5656 30.6478 77.6865 30.8045 77.85C30.9646 78.0101 31.0855 78.2162 31.1672 78.4682C31.249 78.7203 31.2898 79.02 31.2898 79.3674V83H30.3395V79.3572C30.3395 79.0473 30.2902 78.8071 30.1914 78.6368C30.096 78.4631 29.9598 78.3422 29.7827 78.2741C29.6089 78.2026 29.4012 78.1668 29.1593 78.1668C28.9516 78.1668 28.7676 78.2026 28.6076 78.2741C28.4475 78.3456 28.3129 78.4444 28.2039 78.5704C28.0949 78.693 28.0115 78.8344 27.9536 78.9945C27.8991 79.1545 27.8718 79.3249 27.8718 79.5054Z" fill="#333333"/>
<path d="M22.4307 49.2234V50H17.5617V49.3205L19.9987 46.6076C20.2985 46.2738 20.5301 45.9911 20.6936 45.7594C20.8605 45.5244 20.9763 45.315 21.041 45.131C21.1091 44.9437 21.1432 44.753 21.1432 44.5588C21.1432 44.3136 21.0921 44.0922 20.9899 43.8946C20.8911 43.6937 20.7447 43.5336 20.5505 43.4144C20.3564 43.2952 20.1213 43.2356 19.8454 43.2356C19.5151 43.2356 19.2392 43.3003 19.0178 43.4297C18.7998 43.5557 18.6363 43.7328 18.5273 43.961C18.4183 44.1892 18.3638 44.4515 18.3638 44.7478H17.4186C17.4186 44.3289 17.5106 43.9457 17.6945 43.5983C17.8784 43.2509 18.1509 42.975 18.512 42.7706C18.873 42.5629 19.3175 42.459 19.8454 42.459C20.3155 42.459 20.7174 42.5424 21.0512 42.7093C21.385 42.8728 21.6404 43.1044 21.8176 43.4042C21.9981 43.7005 22.0883 44.0479 22.0883 44.4464C22.0883 44.6644 22.0509 44.8858 21.9759 45.1106C21.9044 45.332 21.8039 45.5534 21.6745 45.7748C21.5485 45.9962 21.4003 46.2142 21.23 46.4287C21.0631 46.6433 20.8843 46.8545 20.6936 47.0623L18.701 49.2234H22.4307ZM24.4845 45.5704V50H23.5342V44.472H24.4334L24.4845 45.5704ZM24.2904 47.0265L23.851 47.0112C23.8544 46.6331 23.9038 46.284 23.9991 45.9638C24.0945 45.6402 24.2359 45.3592 24.4232 45.1208C24.6105 44.8824 24.8439 44.6985 25.1232 44.569C25.4024 44.4362 25.726 44.3698 26.0939 44.3698C26.3527 44.3698 26.5912 44.4072 26.8092 44.4822C27.0271 44.5537 27.2162 44.6678 27.3763 44.8245C27.5363 44.9812 27.6607 45.1821 27.7492 45.4274C27.8378 45.6726 27.8821 45.9689 27.8821 46.3163V50H26.9369V46.3623C26.9369 46.0728 26.8875 45.8412 26.7887 45.6675C26.6933 45.4938 26.5571 45.3677 26.38 45.2894C26.2029 45.2077 25.9951 45.1668 25.7567 45.1668C25.4774 45.1668 25.2441 45.2162 25.0567 45.315C24.8694 45.4137 24.7195 45.55 24.6071 45.7237C24.4947 45.8974 24.413 46.0966 24.3619 46.3214C24.3142 46.5428 24.2904 46.7779 24.2904 47.0265ZM27.8718 46.5054L27.2383 46.6995C27.2417 46.3964 27.2911 46.1052 27.3865 45.8259C27.4853 45.5466 27.6266 45.2979 27.8105 45.0799C27.9979 44.8619 28.2278 44.6899 28.5003 44.5639C28.7728 44.4345 29.0844 44.3698 29.4352 44.3698C29.7316 44.3698 29.9938 44.4089 30.222 44.4873C30.4536 44.5656 30.6478 44.6865 30.8045 44.85C30.9646 45.0101 31.0855 45.2162 31.1672 45.4682C31.249 45.7203 31.2898 46.02 31.2898 46.3674V50H30.3395V46.3572C30.3395 46.0473 30.2902 45.8071 30.1914 45.6368C30.096 45.4631 29.9598 45.3422 29.7827 45.2741C29.6089 45.2026 29.4012 45.1668 29.1593 45.1668C28.9516 45.1668 28.7676 45.2026 28.6076 45.2741C28.4475 45.3456 28.3129 45.4444 28.2039 45.5704C28.0949 45.693 28.0115 45.8344 27.9536 45.9945C27.8991 46.1545 27.8718 46.3249 27.8718 46.5054Z" fill="#333333"/>
<rect width="33.8965" height="55.6338" rx="5" transform="matrix(-0.00230552 -0.999997 1 -0.000716793 69.162 167.308)" fill="#17120F"/>
<rect width="67.0689" height="54.7863" rx="5" transform="matrix(-0.00230552 -0.999997 1 -0.000716793 177.225 166.786)" fill="#F07C62"/>
<rect width="110.539" height="55.9207" rx="5" transform="matrix(-0.00230552 -0.999997 1 -0.000716793 285.258 167.288)" fill="#17120F"/>
<path d="M22.156 21V13.716H19.204V12.6H26.368V13.716H23.416V21H22.156ZM28.7878 21.12C28.1958 21.12 27.6558 20.98 27.1678 20.7C26.6878 20.42 26.3078 20.04 26.0278 19.56C25.7478 19.08 25.6078 18.544 25.6078 17.952C25.6078 17.36 25.7478 16.824 26.0278 16.344C26.3078 15.864 26.6878 15.484 27.1678 15.204C27.6558 14.916 28.1958 14.772 28.7878 14.772C29.3878 14.772 29.9278 14.916 30.4078 15.204C30.8878 15.484 31.2678 15.864 31.5478 16.344C31.8278 16.824 31.9678 17.36 31.9678 17.952C31.9678 18.544 31.8278 19.08 31.5478 19.56C31.2678 20.04 30.8878 20.42 30.4078 20.7C29.9278 20.98 29.3878 21.12 28.7878 21.12ZM28.7878 20.064C29.1638 20.064 29.5038 19.972 29.8078 19.788C30.1118 19.596 30.3518 19.34 30.5278 19.02C30.7038 18.7 30.7918 18.34 30.7918 17.94C30.7918 17.548 30.6998 17.196 30.5158 16.884C30.3398 16.564 30.0998 16.308 29.7958 16.116C29.4998 15.924 29.1638 15.828 28.7878 15.828C28.4118 15.828 28.0718 15.924 27.7678 16.116C27.4718 16.308 27.2318 16.564 27.0478 16.884C26.8718 17.196 26.7838 17.548 26.7838 17.94C26.7838 18.34 26.8718 18.7 27.0478 19.02C27.2238 19.34 27.4638 19.596 27.7678 19.788C28.0718 19.972 28.4118 20.064 28.7878 20.064ZM35.367 21.108C34.775 21.108 34.323 20.972 34.011 20.7C33.699 20.42 33.543 20.016 33.543 19.488V15.9H32.247V14.892H33.543V13.332L34.731 13.044V14.892H36.531V15.9H34.731V19.212C34.731 19.524 34.799 19.748 34.935 19.884C35.079 20.012 35.311 20.076 35.631 20.076C35.799 20.076 35.947 20.064 36.075 20.04C36.211 20.016 36.355 19.98 36.507 19.932V20.94C36.347 20.996 36.159 21.036 35.943 21.06C35.735 21.092 35.543 21.108 35.367 21.108ZM39.347 21.108C38.907 21.108 38.519 21.032 38.183 20.88C37.847 20.72 37.583 20.5 37.391 20.22C37.199 19.94 37.103 19.616 37.103 19.248C37.103 18.672 37.323 18.22 37.763 17.892C38.203 17.556 38.807 17.388 39.575 17.388C40.175 17.388 40.731 17.504 41.243 17.736V17.088C41.243 16.648 41.115 16.32 40.859 16.104C40.611 15.888 40.243 15.78 39.755 15.78C39.475 15.78 39.183 15.824 38.879 15.912C38.575 15.992 38.235 16.12 37.859 16.296L37.415 15.396C37.879 15.18 38.311 15.024 38.711 14.928C39.111 14.824 39.515 14.772 39.923 14.772C40.715 14.772 41.327 14.96 41.759 15.336C42.199 15.712 42.419 16.248 42.419 16.944V21H41.243V20.472C40.971 20.688 40.679 20.848 40.367 20.952C40.055 21.056 39.715 21.108 39.347 21.108ZM38.255 19.224C38.255 19.52 38.379 19.76 38.627 19.944C38.883 20.128 39.215 20.22 39.623 20.22C39.943 20.22 40.235 20.172 40.499 20.076C40.771 19.98 41.019 19.832 41.243 19.632V18.6C41.011 18.464 40.767 18.368 40.511 18.312C40.263 18.248 39.983 18.216 39.671 18.216C39.231 18.216 38.883 18.308 38.627 18.492C38.379 18.668 38.255 18.912 38.255 19.224ZM43.8018 21V12.6L45.0018 12.372V21H43.8018ZM51.0228 21.12C50.4948 21.12 49.9988 21.044 49.5348 20.892C49.0788 20.732 48.6828 20.508 48.3468 20.22L49.0068 19.428C49.3188 19.676 49.6388 19.868 49.9668 20.004C50.3028 20.132 50.6428 20.196 50.9868 20.196C51.4188 20.196 51.7708 20.112 52.0428 19.944C52.3148 19.776 52.4508 19.556 52.4508 19.284C52.4508 19.06 52.3708 18.884 52.2108 18.756C52.0508 18.628 51.8028 18.54 51.4668 18.492L50.3628 18.336C49.7548 18.248 49.2988 18.06 48.9948 17.772C48.6908 17.484 48.5388 17.1 48.5388 16.62C48.5388 16.252 48.6388 15.932 48.8388 15.66C49.0388 15.38 49.3188 15.164 49.6788 15.012C50.0388 14.852 50.4588 14.772 50.9388 14.772C51.3788 14.772 51.8028 14.836 52.2108 14.964C52.6188 15.092 53.0108 15.292 53.3868 15.564L52.7748 16.356C52.4388 16.132 52.1108 15.968 51.7908 15.864C51.4788 15.76 51.1628 15.708 50.8428 15.708C50.4748 15.708 50.1788 15.788 49.9548 15.948C49.7308 16.1 49.6188 16.3 49.6188 16.548C49.6188 16.772 49.6948 16.948 49.8468 17.076C50.0068 17.196 50.2668 17.28 50.6268 17.328L51.7308 17.484C52.3388 17.572 52.7988 17.76 53.1108 18.048C53.4228 18.328 53.5788 18.708 53.5788 19.188C53.5788 19.556 53.4668 19.888 53.2428 20.184C53.0188 20.472 52.7148 20.7 52.3308 20.868C51.9468 21.036 51.5108 21.12 51.0228 21.12ZM56.4916 21.108C56.0516 21.108 55.6636 21.032 55.3276 20.88C54.9916 20.72 54.7276 20.5 54.5356 20.22C54.3436 19.94 54.2476 19.616 54.2476 19.248C54.2476 18.672 54.4676 18.22 54.9076 17.892C55.3476 17.556 55.9516 17.388 56.7196 17.388C57.3196 17.388 57.8756 17.504 58.3876 17.736V17.088C58.3876 16.648 58.2596 16.32 58.0036 16.104C57.7556 15.888 57.3876 15.78 56.8996 15.78C56.6196 15.78 56.3276 15.824 56.0236 15.912C55.7196 15.992 55.3796 16.12 55.0036 16.296L54.5596 15.396C55.0236 15.18 55.4556 15.024 55.8556 14.928C56.2556 14.824 56.6596 14.772 57.0676 14.772C57.8596 14.772 58.4716 14.96 58.9036 15.336C59.3436 15.712 59.5636 16.248 59.5636 16.944V21H58.3876V20.472C58.1156 20.688 57.8236 20.848 57.5116 20.952C57.1996 21.056 56.8596 21.108 56.4916 21.108ZM55.3996 19.224C55.3996 19.52 55.5236 19.76 55.7716 19.944C56.0276 20.128 56.3596 20.22 56.7676 20.22C57.0876 20.22 57.3796 20.172 57.6436 20.076C57.9156 19.98 58.1636 19.832 58.3876 19.632V18.6C58.1556 18.464 57.9116 18.368 57.6556 18.312C57.4076 18.248 57.1276 18.216 56.8156 18.216C56.3756 18.216 56.0276 18.308 55.7716 18.492C55.5236 18.668 55.3996 18.912 55.3996 19.224ZM60.9463 21V12.6L62.1463 12.372V21H60.9463ZM66.4876 21.108C65.8876 21.108 65.3436 20.968 64.8556 20.688C64.3756 20.408 63.9916 20.028 63.7036 19.548C63.4236 19.068 63.2836 18.532 63.2836 17.94C63.2836 17.356 63.4196 16.828 63.6916 16.356C63.9636 15.876 64.3316 15.496 64.7956 15.216C65.2596 14.928 65.7756 14.784 66.3436 14.784C66.9116 14.784 67.4156 14.928 67.8556 15.216C68.2956 15.496 68.6436 15.88 68.8996 16.368C69.1636 16.848 69.2956 17.392 69.2956 18V18.336H64.4836C64.5476 18.672 64.6716 18.972 64.8556 19.236C65.0476 19.5 65.2876 19.708 65.5756 19.86C65.8716 20.012 66.1916 20.088 66.5356 20.088C66.8316 20.088 67.1156 20.044 67.3876 19.956C67.6676 19.86 67.8996 19.724 68.0836 19.548L68.8516 20.304C68.4916 20.576 68.1196 20.78 67.7356 20.916C67.3596 21.044 66.9436 21.108 66.4876 21.108ZM64.4956 17.436H68.1076C68.0596 17.116 67.9476 16.836 67.7716 16.596C67.6036 16.348 67.3916 16.156 67.1356 16.02C66.8876 15.876 66.6156 15.804 66.3196 15.804C66.0156 15.804 65.7356 15.872 65.4796 16.008C65.2236 16.144 65.0076 16.336 64.8316 16.584C64.6636 16.824 64.5516 17.108 64.4956 17.436ZM72.5971 21.12C72.0691 21.12 71.5731 21.044 71.1091 20.892C70.6531 20.732 70.2571 20.508 69.9211 20.22L70.5811 19.428C70.8931 19.676 71.2131 19.868 71.5411 20.004C71.8771 20.132 72.2171 20.196 72.5611 20.196C72.9931 20.196 73.3451 20.112 73.6171 19.944C73.8891 19.776 74.0251 19.556 74.0251 19.284C74.0251 19.06 73.9451 18.884 73.7851 18.756C73.6251 18.628 73.3771 18.54 73.0411 18.492L71.9371 18.336C71.3291 18.248 70.8731 18.06 70.5691 17.772C70.2651 17.484 70.1131 17.1 70.1131 16.62C70.1131 16.252 70.2131 15.932 70.4131 15.66C70.6131 15.38 70.8931 15.164 71.2531 15.012C71.6131 14.852 72.0331 14.772 72.5131 14.772C72.9531 14.772 73.3771 14.836 73.7851 14.964C74.1931 15.092 74.5851 15.292 74.9611 15.564L74.3491 16.356C74.0131 16.132 73.6851 15.968 73.3651 15.864C73.0531 15.76 72.7371 15.708 72.4171 15.708C72.0491 15.708 71.7531 15.788 71.5291 15.948C71.3051 16.1 71.1931 16.3 71.1931 16.548C71.1931 16.772 71.2691 16.948 71.4211 17.076C71.5811 17.196 71.8411 17.28 72.2011 17.328L73.3051 17.484C73.9131 17.572 74.3731 17.76 74.6851 18.048C74.9971 18.328 75.1531 18.708 75.1531 19.188C75.1531 19.556 75.0411 19.888 74.8171 20.184C74.5931 20.472 74.2891 20.7 73.9051 20.868C73.5211 21.036 73.0851 21.12 72.5971 21.12ZM78.583 21V12.6L79.783 12.372V15.468C80.295 15.02 80.915 14.796 81.643 14.796C82.219 14.796 82.739 14.936 83.203 15.216C83.675 15.496 84.047 15.872 84.319 16.344C84.591 16.816 84.727 17.348 84.727 17.94C84.727 18.532 84.587 19.068 84.307 19.548C84.035 20.02 83.663 20.396 83.191 20.676C82.727 20.956 82.203 21.096 81.619 21.096C81.283 21.096 80.955 21.044 80.635 20.94C80.323 20.828 80.035 20.672 79.771 20.472V21H78.583ZM81.487 20.052C81.879 20.052 82.227 19.96 82.531 19.776C82.843 19.592 83.091 19.344 83.275 19.032C83.459 18.712 83.551 18.352 83.551 17.952C83.551 17.552 83.459 17.192 83.275 16.872C83.091 16.552 82.843 16.3 82.531 16.116C82.227 15.932 81.879 15.84 81.487 15.84C81.143 15.84 80.823 15.904 80.527 16.032C80.231 16.16 79.983 16.34 79.783 16.572V19.332C79.983 19.556 80.231 19.732 80.527 19.86C80.831 19.988 81.151 20.052 81.487 20.052ZM86.1043 23.58C85.9763 23.58 85.8563 23.572 85.7443 23.556C85.6323 23.548 85.5403 23.532 85.4683 23.508V22.452C85.6123 22.484 85.7883 22.5 85.9963 22.5C86.5563 22.5 86.9603 22.2 87.2083 21.6L87.4723 21.012L85.0243 14.892H86.3563L88.1323 19.548L90.1003 14.892H91.3963L88.4443 21.756C88.2523 22.188 88.0483 22.536 87.8323 22.8C87.6163 23.072 87.3683 23.268 87.0883 23.388C86.8083 23.516 86.4803 23.58 86.1043 23.58ZM94.6494 21V14.892H95.8494V15.48C96.3054 15.008 96.8774 14.772 97.5654 14.772C97.9814 14.772 98.3494 14.864 98.6694 15.048C98.9974 15.232 99.2574 15.48 99.4494 15.792C99.7054 15.456 100.005 15.204 100.349 15.036C100.693 14.86 101.081 14.772 101.513 14.772C101.969 14.772 102.365 14.872 102.701 15.072C103.045 15.272 103.313 15.552 103.505 15.912C103.705 16.272 103.805 16.688 103.805 17.16V21H102.605V17.364C102.605 16.884 102.477 16.508 102.221 16.236C101.973 15.956 101.633 15.816 101.201 15.816C100.905 15.816 100.637 15.884 100.397 16.02C100.157 16.156 99.9494 16.364 99.7734 16.644C99.7894 16.724 99.8014 16.808 99.8094 16.896C99.8174 16.984 99.8214 17.072 99.8214 17.16V21H98.6334V17.364C98.6334 16.884 98.5054 16.508 98.2494 16.236C98.0014 15.956 97.6614 15.816 97.2294 15.816C96.9414 15.816 96.6814 15.88 96.4494 16.008C96.2174 16.128 96.0174 16.312 95.8494 16.56V21H94.6494ZM108.089 21.12C107.497 21.12 106.957 20.98 106.469 20.7C105.989 20.42 105.609 20.04 105.329 19.56C105.049 19.08 104.909 18.544 104.909 17.952C104.909 17.36 105.049 16.824 105.329 16.344C105.609 15.864 105.989 15.484 106.469 15.204C106.957 14.916 107.497 14.772 108.089 14.772C108.689 14.772 109.229 14.916 109.709 15.204C110.189 15.484 110.569 15.864 110.849 16.344C111.129 16.824 111.269 17.36 111.269 17.952C111.269 18.544 111.129 19.08 110.849 19.56C110.569 20.04 110.189 20.42 109.709 20.7C109.229 20.98 108.689 21.12 108.089 21.12ZM108.089 20.064C108.465 20.064 108.805 19.972 109.109 19.788C109.413 19.596 109.653 19.34 109.829 19.02C110.005 18.7 110.093 18.34 110.093 17.94C110.093 17.548 110.001 17.196 109.817 16.884C109.641 16.564 109.401 16.308 109.097 16.116C108.801 15.924 108.465 15.828 108.089 15.828C107.713 15.828 107.373 15.924 107.069 16.116C106.773 16.308 106.533 16.564 106.349 16.884C106.173 17.196 106.085 17.548 106.085 17.94C106.085 18.34 106.173 18.7 106.349 19.02C106.525 19.34 106.765 19.596 107.069 19.788C107.373 19.972 107.713 20.064 108.089 20.064ZM112.403 21V14.892H113.603V15.516C114.075 15.02 114.687 14.772 115.439 14.772C115.911 14.772 116.323 14.872 116.675 15.072C117.035 15.272 117.315 15.552 117.515 15.912C117.723 16.272 117.827 16.688 117.827 17.16V21H116.627V17.364C116.627 16.884 116.491 16.508 116.219 16.236C115.955 15.956 115.583 15.816 115.103 15.816C114.783 15.816 114.495 15.884 114.239 16.02C113.983 16.156 113.771 16.352 113.603 16.608V21H112.403ZM121.652 21.108C121.06 21.108 120.608 20.972 120.296 20.7C119.984 20.42 119.828 20.016 119.828 19.488V15.9H118.532V14.892H119.828V13.332L121.016 13.044V14.892H122.816V15.9H121.016V19.212C121.016 19.524 121.084 19.748 121.22 19.884C121.364 20.012 121.596 20.076 121.916 20.076C122.084 20.076 122.232 20.064 122.36 20.04C122.496 20.016 122.64 19.98 122.792 19.932V20.94C122.632 20.996 122.444 21.036 122.228 21.06C122.02 21.092 121.828 21.108 121.652 21.108ZM123.7 21V12.6L124.9 12.336V15.516C125.372 15.02 125.984 14.772 126.736 14.772C127.208 14.772 127.62 14.872 127.972 15.072C128.332 15.272 128.612 15.552 128.812 15.912C129.02 16.272 129.124 16.688 129.124 17.16V21H127.924V17.364C127.924 16.884 127.788 16.508 127.516 16.236C127.244 15.956 126.872 15.816 126.4 15.816C126.08 15.816 125.792 15.884 125.536 16.02C125.28 16.156 125.068 16.352 124.9 16.608V21H123.7Z" fill="black"/>
<path d="M78.4065 180L81.8745 171.6H83.3625L86.7945 180H85.4265L84.4545 177.54H80.6985L79.7145 180H78.4065ZM81.1065 176.496H84.0465L82.5825 172.8L81.1065 176.496ZM89.7048 180.12C89.2328 180.12 88.8168 180.02 88.4568 179.82C88.0968 179.62 87.8168 179.34 87.6168 178.98C87.4168 178.612 87.3168 178.192 87.3168 177.72V173.892H88.5048V177.516C88.5048 177.996 88.6408 178.376 88.9128 178.656C89.1928 178.936 89.5648 179.076 90.0288 179.076C90.3568 179.076 90.6488 179.008 90.9048 178.872C91.1608 178.728 91.3688 178.528 91.5288 178.272V173.892H92.7288V180H91.5288V179.376C91.0568 179.872 90.4488 180.12 89.7048 180.12ZM97.1734 182.568C96.7254 182.568 96.2894 182.516 95.8654 182.412C95.4414 182.308 95.0574 182.16 94.7134 181.968L95.1694 181.032C95.5294 181.216 95.8654 181.348 96.1774 181.428C96.4974 181.516 96.8174 181.56 97.1374 181.56C97.6734 181.56 98.0774 181.436 98.3494 181.188C98.6294 180.94 98.7694 180.576 98.7694 180.096V179.4C98.2334 179.824 97.6214 180.036 96.9334 180.036C96.3734 180.036 95.8574 179.9 95.3854 179.628C94.9214 179.348 94.5534 178.972 94.2814 178.5C94.0094 178.02 93.8734 177.492 93.8734 176.916C93.8734 176.332 94.0094 175.804 94.2814 175.332C94.5614 174.852 94.9334 174.476 95.3974 174.204C95.8694 173.924 96.3974 173.784 96.9814 173.784C97.3094 173.784 97.6254 173.84 97.9294 173.952C98.2414 174.056 98.5254 174.208 98.7814 174.408V173.892H99.9694V180.096C99.9694 180.888 99.7254 181.496 99.2374 181.92C98.7574 182.352 98.0694 182.568 97.1734 182.568ZM97.0894 179.004C97.4414 179.004 97.7614 178.944 98.0494 178.824C98.3374 178.696 98.5774 178.516 98.7694 178.284V175.548C98.5774 175.324 98.3334 175.148 98.0374 175.02C97.7494 174.892 97.4334 174.828 97.0894 174.828C96.7054 174.828 96.3574 174.92 96.0454 175.104C95.7414 175.288 95.4974 175.54 95.3134 175.86C95.1374 176.172 95.0494 176.524 95.0494 176.916C95.0494 177.308 95.1374 177.664 95.3134 177.984C95.4974 178.296 95.7414 178.544 96.0454 178.728C96.3574 178.912 96.7054 179.004 97.0894 179.004ZM103.744 180.12C103.272 180.12 102.856 180.02 102.496 179.82C102.136 179.62 101.856 179.34 101.656 178.98C101.456 178.612 101.356 178.192 101.356 177.72V173.892H102.544V177.516C102.544 177.996 102.68 178.376 102.952 178.656C103.232 178.936 103.604 179.076 104.068 179.076C104.396 179.076 104.688 179.008 104.944 178.872C105.2 178.728 105.408 178.528 105.568 178.272V173.892H106.768V180H105.568V179.376C105.096 179.872 104.488 180.12 103.744 180.12ZM110.288 180.12C109.76 180.12 109.264 180.044 108.8 179.892C108.344 179.732 107.948 179.508 107.612 179.22L108.272 178.428C108.584 178.676 108.904 178.868 109.232 179.004C109.568 179.132 109.908 179.196 110.252 179.196C110.684 179.196 111.036 179.112 111.308 178.944C111.58 178.776 111.716 178.556 111.716 178.284C111.716 178.06 111.636 177.884 111.476 177.756C111.316 177.628 111.068 177.54 110.732 177.492L109.628 177.336C109.02 177.248 108.564 177.06 108.26 176.772C107.956 176.484 107.804 176.1 107.804 175.62C107.804 175.252 107.904 174.932 108.104 174.66C108.304 174.38 108.584 174.164 108.944 174.012C109.304 173.852 109.724 173.772 110.204 173.772C110.644 173.772 111.068 173.836 111.476 173.964C111.884 174.092 112.276 174.292 112.652 174.564L112.04 175.356C111.704 175.132 111.376 174.968 111.056 174.864C110.744 174.76 110.428 174.708 110.108 174.708C109.74 174.708 109.444 174.788 109.22 174.948C108.996 175.1 108.884 175.3 108.884 175.548C108.884 175.772 108.96 175.948 109.112 176.076C109.272 176.196 109.532 176.28 109.892 176.328L110.996 176.484C111.604 176.572 112.064 176.76 112.376 177.048C112.688 177.328 112.844 177.708 112.844 178.188C112.844 178.556 112.732 178.888 112.508 179.184C112.284 179.472 111.98 179.7 111.596 179.868C111.212 180.036 110.776 180.12 110.288 180.12ZM116.265 180.108C115.673 180.108 115.221 179.972 114.909 179.7C114.597 179.42 114.441 179.016 114.441 178.488V174.9H113.145V173.892H114.441V172.332L115.629 172.044V173.892H117.429V174.9H115.629V178.212C115.629 178.524 115.697 178.748 115.833 178.884C115.977 179.012 116.209 179.076 116.529 179.076C116.697 179.076 116.845 179.064 116.973 179.04C117.109 179.016 117.253 178.98 117.405 178.932V179.94C117.245 179.996 117.057 180.036 116.841 180.06C116.633 180.092 116.441 180.108 116.265 180.108Z" fill="black"/>
<path d="M177.747 180.12C177.075 180.12 176.427 179.988 175.803 179.724C175.179 179.46 174.627 179.088 174.147 178.608L174.915 177.72C175.371 178.168 175.835 178.5 176.307 178.716C176.787 178.932 177.287 179.04 177.807 179.04C178.215 179.04 178.571 178.984 178.875 178.872C179.187 178.752 179.427 178.584 179.595 178.368C179.763 178.152 179.847 177.908 179.847 177.636C179.847 177.26 179.715 176.972 179.451 176.772C179.187 176.572 178.751 176.42 178.143 176.316L176.739 176.088C175.971 175.952 175.395 175.704 175.011 175.344C174.635 174.984 174.447 174.504 174.447 173.904C174.447 173.424 174.575 173.004 174.831 172.644C175.087 172.276 175.447 171.992 175.911 171.792C176.383 171.592 176.927 171.492 177.543 171.492C178.151 171.492 178.747 171.592 179.331 171.792C179.923 171.984 180.455 172.264 180.927 172.632L180.231 173.592C179.327 172.904 178.411 172.56 177.483 172.56C177.115 172.56 176.795 172.612 176.523 172.716C176.251 172.82 176.039 172.968 175.887 173.16C175.735 173.344 175.659 173.56 175.659 173.808C175.659 174.152 175.775 174.416 176.007 174.6C176.239 174.776 176.623 174.904 177.159 174.984L178.515 175.212C179.403 175.356 180.055 175.616 180.471 175.992C180.887 176.368 181.095 176.884 181.095 177.54C181.095 178.052 180.955 178.504 180.675 178.896C180.395 179.28 180.003 179.58 179.499 179.796C178.995 180.012 178.411 180.12 177.747 180.12ZM185.163 180.108C184.563 180.108 184.019 179.968 183.531 179.688C183.051 179.408 182.667 179.028 182.379 178.548C182.099 178.068 181.959 177.532 181.959 176.94C181.959 176.356 182.095 175.828 182.367 175.356C182.639 174.876 183.007 174.496 183.471 174.216C183.935 173.928 184.451 173.784 185.019 173.784C185.587 173.784 186.091 173.928 186.531 174.216C186.971 174.496 187.319 174.88 187.575 175.368C187.839 175.848 187.971 176.392 187.971 177V177.336H183.159C183.223 177.672 183.347 177.972 183.531 178.236C183.723 178.5 183.963 178.708 184.251 178.86C184.547 179.012 184.867 179.088 185.211 179.088C185.507 179.088 185.791 179.044 186.063 178.956C186.343 178.86 186.575 178.724 186.759 178.548L187.527 179.304C187.167 179.576 186.795 179.78 186.411 179.916C186.035 180.044 185.619 180.108 185.163 180.108ZM183.171 176.436H186.783C186.735 176.116 186.623 175.836 186.447 175.596C186.279 175.348 186.067 175.156 185.811 175.02C185.563 174.876 185.291 174.804 184.995 174.804C184.691 174.804 184.411 174.872 184.155 175.008C183.899 175.144 183.683 175.336 183.507 175.584C183.339 175.824 183.227 176.108 183.171 176.436ZM189.114 182.448V173.892H190.302V174.48C190.814 174.024 191.438 173.796 192.174 173.796C192.75 173.796 193.27 173.936 193.734 174.216C194.206 174.496 194.578 174.872 194.85 175.344C195.122 175.816 195.258 176.348 195.258 176.94C195.258 177.532 195.118 178.068 194.838 178.548C194.566 179.02 194.194 179.396 193.722 179.676C193.258 179.956 192.734 180.096 192.15 180.096C191.814 180.096 191.49 180.044 191.178 179.94C190.866 179.828 190.578 179.672 190.314 179.472V182.448H189.114ZM192.018 179.052C192.41 179.052 192.758 178.96 193.062 178.776C193.374 178.592 193.622 178.344 193.806 178.032C193.99 177.712 194.082 177.352 194.082 176.952C194.082 176.552 193.99 176.192 193.806 175.872C193.622 175.552 193.374 175.3 193.062 175.116C192.758 174.932 192.41 174.84 192.018 174.84C191.674 174.84 191.354 174.904 191.058 175.032C190.762 175.16 190.514 175.34 190.314 175.572V178.332C190.514 178.556 190.762 178.732 191.058 178.86C191.362 178.988 191.682 179.052 192.018 179.052ZM198.668 180.108C198.076 180.108 197.624 179.972 197.312 179.7C197 179.42 196.844 179.016 196.844 178.488V174.9H195.548V173.892H196.844V172.332L198.032 172.044V173.892H199.832V174.9H198.032V178.212C198.032 178.524 198.1 178.748 198.236 178.884C198.38 179.012 198.612 179.076 198.932 179.076C199.1 179.076 199.248 179.064 199.376 179.04C199.512 179.016 199.656 178.98 199.808 178.932V179.94C199.648 179.996 199.46 180.036 199.244 180.06C199.036 180.092 198.844 180.108 198.668 180.108ZM203.55 180.108C202.95 180.108 202.406 179.968 201.918 179.688C201.438 179.408 201.054 179.028 200.766 178.548C200.486 178.068 200.346 177.532 200.346 176.94C200.346 176.356 200.482 175.828 200.754 175.356C201.026 174.876 201.394 174.496 201.858 174.216C202.322 173.928 202.838 173.784 203.406 173.784C203.974 173.784 204.478 173.928 204.918 174.216C205.358 174.496 205.706 174.88 205.962 175.368C206.226 175.848 206.358 176.392 206.358 177V177.336H201.546C201.61 177.672 201.734 177.972 201.918 178.236C202.11 178.5 202.35 178.708 202.638 178.86C202.934 179.012 203.254 179.088 203.598 179.088C203.894 179.088 204.178 179.044 204.45 178.956C204.73 178.86 204.962 178.724 205.146 178.548L205.914 179.304C205.554 179.576 205.182 179.78 204.798 179.916C204.422 180.044 204.006 180.108 203.55 180.108ZM201.558 176.436H205.17C205.122 176.116 205.01 175.836 204.834 175.596C204.666 175.348 204.454 175.156 204.198 175.02C203.95 174.876 203.678 174.804 203.382 174.804C203.078 174.804 202.798 174.872 202.542 175.008C202.286 175.144 202.07 175.336 201.894 175.584C201.726 175.824 201.614 176.108 201.558 176.436ZM207.501 180V173.892H208.701V174.48C209.157 174.008 209.729 173.772 210.417 173.772C210.833 173.772 211.201 173.864 211.521 174.048C211.849 174.232 212.109 174.48 212.301 174.792C212.557 174.456 212.857 174.204 213.201 174.036C213.545 173.86 213.933 173.772 214.365 173.772C214.821 173.772 215.217 173.872 215.553 174.072C215.897 174.272 216.165 174.552 216.357 174.912C216.557 175.272 216.657 175.688 216.657 176.16V180H215.457V176.364C215.457 175.884 215.329 175.508 215.073 175.236C214.825 174.956 214.485 174.816 214.053 174.816C213.757 174.816 213.489 174.884 213.249 175.02C213.009 175.156 212.801 175.364 212.625 175.644C212.641 175.724 212.653 175.808 212.661 175.896C212.669 175.984 212.673 176.072 212.673 176.16V180H211.485V176.364C211.485 175.884 211.357 175.508 211.101 175.236C210.853 174.956 210.513 174.816 210.081 174.816C209.793 174.816 209.533 174.88 209.301 175.008C209.069 175.128 208.869 175.312 208.701 175.56V180H207.501ZM218.036 180V171.6L219.236 171.372V174.468C219.748 174.02 220.368 173.796 221.096 173.796C221.672 173.796 222.192 173.936 222.656 174.216C223.128 174.496 223.5 174.872 223.772 175.344C224.044 175.816 224.18 176.348 224.18 176.94C224.18 177.532 224.04 178.068 223.76 178.548C223.488 179.02 223.116 179.396 222.644 179.676C222.18 179.956 221.656 180.096 221.072 180.096C220.736 180.096 220.408 180.044 220.088 179.94C219.776 179.828 219.488 179.672 219.224 179.472V180H218.036ZM220.94 179.052C221.332 179.052 221.68 178.96 221.984 178.776C222.296 178.592 222.544 178.344 222.728 178.032C222.912 177.712 223.004 177.352 223.004 176.952C223.004 176.552 222.912 176.192 222.728 175.872C222.544 175.552 222.296 175.3 221.984 175.116C221.68 174.932 221.332 174.84 220.94 174.84C220.596 174.84 220.276 174.904 219.98 175.032C219.684 175.16 219.436 175.34 219.236 175.572V178.332C219.436 178.556 219.684 178.732 219.98 178.86C220.284 178.988 220.604 179.052 220.94 179.052ZM228.253 180.108C227.653 180.108 227.109 179.968 226.621 179.688C226.141 179.408 225.757 179.028 225.469 178.548C225.189 178.068 225.049 177.532 225.049 176.94C225.049 176.356 225.185 175.828 225.457 175.356C225.729 174.876 226.097 174.496 226.561 174.216C227.025 173.928 227.541 173.784 228.109 173.784C228.677 173.784 229.181 173.928 229.621 174.216C230.061 174.496 230.409 174.88 230.665 175.368C230.929 175.848 231.061 176.392 231.061 177V177.336H226.249C226.313 177.672 226.437 177.972 226.621 178.236C226.813 178.5 227.053 178.708 227.341 178.86C227.637 179.012 227.957 179.088 228.301 179.088C228.597 179.088 228.881 179.044 229.153 178.956C229.433 178.86 229.665 178.724 229.849 178.548L230.617 179.304C230.257 179.576 229.885 179.78 229.501 179.916C229.125 180.044 228.709 180.108 228.253 180.108ZM226.261 176.436H229.873C229.825 176.116 229.713 175.836 229.537 175.596C229.369 175.348 229.157 175.156 228.901 175.02C228.653 174.876 228.381 174.804 228.085 174.804C227.781 174.804 227.501 174.872 227.245 175.008C226.989 175.144 226.773 175.336 226.597 175.584C226.429 175.824 226.317 176.108 226.261 176.436ZM232.204 180V173.892H233.404V174.672C233.596 174.384 233.832 174.16 234.112 174C234.4 173.832 234.724 173.748 235.084 173.748C235.332 173.756 235.536 173.792 235.696 173.856V174.936C235.584 174.888 235.468 174.856 235.348 174.84C235.228 174.816 235.108 174.804 234.988 174.804C234.636 174.804 234.324 174.9 234.052 175.092C233.78 175.276 233.564 175.548 233.404 175.908V180H232.204Z" fill="black"/>
<path d="M296.11 180.132C295.502 180.132 294.934 180.024 294.406 179.808C293.878 179.584 293.41 179.276 293.002 178.884C292.602 178.484 292.29 178.024 292.066 177.504C291.85 176.976 291.742 176.408 291.742 175.8C291.742 175.192 291.85 174.628 292.066 174.108C292.29 173.58 292.602 173.12 293.002 172.728C293.41 172.328 293.878 172.02 294.406 171.804C294.934 171.58 295.502 171.468 296.11 171.468C296.718 171.468 297.286 171.58 297.814 171.804C298.35 172.02 298.818 172.328 299.218 172.728C299.618 173.12 299.93 173.58 300.154 174.108C300.378 174.628 300.49 175.192 300.49 175.8C300.49 176.408 300.378 176.976 300.154 177.504C299.93 178.024 299.618 178.484 299.218 178.884C298.818 179.276 298.35 179.584 297.814 179.808C297.286 180.024 296.718 180.132 296.11 180.132ZM296.122 178.968C296.554 178.968 296.954 178.888 297.322 178.728C297.698 178.568 298.026 178.348 298.306 178.068C298.586 177.78 298.806 177.444 298.966 177.06C299.126 176.668 299.206 176.248 299.206 175.8C299.206 175.344 299.126 174.924 298.966 174.54C298.806 174.156 298.586 173.824 298.306 173.544C298.026 173.256 297.698 173.032 297.322 172.872C296.954 172.712 296.554 172.632 296.122 172.632C295.682 172.632 295.274 172.712 294.898 172.872C294.522 173.032 294.194 173.256 293.914 173.544C293.634 173.824 293.414 174.156 293.254 174.54C293.102 174.924 293.026 175.344 293.026 175.8C293.026 176.248 293.102 176.668 293.254 177.06C293.414 177.444 293.634 177.78 293.914 178.068C294.194 178.348 294.522 178.568 294.898 178.728C295.274 178.888 295.682 178.968 296.122 178.968ZM304.541 180.108C303.957 180.108 303.425 179.968 302.945 179.688C302.465 179.408 302.085 179.028 301.805 178.548C301.533 178.068 301.397 177.532 301.397 176.94C301.397 176.348 301.537 175.816 301.817 175.344C302.097 174.864 302.473 174.484 302.945 174.204C303.425 173.916 303.957 173.772 304.541 173.772C305.005 173.772 305.449 173.86 305.873 174.036C306.305 174.212 306.677 174.46 306.989 174.78L306.245 175.608C306.013 175.352 305.753 175.16 305.465 175.032C305.177 174.904 304.877 174.84 304.565 174.84C304.197 174.84 303.861 174.932 303.557 175.116C303.261 175.3 303.025 175.552 302.849 175.872C302.673 176.192 302.585 176.548 302.585 176.94C302.585 177.332 302.673 177.688 302.849 178.008C303.025 178.328 303.265 178.584 303.569 178.776C303.873 178.96 304.213 179.052 304.589 179.052C304.901 179.052 305.193 178.992 305.465 178.872C305.737 178.744 305.993 178.56 306.233 178.32L306.965 179.088C306.645 179.416 306.273 179.668 305.849 179.844C305.433 180.02 304.997 180.108 304.541 180.108ZM310.664 180.108C310.072 180.108 309.62 179.972 309.308 179.7C308.996 179.42 308.84 179.016 308.84 178.488V174.9H307.544V173.892H308.84V172.332L310.028 172.044V173.892H311.828V174.9H310.028V178.212C310.028 178.524 310.096 178.748 310.232 178.884C310.376 179.012 310.608 179.076 310.928 179.076C311.096 179.076 311.244 179.064 311.372 179.04C311.508 179.016 311.652 178.98 311.804 178.932V179.94C311.644 179.996 311.456 180.036 311.24 180.06C311.032 180.092 310.84 180.108 310.664 180.108ZM315.522 180.12C314.93 180.12 314.39 179.98 313.902 179.7C313.422 179.42 313.042 179.04 312.762 178.56C312.482 178.08 312.342 177.544 312.342 176.952C312.342 176.36 312.482 175.824 312.762 175.344C313.042 174.864 313.422 174.484 313.902 174.204C314.39 173.916 314.93 173.772 315.522 173.772C316.122 173.772 316.662 173.916 317.142 174.204C317.622 174.484 318.002 174.864 318.282 175.344C318.562 175.824 318.702 176.36 318.702 176.952C318.702 177.544 318.562 178.08 318.282 178.56C318.002 179.04 317.622 179.42 317.142 179.7C316.662 179.98 316.122 180.12 315.522 180.12ZM315.522 179.064C315.898 179.064 316.238 178.972 316.542 178.788C316.846 178.596 317.086 178.34 317.262 178.02C317.438 177.7 317.526 177.34 317.526 176.94C317.526 176.548 317.434 176.196 317.25 175.884C317.074 175.564 316.834 175.308 316.53 175.116C316.234 174.924 315.898 174.828 315.522 174.828C315.146 174.828 314.806 174.924 314.502 175.116C314.206 175.308 313.966 175.564 313.782 175.884C313.606 176.196 313.518 176.548 313.518 176.94C313.518 177.34 313.606 177.7 313.782 178.02C313.958 178.34 314.198 178.596 314.502 178.788C314.806 178.972 315.146 179.064 315.522 179.064ZM319.837 180V171.6L321.037 171.372V174.468C321.549 174.02 322.169 173.796 322.897 173.796C323.473 173.796 323.993 173.936 324.457 174.216C324.929 174.496 325.301 174.872 325.573 175.344C325.845 175.816 325.981 176.348 325.981 176.94C325.981 177.532 325.841 178.068 325.561 178.548C325.289 179.02 324.917 179.396 324.445 179.676C323.981 179.956 323.457 180.096 322.873 180.096C322.537 180.096 322.209 180.044 321.889 179.94C321.577 179.828 321.289 179.672 321.025 179.472V180H319.837ZM322.741 179.052C323.133 179.052 323.481 178.96 323.785 178.776C324.097 178.592 324.345 178.344 324.529 178.032C324.713 177.712 324.805 177.352 324.805 176.952C324.805 176.552 324.713 176.192 324.529 175.872C324.345 175.552 324.097 175.3 323.785 175.116C323.481 174.932 323.133 174.84 322.741 174.84C322.397 174.84 322.077 174.904 321.781 175.032C321.485 175.16 321.237 175.34 321.037 175.572V178.332C321.237 178.556 321.485 178.732 321.781 178.86C322.085 178.988 322.405 179.052 322.741 179.052ZM330.054 180.108C329.454 180.108 328.91 179.968 328.422 179.688C327.942 179.408 327.558 179.028 327.27 178.548C326.99 178.068 326.85 177.532 326.85 176.94C326.85 176.356 326.986 175.828 327.258 175.356C327.53 174.876 327.898 174.496 328.362 174.216C328.826 173.928 329.342 173.784 329.91 173.784C330.478 173.784 330.982 173.928 331.422 174.216C331.862 174.496 332.21 174.88 332.466 175.368C332.73 175.848 332.862 176.392 332.862 177V177.336H328.05C328.114 177.672 328.238 177.972 328.422 178.236C328.614 178.5 328.854 178.708 329.142 178.86C329.438 179.012 329.758 179.088 330.102 179.088C330.398 179.088 330.682 179.044 330.954 178.956C331.234 178.86 331.466 178.724 331.65 178.548L332.418 179.304C332.058 179.576 331.686 179.78 331.302 179.916C330.926 180.044 330.51 180.108 330.054 180.108ZM328.062 176.436H331.674C331.626 176.116 331.514 175.836 331.338 175.596C331.17 175.348 330.958 175.156 330.702 175.02C330.454 174.876 330.182 174.804 329.886 174.804C329.582 174.804 329.302 174.872 329.046 175.008C328.79 175.144 328.574 175.336 328.398 175.584C328.23 175.824 328.118 176.108 328.062 176.436ZM334.005 180V173.892H335.205V174.672C335.397 174.384 335.633 174.16 335.913 174C336.201 173.832 336.525 173.748 336.885 173.748C337.133 173.756 337.337 173.792 337.497 173.856V174.936C337.385 174.888 337.269 174.856 337.149 174.84C337.029 174.816 336.909 174.804 336.789 174.804C336.437 174.804 336.125 174.9 335.853 175.092C335.581 175.276 335.365 175.548 335.205 175.908V180H334.005Z" fill="black"/>
<defs>
<filter id="filter0_d_1_646" x="0.00769234" y="0.0153847" width="389.938" height="203.938" filterUnits="userSpaceOnUse" color-interpolation-filters="sRGB">
<feFlood flood-opacity="0" result="BackgroundImageFix"/>
<feColorMatrix in="SourceAlpha" type="matrix" values="0 0 0 0 0 0 0 0 0 0 0 0 0 0 0 0 0 0 127 0" result="hardAlpha"/>
<feOffset dx="5.97692" dy="3.98462"/>
<feGaussianBlur stdDeviation="3.98462"/>
<feComposite in2="hardAlpha" operator="out"/>
<feColorMatrix type="matrix" values="0 0 0 0 0 0 0 0 0 0 0 0 0 0 0 0 0 0 0.25 0"/>
<feBlend mode="normal" in2="BackgroundImageFix" result="effect1_dropShadow_1_646"/>
<feBlend mode="normal" in="SourceGraphic" in2="effect1_dropShadow_1_646" result="shape"/>
</filter>
</defs>
</svg>
