<svg width="390" height="204" viewBox="0 0 390 204" fill="none" xmlns="http://www.w3.org/2000/svg">
<g filter="url(#filter0_d_1_666)">
<path d="M2 13.9615C2 8.45992 6.45993 4 11.9615 4H366.038C371.54 4 376 8.45993 376 13.9615V182.038C376 187.54 371.54 192 366.038 192H11.9616C6.45995 192 2 187.54 2 182.038V13.9615Z" fill="white"/>
</g>
<path d="M31.4022 176.688V177.822C31.4022 178.432 31.3477 178.946 31.2387 179.365C31.1297 179.784 30.9731 180.121 30.7687 180.377C30.5643 180.632 30.3174 180.818 30.0279 180.934C29.7418 181.046 29.4182 181.102 29.0572 181.102C28.771 181.102 28.5071 181.066 28.2652 180.995C28.0234 180.923 27.8054 180.809 27.6113 180.653C27.4205 180.492 27.2571 180.285 27.1208 180.029C26.9846 179.774 26.8807 179.464 26.8092 179.099C26.7376 178.735 26.7019 178.309 26.7019 177.822V176.688C26.7019 176.078 26.7564 175.567 26.8654 175.155C26.9778 174.743 27.1361 174.413 27.3405 174.164C27.5449 173.912 27.7901 173.731 28.0762 173.622C28.3657 173.513 28.6893 173.459 29.0469 173.459C29.3365 173.459 29.6021 173.495 29.844 173.566C30.0892 173.634 30.3072 173.745 30.4979 173.898C30.6887 174.048 30.8505 174.249 30.9833 174.501C31.1195 174.75 31.2234 175.055 31.2949 175.416C31.3665 175.777 31.4022 176.201 31.4022 176.688ZM30.4519 177.975V176.53C30.4519 176.196 30.4315 175.903 30.3906 175.651C30.3532 175.395 30.297 175.177 30.222 174.997C30.1471 174.816 30.0517 174.67 29.9359 174.557C29.8235 174.445 29.6924 174.363 29.5425 174.312C29.3961 174.258 29.2309 174.23 29.0469 174.23C28.8221 174.23 28.6229 174.273 28.4492 174.358C28.2755 174.44 28.129 174.571 28.0098 174.752C27.894 174.932 27.8054 175.169 27.7441 175.462C27.6828 175.755 27.6522 176.111 27.6522 176.53V177.975C27.6522 178.309 27.6709 178.604 27.7084 178.859C27.7492 179.115 27.8088 179.336 27.8872 179.523C27.9655 179.707 28.0609 179.859 28.1733 179.978C28.2857 180.097 28.4151 180.186 28.5616 180.244C28.7114 180.298 28.8766 180.326 29.0572 180.326C29.2888 180.326 29.4914 180.281 29.6651 180.193C29.8389 180.104 29.9836 179.966 30.0994 179.779C30.2186 179.588 30.3072 179.345 30.3651 179.048C30.423 178.749 30.4519 178.391 30.4519 177.975Z" fill="#333333"/>
<path d="M20.4177 147.223V148H15.5487V147.32L17.9857 144.608C18.2855 144.274 18.5171 143.991 18.6806 143.759C18.8475 143.524 18.9633 143.315 19.028 143.131C19.0961 142.944 19.1302 142.753 19.1302 142.559C19.1302 142.314 19.0791 142.092 18.9769 141.895C18.8781 141.694 18.7317 141.534 18.5375 141.414C18.3434 141.295 18.1084 141.236 17.8325 141.236C17.5021 141.236 17.2262 141.3 17.0048 141.43C16.7868 141.556 16.6233 141.733 16.5143 141.961C16.4053 142.189 16.3508 142.452 16.3508 142.748H15.4056C15.4056 142.329 15.4976 141.946 15.6815 141.598C15.8655 141.251 16.1379 140.975 16.499 140.771C16.86 140.563 17.3045 140.459 17.8325 140.459C18.3025 140.459 18.7044 140.542 19.0382 140.709C19.372 140.873 19.6275 141.104 19.8046 141.404C19.9851 141.7 20.0754 142.048 20.0754 142.446C20.0754 142.664 20.0379 142.886 19.963 143.111C19.8914 143.332 19.791 143.553 19.6615 143.775C19.5355 143.996 19.3873 144.214 19.217 144.429C19.0501 144.643 18.8713 144.854 18.6806 145.062L16.688 147.223H20.4177ZM22.6248 144.459L21.8687 144.265L22.2416 140.561H26.0581V141.435H23.0437L22.8189 143.458C22.9552 143.38 23.1272 143.306 23.335 143.238C23.5461 143.17 23.788 143.136 24.0605 143.136C24.4045 143.136 24.7127 143.196 24.9852 143.315C25.2577 143.431 25.4893 143.598 25.68 143.816C25.8742 144.034 26.0224 144.296 26.1245 144.602C26.2267 144.909 26.2778 145.251 26.2778 145.629C26.2778 145.987 26.2284 146.316 26.1296 146.615C26.0343 146.915 25.8895 147.177 25.6954 147.402C25.5012 147.624 25.256 147.796 24.9597 147.918C24.6667 148.041 24.321 148.102 23.9225 148.102C23.6228 148.102 23.3384 148.061 23.0693 147.98C22.8036 147.894 22.5652 147.767 22.354 147.596C22.1462 147.423 21.9759 147.208 21.8431 146.953C21.7137 146.694 21.6319 146.391 21.5979 146.043H22.4971C22.5379 146.323 22.6197 146.558 22.7423 146.748C22.8649 146.939 23.025 147.084 23.2226 147.183C23.4235 147.278 23.6568 147.326 23.9225 147.326C24.1473 147.326 24.3466 147.286 24.5203 147.208C24.694 147.13 24.8404 147.017 24.9597 146.871C25.0789 146.724 25.1691 146.547 25.2304 146.34C25.2952 146.132 25.3275 145.898 25.3275 145.64C25.3275 145.405 25.2952 145.187 25.2304 144.986C25.1657 144.785 25.0687 144.609 24.9392 144.459C24.8132 144.31 24.6582 144.194 24.4743 144.112C24.2904 144.027 24.0792 143.984 23.8408 143.984C23.524 143.984 23.2839 144.027 23.1204 144.112C22.9603 144.197 22.7951 144.313 22.6248 144.459ZM28.3674 140.152V148H27.4171V140.152H28.3674ZM31.7445 142.472L29.3331 145.052L27.9842 146.452L27.9076 145.445L28.8732 144.291L30.5899 142.472H31.7445ZM30.8811 148L28.909 145.364L29.3995 144.521L31.9949 148H30.8811Z" fill="#333333"/>
<path d="M16.7391 111.459L15.983 111.265L16.3559 107.561H20.1724V108.435H17.1581L16.9333 110.458C17.0695 110.38 17.2415 110.306 17.4493 110.238C17.6605 110.17 17.9023 110.136 18.1748 110.136C18.5188 110.136 18.827 110.196 19.0995 110.315C19.372 110.431 19.6036 110.598 19.7944 110.816C19.9885 111.034 20.1367 111.296 20.2388 111.602C20.341 111.909 20.3921 112.251 20.3921 112.629C20.3921 112.987 20.3427 113.316 20.244 113.615C20.1486 113.915 20.0038 114.177 19.8097 114.402C19.6155 114.624 19.3703 114.796 19.074 114.918C18.7811 115.041 18.4353 115.102 18.0368 115.102C17.7371 115.102 17.4527 115.061 17.1836 114.98C16.9179 114.894 16.6795 114.767 16.4683 114.596C16.2606 114.423 16.0903 114.208 15.9574 113.953C15.828 113.694 15.7462 113.391 15.7122 113.043H16.6114C16.6523 113.323 16.734 113.558 16.8566 113.748C16.9792 113.939 17.1393 114.084 17.3369 114.183C17.5378 114.278 17.7712 114.326 18.0368 114.326C18.2616 114.326 18.4609 114.286 18.6346 114.208C18.8083 114.13 18.9548 114.017 19.074 113.871C19.1932 113.724 19.2834 113.547 19.3448 113.34C19.4095 113.132 19.4418 112.898 19.4418 112.64C19.4418 112.405 19.4095 112.187 19.3448 111.986C19.28 111.785 19.183 111.609 19.0535 111.459C18.9275 111.31 18.7725 111.194 18.5886 111.112C18.4047 111.027 18.1935 110.984 17.9551 110.984C17.6383 110.984 17.3982 111.027 17.2347 111.112C17.0746 111.197 16.9094 111.313 16.7391 111.459ZM26.099 110.688V111.822C26.099 112.432 26.0445 112.946 25.9355 113.365C25.8265 113.784 25.6698 114.121 25.4655 114.377C25.2611 114.632 25.0142 114.818 24.7246 114.934C24.4385 115.046 24.115 115.102 23.7539 115.102C23.4678 115.102 23.2038 115.066 22.962 114.995C22.7202 114.923 22.5022 114.809 22.308 114.653C22.1173 114.492 21.9538 114.285 21.8176 114.029C21.6813 113.774 21.5774 113.464 21.5059 113.099C21.4344 112.735 21.3986 112.309 21.3986 111.822V110.688C21.3986 110.078 21.4531 109.567 21.5621 109.155C21.6745 108.743 21.8329 108.413 22.0373 108.164C22.2416 107.912 22.4869 107.731 22.773 107.622C23.0625 107.513 23.3861 107.459 23.7437 107.459C24.0332 107.459 24.2989 107.495 24.5407 107.566C24.786 107.634 25.0039 107.745 25.1947 107.898C25.3854 108.048 25.5472 108.249 25.68 108.501C25.8163 108.75 25.9202 109.055 25.9917 109.416C26.0632 109.777 26.099 110.201 26.099 110.688ZM25.1487 111.975V110.53C25.1487 110.196 25.1283 109.903 25.0874 109.651C25.0499 109.395 24.9937 109.177 24.9188 108.997C24.8439 108.816 24.7485 108.67 24.6327 108.557C24.5203 108.445 24.3891 108.363 24.2393 108.312C24.0928 108.258 23.9276 108.23 23.7437 108.23C23.5189 108.23 23.3196 108.273 23.1459 108.358C22.9722 108.44 22.8258 108.571 22.7065 108.752C22.5907 108.932 22.5022 109.169 22.4409 109.462C22.3796 109.755 22.3489 110.111 22.3489 110.53V111.975C22.3489 112.309 22.3676 112.604 22.4051 112.859C22.446 113.115 22.5056 113.336 22.5839 113.523C22.6623 113.707 22.7576 113.859 22.87 113.978C22.9824 114.097 23.1119 114.186 23.2583 114.244C23.4082 114.298 23.5734 114.326 23.7539 114.326C23.9855 114.326 24.1882 114.281 24.3619 114.193C24.5356 114.104 24.6804 113.966 24.7962 113.779C24.9154 113.588 25.0039 113.345 25.0618 113.048C25.1197 112.749 25.1487 112.391 25.1487 111.975ZM28.3674 107.152V115H27.4171V107.152H28.3674ZM31.7445 109.472L29.3331 112.052L27.9842 113.452L27.9076 112.445L28.8732 111.291L30.5899 109.472H31.7445ZM30.8811 115L28.909 112.364L29.3995 111.521L31.9949 115H30.8811Z" fill="#333333"/>
<path d="M20.3512 75.5611V76.0925L17.2705 83H16.2742L19.3499 76.3377H15.3239V75.5611H20.3512ZM22.6248 79.4594L21.8687 79.2652L22.2416 75.5611H26.0581V76.4348H23.0437L22.8189 78.458C22.9552 78.3797 23.1272 78.3064 23.335 78.2383C23.5461 78.1702 23.788 78.1361 24.0605 78.1361C24.4045 78.1361 24.7127 78.1957 24.9852 78.315C25.2577 78.4308 25.4893 78.5977 25.68 78.8156C25.8742 79.0336 26.0224 79.2959 26.1245 79.6024C26.2267 79.909 26.2778 80.2513 26.2778 80.6294C26.2778 80.987 26.2284 81.3157 26.1296 81.6154C26.0343 81.9152 25.8895 82.1774 25.6954 82.4022C25.5012 82.6236 25.256 82.7956 24.9597 82.9183C24.6667 83.0409 24.321 83.1022 23.9225 83.1022C23.6228 83.1022 23.3384 83.0613 23.0693 82.9796C22.8036 82.8944 22.5652 82.7667 22.354 82.5964C22.1462 82.4227 21.9759 82.2081 21.8431 81.9526C21.7137 81.6938 21.6319 81.3906 21.5979 81.0432H22.4971C22.5379 81.3225 22.6197 81.5575 22.7423 81.7483C22.8649 81.939 23.025 82.0838 23.2226 82.1825C23.4235 82.2779 23.6568 82.3256 23.9225 82.3256C24.1473 82.3256 24.3466 82.2864 24.5203 82.2081C24.694 82.1297 24.8404 82.0173 24.9597 81.8709C25.0789 81.7244 25.1691 81.5473 25.2304 81.3395C25.2952 81.1318 25.3275 80.8985 25.3275 80.6396C25.3275 80.4046 25.2952 80.1866 25.2304 79.9856C25.1657 79.7847 25.0687 79.6093 24.9392 79.4594C24.8132 79.3095 24.6582 79.1937 24.4743 79.112C24.2904 79.0268 24.0792 78.9842 23.8408 78.9842C23.524 78.9842 23.2839 79.0268 23.1204 79.112C22.9603 79.1971 22.7951 79.3129 22.6248 79.4594ZM28.3674 75.1524V83H27.4171V75.1524H28.3674ZM31.7445 77.472L29.3331 80.052L27.9842 81.4519L27.9076 80.4454L28.8732 79.2908L30.5899 77.472H31.7445ZM30.8811 83L28.909 80.3637L29.3995 79.5207L31.9949 83H30.8811Z" fill="#333333"/>
<path d="M12.7642 42.5203V50H11.8191V43.7005L9.91336 44.3953V43.5421L12.6161 42.5203H12.7642ZM20.2133 45.6879V46.8221C20.2133 47.4318 20.1588 47.9461 20.0498 48.3651C19.9408 48.784 19.7841 49.1212 19.5798 49.3767C19.3754 49.6321 19.1285 49.8178 18.839 49.9336C18.5528 50.046 18.2293 50.1022 17.8682 50.1022C17.5821 50.1022 17.3181 50.0664 17.0763 49.9949C16.8345 49.9234 16.6165 49.8093 16.4224 49.6526C16.2316 49.4925 16.0681 49.2847 15.9319 49.0293C15.7956 48.7738 15.6917 48.4639 15.6202 48.0994C15.5487 47.735 15.5129 47.3092 15.5129 46.8221V45.6879C15.5129 45.0782 15.5674 44.5673 15.6764 44.1552C15.7888 43.7431 15.9472 43.4127 16.1516 43.164C16.3559 42.912 16.6012 42.7315 16.8873 42.6225C17.1768 42.5135 17.5004 42.459 17.858 42.459C18.1475 42.459 18.4132 42.4947 18.655 42.5663C18.9003 42.6344 19.1183 42.7451 19.309 42.8983C19.4997 43.0482 19.6615 43.2492 19.7944 43.5012C19.9306 43.7499 20.0345 44.0547 20.106 44.4158C20.1775 44.7768 20.2133 45.2009 20.2133 45.6879ZM19.263 46.9754V45.5295C19.263 45.1957 19.2426 44.9028 19.2017 44.6508C19.1642 44.3953 19.108 44.1773 19.0331 43.9968C18.9582 43.8163 18.8628 43.6698 18.747 43.5574C18.6346 43.445 18.5035 43.3633 18.3536 43.3122C18.2071 43.2577 18.0419 43.2304 17.858 43.2304C17.6332 43.2304 17.434 43.273 17.2602 43.3582C17.0865 43.4399 16.9401 43.571 16.8209 43.7516C16.7051 43.9321 16.6165 44.1688 16.5552 44.4617C16.4939 44.7547 16.4632 45.1106 16.4632 45.5295V46.9754C16.4632 47.3092 16.482 47.6038 16.5194 47.8593C16.5603 48.1147 16.6199 48.3361 16.6982 48.5235C16.7766 48.7074 16.872 48.859 16.9844 48.9782C17.0968 49.0974 17.2262 49.1859 17.3726 49.2439C17.5225 49.2984 17.6877 49.3256 17.8682 49.3256C18.0998 49.3256 18.3025 49.2813 18.4762 49.1928C18.6499 49.1042 18.7947 48.9663 18.9105 48.7789C19.0297 48.5882 19.1183 48.3447 19.1762 48.0483C19.2341 47.7486 19.263 47.391 19.263 46.9754ZM26.099 45.6879V46.8221C26.099 47.4318 26.0445 47.9461 25.9355 48.3651C25.8265 48.784 25.6698 49.1212 25.4655 49.3767C25.2611 49.6321 25.0142 49.8178 24.7246 49.9336C24.4385 50.046 24.115 50.1022 23.7539 50.1022C23.4678 50.1022 23.2038 50.0664 22.962 49.9949C22.7202 49.9234 22.5022 49.8093 22.308 49.6526C22.1173 49.4925 21.9538 49.2847 21.8176 49.0293C21.6813 48.7738 21.5774 48.4639 21.5059 48.0994C21.4344 47.735 21.3986 47.3092 21.3986 46.8221V45.6879C21.3986 45.0782 21.4531 44.5673 21.5621 44.1552C21.6745 43.7431 21.8329 43.4127 22.0373 43.164C22.2416 42.912 22.4869 42.7315 22.773 42.6225C23.0625 42.5135 23.3861 42.459 23.7437 42.459C24.0332 42.459 24.2989 42.4947 24.5407 42.5663C24.7859 42.6344 25.0039 42.7451 25.1947 42.8983C25.3854 43.0482 25.5472 43.2492 25.68 43.5012C25.8163 43.7499 25.9202 44.0547 25.9917 44.4158C26.0632 44.7768 26.099 45.2009 26.099 45.6879ZM25.1487 46.9754V45.5295C25.1487 45.1957 25.1283 44.9028 25.0874 44.6508C25.0499 44.3953 24.9937 44.1773 24.9188 43.9968C24.8439 43.8163 24.7485 43.6698 24.6327 43.5574C24.5203 43.445 24.3891 43.3633 24.2393 43.3122C24.0928 43.2577 23.9276 43.2304 23.7437 43.2304C23.5189 43.2304 23.3196 43.273 23.1459 43.3582C22.9722 43.4399 22.8258 43.571 22.7065 43.7516C22.5907 43.9321 22.5022 44.1688 22.4409 44.4617C22.3796 44.7547 22.3489 45.1106 22.3489 45.5295V46.9754C22.3489 47.3092 22.3676 47.6038 22.4051 47.8593C22.446 48.1147 22.5056 48.3361 22.5839 48.5235C22.6623 48.7074 22.7576 48.859 22.87 48.9782C22.9824 49.0974 23.1119 49.1859 23.2583 49.2439C23.4082 49.2984 23.5734 49.3256 23.7539 49.3256C23.9855 49.3256 24.1882 49.2813 24.3619 49.1928C24.5356 49.1042 24.6804 48.9663 24.7962 48.7789C24.9154 48.5882 25.0039 48.3447 25.0618 48.0483C25.1197 47.7486 25.1487 47.391 25.1487 46.9754ZM28.3674 42.1524V50H27.4171V42.1524H28.3674ZM31.7445 44.472L29.333 47.052L27.9842 48.4519L27.9076 47.4454L28.8732 46.2908L30.5899 44.472H31.7445ZM30.8811 50L28.909 47.3637L29.3995 46.5207L31.9949 50H30.8811Z" fill="#333333"/>
<rect width="70.5694" height="55.8314" rx="5" transform="matrix(-0.00208098 -0.999998 1 -0.000794135 69.1716 167.224)" fill="#17120F"/>
<rect width="93.179" height="55.8264" rx="5" transform="matrix(-0.00230552 -0.999997 1 -0.000716793 176.8 167.354)" fill="#F07C62"/>
<rect width="111.489" height="56.1935" rx="5" transform="matrix(-0.00208098 -0.999998 1 -0.000794135 284.915 166.69)" fill="#17120F"/>
<path d="M19.012 21L22.48 12.6H23.968L27.4 21H26.032L25.06 18.54H21.304L20.32 21H19.012ZM21.712 17.496H24.652L23.188 13.8L21.712 17.496ZM29.1174 21L26.4774 14.892H27.7974L29.7054 19.464L31.6134 14.892H32.8854L30.2694 21H29.1174ZM36.3821 21.108C35.7821 21.108 35.2381 20.968 34.7501 20.688C34.2701 20.408 33.8861 20.028 33.5981 19.548C33.3181 19.068 33.1781 18.532 33.1781 17.94C33.1781 17.356 33.3141 16.828 33.5861 16.356C33.8581 15.876 34.2261 15.496 34.6901 15.216C35.1541 14.928 35.6701 14.784 36.2381 14.784C36.8061 14.784 37.3101 14.928 37.7501 15.216C38.1901 15.496 38.5381 15.88 38.7941 16.368C39.0581 16.848 39.1901 17.392 39.1901 18V18.336H34.3781C34.4421 18.672 34.5661 18.972 34.7501 19.236C34.9421 19.5 35.1821 19.708 35.4701 19.86C35.7661 20.012 36.0861 20.088 36.4301 20.088C36.7261 20.088 37.0101 20.044 37.2821 19.956C37.5621 19.86 37.7941 19.724 37.9781 19.548L38.7461 20.304C38.3861 20.576 38.0141 20.78 37.6301 20.916C37.2541 21.044 36.8381 21.108 36.3821 21.108ZM34.3901 17.436H38.0021C37.9541 17.116 37.8421 16.836 37.6661 16.596C37.4981 16.348 37.2861 16.156 37.0301 16.02C36.7821 15.876 36.5101 15.804 36.2141 15.804C35.9101 15.804 35.6301 15.872 35.3741 16.008C35.1181 16.144 34.9021 16.336 34.7261 16.584C34.5581 16.824 34.4461 17.108 34.3901 17.436ZM40.333 21V14.892H41.533V15.672C41.725 15.384 41.961 15.16 42.241 15C42.529 14.832 42.853 14.748 43.213 14.748C43.461 14.756 43.665 14.792 43.825 14.856V15.936C43.713 15.888 43.597 15.856 43.477 15.84C43.357 15.816 43.237 15.804 43.117 15.804C42.765 15.804 42.453 15.9 42.181 16.092C41.909 16.276 41.693 16.548 41.533 16.908V21H40.333ZM46.472 21.108C46.032 21.108 45.644 21.032 45.308 20.88C44.972 20.72 44.708 20.5 44.516 20.22C44.324 19.94 44.228 19.616 44.228 19.248C44.228 18.672 44.448 18.22 44.888 17.892C45.328 17.556 45.932 17.388 46.7 17.388C47.3 17.388 47.856 17.504 48.368 17.736V17.088C48.368 16.648 48.24 16.32 47.984 16.104C47.736 15.888 47.368 15.78 46.88 15.78C46.6 15.78 46.308 15.824 46.004 15.912C45.7 15.992 45.36 16.12 44.984 16.296L44.54 15.396C45.004 15.18 45.436 15.024 45.836 14.928C46.236 14.824 46.64 14.772 47.048 14.772C47.84 14.772 48.452 14.96 48.884 15.336C49.324 15.712 49.544 16.248 49.544 16.944V21H48.368V20.472C48.096 20.688 47.804 20.848 47.492 20.952C47.18 21.056 46.84 21.108 46.472 21.108ZM45.38 19.224C45.38 19.52 45.504 19.76 45.752 19.944C46.008 20.128 46.34 20.22 46.748 20.22C47.068 20.22 47.36 20.172 47.624 20.076C47.896 19.98 48.144 19.832 48.368 19.632V18.6C48.136 18.464 47.892 18.368 47.636 18.312C47.388 18.248 47.108 18.216 46.796 18.216C46.356 18.216 46.008 18.308 45.752 18.492C45.504 18.668 45.38 18.912 45.38 19.224ZM53.9508 23.568C53.5028 23.568 53.0668 23.516 52.6428 23.412C52.2188 23.308 51.8348 23.16 51.4908 22.968L51.9468 22.032C52.3068 22.216 52.6428 22.348 52.9548 22.428C53.2748 22.516 53.5948 22.56 53.9148 22.56C54.4508 22.56 54.8548 22.436 55.1268 22.188C55.4068 21.94 55.5468 21.576 55.5468 21.096V20.4C55.0108 20.824 54.3988 21.036 53.7108 21.036C53.1508 21.036 52.6348 20.9 52.1628 20.628C51.6988 20.348 51.3308 19.972 51.0588 19.5C50.7868 19.02 50.6508 18.492 50.6508 17.916C50.6508 17.332 50.7868 16.804 51.0588 16.332C51.3388 15.852 51.7108 15.476 52.1748 15.204C52.6468 14.924 53.1748 14.784 53.7588 14.784C54.0868 14.784 54.4028 14.84 54.7068 14.952C55.0188 15.056 55.3028 15.208 55.5588 15.408V14.892H56.7468V21.096C56.7468 21.888 56.5028 22.496 56.0148 22.92C55.5348 23.352 54.8468 23.568 53.9508 23.568ZM53.8668 20.004C54.2188 20.004 54.5388 19.944 54.8268 19.824C55.1148 19.696 55.3548 19.516 55.5468 19.284V16.548C55.3548 16.324 55.1108 16.148 54.8148 16.02C54.5268 15.892 54.2108 15.828 53.8668 15.828C53.4828 15.828 53.1348 15.92 52.8228 16.104C52.5188 16.288 52.2748 16.54 52.0908 16.86C51.9148 17.172 51.8268 17.524 51.8268 17.916C51.8268 18.308 51.9148 18.664 52.0908 18.984C52.2748 19.296 52.5188 19.544 52.8228 19.728C53.1348 19.912 53.4828 20.004 53.8668 20.004ZM61.0852 21.108C60.4852 21.108 59.9412 20.968 59.4532 20.688C58.9732 20.408 58.5892 20.028 58.3012 19.548C58.0212 19.068 57.8812 18.532 57.8812 17.94C57.8812 17.356 58.0172 16.828 58.2892 16.356C58.5612 15.876 58.9292 15.496 59.3932 15.216C59.8572 14.928 60.3732 14.784 60.9412 14.784C61.5092 14.784 62.0132 14.928 62.4532 15.216C62.8932 15.496 63.2412 15.88 63.4972 16.368C63.7612 16.848 63.8932 17.392 63.8932 18V18.336H59.0812C59.1452 18.672 59.2692 18.972 59.4532 19.236C59.6452 19.5 59.8852 19.708 60.1732 19.86C60.4692 20.012 60.7892 20.088 61.1332 20.088C61.4292 20.088 61.7132 20.044 61.9852 19.956C62.2652 19.86 62.4972 19.724 62.6812 19.548L63.4492 20.304C63.0892 20.576 62.7172 20.78 62.3332 20.916C61.9572 21.044 61.5412 21.108 61.0852 21.108ZM59.0932 17.436H62.7052C62.6572 17.116 62.5452 16.836 62.3692 16.596C62.2012 16.348 61.9892 16.156 61.7332 16.02C61.4852 15.876 61.2132 15.804 60.9172 15.804C60.6132 15.804 60.3332 15.872 60.0772 16.008C59.8212 16.144 59.6052 16.336 59.4292 16.584C59.2612 16.824 59.1492 17.108 59.0932 17.436ZM70.4119 21.108C69.8279 21.108 69.2959 20.968 68.8159 20.688C68.3359 20.408 67.9559 20.028 67.6759 19.548C67.4039 19.068 67.2679 18.532 67.2679 17.94C67.2679 17.348 67.4079 16.816 67.6879 16.344C67.9679 15.864 68.3439 15.484 68.8159 15.204C69.2959 14.916 69.8279 14.772 70.4119 14.772C70.8759 14.772 71.3199 14.86 71.7439 15.036C72.1759 15.212 72.5479 15.46 72.8599 15.78L72.1159 16.608C71.8839 16.352 71.6239 16.16 71.3359 16.032C71.0479 15.904 70.7479 15.84 70.4359 15.84C70.0679 15.84 69.7319 15.932 69.4279 16.116C69.1319 16.3 68.8959 16.552 68.7199 16.872C68.5439 17.192 68.4559 17.548 68.4559 17.94C68.4559 18.332 68.5439 18.688 68.7199 19.008C68.8959 19.328 69.1359 19.584 69.4399 19.776C69.7439 19.96 70.0839 20.052 70.4599 20.052C70.7719 20.052 71.0639 19.992 71.3359 19.872C71.6079 19.744 71.8639 19.56 72.1039 19.32L72.8359 20.088C72.5159 20.416 72.1439 20.668 71.7199 20.844C71.3039 21.02 70.8679 21.108 70.4119 21.108ZM75.7338 21.108C75.2938 21.108 74.9058 21.032 74.5698 20.88C74.2338 20.72 73.9698 20.5 73.7778 20.22C73.5858 19.94 73.4897 19.616 73.4897 19.248C73.4897 18.672 73.7098 18.22 74.1498 17.892C74.5898 17.556 75.1938 17.388 75.9618 17.388C76.5618 17.388 77.1178 17.504 77.6298 17.736V17.088C77.6298 16.648 77.5018 16.32 77.2458 16.104C76.9978 15.888 76.6298 15.78 76.1418 15.78C75.8618 15.78 75.5698 15.824 75.2658 15.912C74.9618 15.992 74.6218 16.12 74.2458 16.296L73.8018 15.396C74.2658 15.18 74.6978 15.024 75.0978 14.928C75.4978 14.824 75.9018 14.772 76.3098 14.772C77.1018 14.772 77.7138 14.96 78.1458 15.336C78.5858 15.712 78.8058 16.248 78.8058 16.944V21H77.6298V20.472C77.3578 20.688 77.0658 20.848 76.7538 20.952C76.4418 21.056 76.1018 21.108 75.7338 21.108ZM74.6418 19.224C74.6418 19.52 74.7658 19.76 75.0138 19.944C75.2698 20.128 75.6018 20.22 76.0098 20.22C76.3298 20.22 76.6218 20.172 76.8858 20.076C77.1578 19.98 77.4058 19.832 77.6298 19.632V18.6C77.3978 18.464 77.1538 18.368 76.8978 18.312C76.6498 18.248 76.3698 18.216 76.0578 18.216C75.6178 18.216 75.2698 18.308 75.0138 18.492C74.7658 18.668 74.6418 18.912 74.6418 19.224ZM80.1885 21V14.892H81.3885V15.672C81.5805 15.384 81.8165 15.16 82.0965 15C82.3845 14.832 82.7085 14.748 83.0685 14.748C83.3165 14.756 83.5205 14.792 83.6805 14.856V15.936C83.5685 15.888 83.4525 15.856 83.3325 15.84C83.2125 15.816 83.0925 15.804 82.9725 15.804C82.6205 15.804 82.3085 15.9 82.0365 16.092C81.7645 16.276 81.5485 16.548 81.3885 16.908V21H80.1885ZM89.1174 21L86.4774 14.892H87.7974L89.7054 19.464L91.6134 14.892H92.8854L90.2694 21H89.1174ZM95.3158 21.108C94.8758 21.108 94.4878 21.032 94.1518 20.88C93.8158 20.72 93.5518 20.5 93.3598 20.22C93.1678 19.94 93.0718 19.616 93.0718 19.248C93.0718 18.672 93.2918 18.22 93.7318 17.892C94.1718 17.556 94.7758 17.388 95.5438 17.388C96.1438 17.388 96.6998 17.504 97.2118 17.736V17.088C97.2118 16.648 97.0838 16.32 96.8278 16.104C96.5798 15.888 96.2118 15.78 95.7238 15.78C95.4438 15.78 95.1518 15.824 94.8478 15.912C94.5438 15.992 94.2038 16.12 93.8278 16.296L93.3838 15.396C93.8478 15.18 94.2798 15.024 94.6798 14.928C95.0798 14.824 95.4838 14.772 95.8918 14.772C96.6838 14.772 97.2958 14.96 97.7278 15.336C98.1678 15.712 98.3878 16.248 98.3878 16.944V21H97.2118V20.472C96.9398 20.688 96.6478 20.848 96.3358 20.952C96.0238 21.056 95.6838 21.108 95.3158 21.108ZM94.2238 19.224C94.2238 19.52 94.3478 19.76 94.5958 19.944C94.8518 20.128 95.1838 20.22 95.5918 20.22C95.9118 20.22 96.2038 20.172 96.4678 20.076C96.7398 19.98 96.9878 19.832 97.2118 19.632V18.6C96.9798 18.464 96.7358 18.368 96.4798 18.312C96.2318 18.248 95.9518 18.216 95.6398 18.216C95.1998 18.216 94.8518 18.308 94.5958 18.492C94.3478 18.668 94.2238 18.912 94.2238 19.224ZM99.7705 21V12.6L100.971 12.372V21H99.7705ZM104.748 21.12C104.276 21.12 103.86 21.02 103.5 20.82C103.14 20.62 102.86 20.34 102.66 19.98C102.46 19.612 102.36 19.192 102.36 18.72V14.892H103.548V18.516C103.548 18.996 103.684 19.376 103.956 19.656C104.236 19.936 104.608 20.076 105.072 20.076C105.4 20.076 105.692 20.008 105.948 19.872C106.204 19.728 106.412 19.528 106.572 19.272V14.892H107.772V21H106.572V20.376C106.1 20.872 105.492 21.12 104.748 21.12ZM112.12 21.108C111.52 21.108 110.976 20.968 110.488 20.688C110.008 20.408 109.624 20.028 109.336 19.548C109.056 19.068 108.916 18.532 108.916 17.94C108.916 17.356 109.052 16.828 109.324 16.356C109.596 15.876 109.964 15.496 110.428 15.216C110.892 14.928 111.408 14.784 111.976 14.784C112.544 14.784 113.048 14.928 113.488 15.216C113.928 15.496 114.276 15.88 114.532 16.368C114.796 16.848 114.928 17.392 114.928 18V18.336H110.116C110.18 18.672 110.304 18.972 110.488 19.236C110.68 19.5 110.92 19.708 111.208 19.86C111.504 20.012 111.824 20.088 112.168 20.088C112.464 20.088 112.748 20.044 113.02 19.956C113.3 19.86 113.532 19.724 113.716 19.548L114.484 20.304C114.124 20.576 113.752 20.78 113.368 20.916C112.992 21.044 112.576 21.108 112.12 21.108ZM110.128 17.436H113.74C113.692 17.116 113.58 16.836 113.404 16.596C113.236 16.348 113.024 16.156 112.768 16.02C112.52 15.876 112.248 15.804 111.952 15.804C111.648 15.804 111.368 15.872 111.112 16.008C110.856 16.144 110.64 16.336 110.464 16.584C110.296 16.824 110.184 17.108 110.128 17.436ZM118.579 21V12.6L119.779 12.372V15.468C120.291 15.02 120.911 14.796 121.639 14.796C122.215 14.796 122.735 14.936 123.199 15.216C123.671 15.496 124.043 15.872 124.315 16.344C124.587 16.816 124.723 17.348 124.723 17.94C124.723 18.532 124.583 19.068 124.303 19.548C124.031 20.02 123.659 20.396 123.187 20.676C122.723 20.956 122.199 21.096 121.615 21.096C121.279 21.096 120.951 21.044 120.631 20.94C120.319 20.828 120.031 20.672 119.767 20.472V21H118.579ZM121.483 20.052C121.875 20.052 122.223 19.96 122.527 19.776C122.839 19.592 123.087 19.344 123.271 19.032C123.455 18.712 123.547 18.352 123.547 17.952C123.547 17.552 123.455 17.192 123.271 16.872C123.087 16.552 122.839 16.3 122.527 16.116C122.223 15.932 121.875 15.84 121.483 15.84C121.139 15.84 120.819 15.904 120.523 16.032C120.227 16.16 119.979 16.34 119.779 16.572V19.332C119.979 19.556 120.227 19.732 120.523 19.86C120.827 19.988 121.147 20.052 121.483 20.052ZM126.1 23.58C125.972 23.58 125.852 23.572 125.74 23.556C125.628 23.548 125.536 23.532 125.464 23.508V22.452C125.608 22.484 125.784 22.5 125.992 22.5C126.552 22.5 126.956 22.2 127.204 21.6L127.468 21.012L125.02 14.892H126.352L128.128 19.548L130.096 14.892H131.392L128.44 21.756C128.248 22.188 128.044 22.536 127.828 22.8C127.612 23.072 127.364 23.268 127.084 23.388C126.804 23.516 126.476 23.58 126.1 23.58ZM134.646 21V14.892H135.846V15.48C136.302 15.008 136.874 14.772 137.562 14.772C137.978 14.772 138.346 14.864 138.666 15.048C138.994 15.232 139.254 15.48 139.446 15.792C139.702 15.456 140.002 15.204 140.346 15.036C140.69 14.86 141.078 14.772 141.51 14.772C141.966 14.772 142.362 14.872 142.698 15.072C143.042 15.272 143.31 15.552 143.502 15.912C143.702 16.272 143.802 16.688 143.802 17.16V21H142.602V17.364C142.602 16.884 142.474 16.508 142.218 16.236C141.97 15.956 141.63 15.816 141.198 15.816C140.902 15.816 140.634 15.884 140.394 16.02C140.154 16.156 139.946 16.364 139.77 16.644C139.786 16.724 139.798 16.808 139.806 16.896C139.814 16.984 139.818 17.072 139.818 17.16V21H138.63V17.364C138.63 16.884 138.502 16.508 138.246 16.236C137.998 15.956 137.658 15.816 137.226 15.816C136.938 15.816 136.678 15.88 136.446 16.008C136.214 16.128 136.014 16.312 135.846 16.56V21H134.646ZM148.085 21.12C147.493 21.12 146.953 20.98 146.465 20.7C145.985 20.42 145.605 20.04 145.325 19.56C145.045 19.08 144.905 18.544 144.905 17.952C144.905 17.36 145.045 16.824 145.325 16.344C145.605 15.864 145.985 15.484 146.465 15.204C146.953 14.916 147.493 14.772 148.085 14.772C148.685 14.772 149.225 14.916 149.705 15.204C150.185 15.484 150.565 15.864 150.845 16.344C151.125 16.824 151.265 17.36 151.265 17.952C151.265 18.544 151.125 19.08 150.845 19.56C150.565 20.04 150.185 20.42 149.705 20.7C149.225 20.98 148.685 21.12 148.085 21.12ZM148.085 20.064C148.461 20.064 148.801 19.972 149.105 19.788C149.409 19.596 149.649 19.34 149.825 19.02C150.001 18.7 150.089 18.34 150.089 17.94C150.089 17.548 149.997 17.196 149.813 16.884C149.637 16.564 149.397 16.308 149.093 16.116C148.797 15.924 148.461 15.828 148.085 15.828C147.709 15.828 147.369 15.924 147.065 16.116C146.769 16.308 146.529 16.564 146.345 16.884C146.169 17.196 146.081 17.548 146.081 17.94C146.081 18.34 146.169 18.7 146.345 19.02C146.521 19.34 146.761 19.596 147.065 19.788C147.369 19.972 147.709 20.064 148.085 20.064ZM152.399 21V14.892H153.599V15.516C154.071 15.02 154.683 14.772 155.435 14.772C155.907 14.772 156.319 14.872 156.671 15.072C157.031 15.272 157.311 15.552 157.511 15.912C157.719 16.272 157.823 16.688 157.823 17.16V21H156.623V17.364C156.623 16.884 156.487 16.508 156.215 16.236C155.951 15.956 155.579 15.816 155.099 15.816C154.779 15.816 154.491 15.884 154.235 16.02C153.979 16.156 153.767 16.352 153.599 16.608V21H152.399ZM161.648 21.108C161.056 21.108 160.604 20.972 160.292 20.7C159.98 20.42 159.824 20.016 159.824 19.488V15.9H158.528V14.892H159.824V13.332L161.012 13.044V14.892H162.812V15.9H161.012V19.212C161.012 19.524 161.08 19.748 161.216 19.884C161.36 20.012 161.592 20.076 161.912 20.076C162.08 20.076 162.228 20.064 162.356 20.04C162.492 20.016 162.636 19.98 162.788 19.932V20.94C162.628 20.996 162.44 21.036 162.224 21.06C162.016 21.092 161.824 21.108 161.648 21.108ZM163.696 21V12.6L164.896 12.336V15.516C165.368 15.02 165.98 14.772 166.732 14.772C167.204 14.772 167.616 14.872 167.968 15.072C168.328 15.272 168.608 15.552 168.808 15.912C169.016 16.272 169.12 16.688 169.12 17.16V21H167.92V17.364C167.92 16.884 167.784 16.508 167.512 16.236C167.24 15.956 166.868 15.816 166.396 15.816C166.076 15.816 165.788 15.884 165.532 16.02C165.276 16.156 165.064 16.352 164.896 16.608V21H163.696Z" fill="black"/>
<path d="M78.4065 180L81.8745 171.6H83.3625L86.7945 180H85.4265L84.4545 177.54H80.6985L79.7145 180H78.4065ZM81.1065 176.496H84.0465L82.5825 172.8L81.1065 176.496ZM89.7048 180.12C89.2328 180.12 88.8168 180.02 88.4568 179.82C88.0968 179.62 87.8168 179.34 87.6168 178.98C87.4168 178.612 87.3168 178.192 87.3168 177.72V173.892H88.5048V177.516C88.5048 177.996 88.6408 178.376 88.9128 178.656C89.1928 178.936 89.5648 179.076 90.0288 179.076C90.3568 179.076 90.6488 179.008 90.9048 178.872C91.1608 178.728 91.3688 178.528 91.5288 178.272V173.892H92.7288V180H91.5288V179.376C91.0568 179.872 90.4488 180.12 89.7048 180.12ZM97.1734 182.568C96.7254 182.568 96.2894 182.516 95.8654 182.412C95.4414 182.308 95.0574 182.16 94.7134 181.968L95.1694 181.032C95.5294 181.216 95.8654 181.348 96.1774 181.428C96.4974 181.516 96.8174 181.56 97.1374 181.56C97.6734 181.56 98.0774 181.436 98.3494 181.188C98.6294 180.94 98.7694 180.576 98.7694 180.096V179.4C98.2334 179.824 97.6214 180.036 96.9334 180.036C96.3734 180.036 95.8574 179.9 95.3854 179.628C94.9214 179.348 94.5534 178.972 94.2814 178.5C94.0094 178.02 93.8734 177.492 93.8734 176.916C93.8734 176.332 94.0094 175.804 94.2814 175.332C94.5614 174.852 94.9334 174.476 95.3974 174.204C95.8694 173.924 96.3974 173.784 96.9814 173.784C97.3094 173.784 97.6254 173.84 97.9294 173.952C98.2414 174.056 98.5254 174.208 98.7814 174.408V173.892H99.9694V180.096C99.9694 180.888 99.7254 181.496 99.2374 181.92C98.7574 182.352 98.0694 182.568 97.1734 182.568ZM97.0894 179.004C97.4414 179.004 97.7614 178.944 98.0494 178.824C98.3374 178.696 98.5774 178.516 98.7694 178.284V175.548C98.5774 175.324 98.3334 175.148 98.0374 175.02C97.7494 174.892 97.4334 174.828 97.0894 174.828C96.7054 174.828 96.3574 174.92 96.0454 175.104C95.7414 175.288 95.4974 175.54 95.3134 175.86C95.1374 176.172 95.0494 176.524 95.0494 176.916C95.0494 177.308 95.1374 177.664 95.3134 177.984C95.4974 178.296 95.7414 178.544 96.0454 178.728C96.3574 178.912 96.7054 179.004 97.0894 179.004ZM103.744 180.12C103.272 180.12 102.856 180.02 102.496 179.82C102.136 179.62 101.856 179.34 101.656 178.98C101.456 178.612 101.356 178.192 101.356 177.72V173.892H102.544V177.516C102.544 177.996 102.68 178.376 102.952 178.656C103.232 178.936 103.604 179.076 104.068 179.076C104.396 179.076 104.688 179.008 104.944 178.872C105.2 178.728 105.408 178.528 105.568 178.272V173.892H106.768V180H105.568V179.376C105.096 179.872 104.488 180.12 103.744 180.12ZM110.288 180.12C109.76 180.12 109.264 180.044 108.8 179.892C108.344 179.732 107.948 179.508 107.612 179.22L108.272 178.428C108.584 178.676 108.904 178.868 109.232 179.004C109.568 179.132 109.908 179.196 110.252 179.196C110.684 179.196 111.036 179.112 111.308 178.944C111.58 178.776 111.716 178.556 111.716 178.284C111.716 178.06 111.636 177.884 111.476 177.756C111.316 177.628 111.068 177.54 110.732 177.492L109.628 177.336C109.02 177.248 108.564 177.06 108.26 176.772C107.956 176.484 107.804 176.1 107.804 175.62C107.804 175.252 107.904 174.932 108.104 174.66C108.304 174.38 108.584 174.164 108.944 174.012C109.304 173.852 109.724 173.772 110.204 173.772C110.644 173.772 111.068 173.836 111.476 173.964C111.884 174.092 112.276 174.292 112.652 174.564L112.04 175.356C111.704 175.132 111.376 174.968 111.056 174.864C110.744 174.76 110.428 174.708 110.108 174.708C109.74 174.708 109.444 174.788 109.22 174.948C108.996 175.1 108.884 175.3 108.884 175.548C108.884 175.772 108.96 175.948 109.112 176.076C109.272 176.196 109.532 176.28 109.892 176.328L110.996 176.484C111.604 176.572 112.064 176.76 112.376 177.048C112.688 177.328 112.844 177.708 112.844 178.188C112.844 178.556 112.732 178.888 112.508 179.184C112.284 179.472 111.98 179.7 111.596 179.868C111.212 180.036 110.776 180.12 110.288 180.12ZM116.265 180.108C115.673 180.108 115.221 179.972 114.909 179.7C114.597 179.42 114.441 179.016 114.441 178.488V174.9H113.145V173.892H114.441V172.332L115.629 172.044V173.892H117.429V174.9H115.629V178.212C115.629 178.524 115.697 178.748 115.833 178.884C115.977 179.012 116.209 179.076 116.529 179.076C116.697 179.076 116.845 179.064 116.973 179.04C117.109 179.016 117.253 178.98 117.405 178.932V179.94C117.245 179.996 117.057 180.036 116.841 180.06C116.633 180.092 116.441 180.108 116.265 180.108Z" fill="black"/>
<path d="M177.747 180.12C177.075 180.12 176.427 179.988 175.803 179.724C175.179 179.46 174.627 179.088 174.147 178.608L174.915 177.72C175.371 178.168 175.835 178.5 176.307 178.716C176.787 178.932 177.287 179.04 177.807 179.04C178.215 179.04 178.571 178.984 178.875 178.872C179.187 178.752 179.427 178.584 179.595 178.368C179.763 178.152 179.847 177.908 179.847 177.636C179.847 177.26 179.715 176.972 179.451 176.772C179.187 176.572 178.751 176.42 178.143 176.316L176.739 176.088C175.971 175.952 175.395 175.704 175.011 175.344C174.635 174.984 174.447 174.504 174.447 173.904C174.447 173.424 174.575 173.004 174.831 172.644C175.087 172.276 175.447 171.992 175.911 171.792C176.383 171.592 176.927 171.492 177.543 171.492C178.151 171.492 178.747 171.592 179.331 171.792C179.923 171.984 180.455 172.264 180.927 172.632L180.231 173.592C179.327 172.904 178.411 172.56 177.483 172.56C177.115 172.56 176.795 172.612 176.523 172.716C176.251 172.82 176.039 172.968 175.887 173.16C175.735 173.344 175.659 173.56 175.659 173.808C175.659 174.152 175.775 174.416 176.007 174.6C176.239 174.776 176.623 174.904 177.159 174.984L178.515 175.212C179.403 175.356 180.055 175.616 180.471 175.992C180.887 176.368 181.095 176.884 181.095 177.54C181.095 178.052 180.955 178.504 180.675 178.896C180.395 179.28 180.003 179.58 179.499 179.796C178.995 180.012 178.411 180.12 177.747 180.12ZM185.163 180.108C184.563 180.108 184.019 179.968 183.531 179.688C183.051 179.408 182.667 179.028 182.379 178.548C182.099 178.068 181.959 177.532 181.959 176.94C181.959 176.356 182.095 175.828 182.367 175.356C182.639 174.876 183.007 174.496 183.471 174.216C183.935 173.928 184.451 173.784 185.019 173.784C185.587 173.784 186.091 173.928 186.531 174.216C186.971 174.496 187.319 174.88 187.575 175.368C187.839 175.848 187.971 176.392 187.971 177V177.336H183.159C183.223 177.672 183.347 177.972 183.531 178.236C183.723 178.5 183.963 178.708 184.251 178.86C184.547 179.012 184.867 179.088 185.211 179.088C185.507 179.088 185.791 179.044 186.063 178.956C186.343 178.86 186.575 178.724 186.759 178.548L187.527 179.304C187.167 179.576 186.795 179.78 186.411 179.916C186.035 180.044 185.619 180.108 185.163 180.108ZM183.171 176.436H186.783C186.735 176.116 186.623 175.836 186.447 175.596C186.279 175.348 186.067 175.156 185.811 175.02C185.563 174.876 185.291 174.804 184.995 174.804C184.691 174.804 184.411 174.872 184.155 175.008C183.899 175.144 183.683 175.336 183.507 175.584C183.339 175.824 183.227 176.108 183.171 176.436ZM189.114 182.448V173.892H190.302V174.48C190.814 174.024 191.438 173.796 192.174 173.796C192.75 173.796 193.27 173.936 193.734 174.216C194.206 174.496 194.578 174.872 194.85 175.344C195.122 175.816 195.258 176.348 195.258 176.94C195.258 177.532 195.118 178.068 194.838 178.548C194.566 179.02 194.194 179.396 193.722 179.676C193.258 179.956 192.734 180.096 192.15 180.096C191.814 180.096 191.49 180.044 191.178 179.94C190.866 179.828 190.578 179.672 190.314 179.472V182.448H189.114ZM192.018 179.052C192.41 179.052 192.758 178.96 193.062 178.776C193.374 178.592 193.622 178.344 193.806 178.032C193.99 177.712 194.082 177.352 194.082 176.952C194.082 176.552 193.99 176.192 193.806 175.872C193.622 175.552 193.374 175.3 193.062 175.116C192.758 174.932 192.41 174.84 192.018 174.84C191.674 174.84 191.354 174.904 191.058 175.032C190.762 175.16 190.514 175.34 190.314 175.572V178.332C190.514 178.556 190.762 178.732 191.058 178.86C191.362 178.988 191.682 179.052 192.018 179.052ZM198.668 180.108C198.076 180.108 197.624 179.972 197.312 179.7C197 179.42 196.844 179.016 196.844 178.488V174.9H195.548V173.892H196.844V172.332L198.032 172.044V173.892H199.832V174.9H198.032V178.212C198.032 178.524 198.1 178.748 198.236 178.884C198.38 179.012 198.612 179.076 198.932 179.076C199.1 179.076 199.248 179.064 199.376 179.04C199.512 179.016 199.656 178.98 199.808 178.932V179.94C199.648 179.996 199.46 180.036 199.244 180.06C199.036 180.092 198.844 180.108 198.668 180.108ZM203.55 180.108C202.95 180.108 202.406 179.968 201.918 179.688C201.438 179.408 201.054 179.028 200.766 178.548C200.486 178.068 200.346 177.532 200.346 176.94C200.346 176.356 200.482 175.828 200.754 175.356C201.026 174.876 201.394 174.496 201.858 174.216C202.322 173.928 202.838 173.784 203.406 173.784C203.974 173.784 204.478 173.928 204.918 174.216C205.358 174.496 205.706 174.88 205.962 175.368C206.226 175.848 206.358 176.392 206.358 177V177.336H201.546C201.61 177.672 201.734 177.972 201.918 178.236C202.11 178.5 202.35 178.708 202.638 178.86C202.934 179.012 203.254 179.088 203.598 179.088C203.894 179.088 204.178 179.044 204.45 178.956C204.73 178.86 204.962 178.724 205.146 178.548L205.914 179.304C205.554 179.576 205.182 179.78 204.798 179.916C204.422 180.044 204.006 180.108 203.55 180.108ZM201.558 176.436H205.17C205.122 176.116 205.01 175.836 204.834 175.596C204.666 175.348 204.454 175.156 204.198 175.02C203.95 174.876 203.678 174.804 203.382 174.804C203.078 174.804 202.798 174.872 202.542 175.008C202.286 175.144 202.07 175.336 201.894 175.584C201.726 175.824 201.614 176.108 201.558 176.436ZM207.501 180V173.892H208.701V174.48C209.157 174.008 209.729 173.772 210.417 173.772C210.833 173.772 211.201 173.864 211.521 174.048C211.849 174.232 212.109 174.48 212.301 174.792C212.557 174.456 212.857 174.204 213.201 174.036C213.545 173.86 213.933 173.772 214.365 173.772C214.821 173.772 215.217 173.872 215.553 174.072C215.897 174.272 216.165 174.552 216.357 174.912C216.557 175.272 216.657 175.688 216.657 176.16V180H215.457V176.364C215.457 175.884 215.329 175.508 215.073 175.236C214.825 174.956 214.485 174.816 214.053 174.816C213.757 174.816 213.489 174.884 213.249 175.02C213.009 175.156 212.801 175.364 212.625 175.644C212.641 175.724 212.653 175.808 212.661 175.896C212.669 175.984 212.673 176.072 212.673 176.16V180H211.485V176.364C211.485 175.884 211.357 175.508 211.101 175.236C210.853 174.956 210.513 174.816 210.081 174.816C209.793 174.816 209.533 174.88 209.301 175.008C209.069 175.128 208.869 175.312 208.701 175.56V180H207.501ZM218.036 180V171.6L219.236 171.372V174.468C219.748 174.02 220.368 173.796 221.096 173.796C221.672 173.796 222.192 173.936 222.656 174.216C223.128 174.496 223.5 174.872 223.772 175.344C224.044 175.816 224.18 176.348 224.18 176.94C224.18 177.532 224.04 178.068 223.76 178.548C223.488 179.02 223.116 179.396 222.644 179.676C222.18 179.956 221.656 180.096 221.072 180.096C220.736 180.096 220.408 180.044 220.088 179.94C219.776 179.828 219.488 179.672 219.224 179.472V180H218.036ZM220.94 179.052C221.332 179.052 221.68 178.96 221.984 178.776C222.296 178.592 222.544 178.344 222.728 178.032C222.912 177.712 223.004 177.352 223.004 176.952C223.004 176.552 222.912 176.192 222.728 175.872C222.544 175.552 222.296 175.3 221.984 175.116C221.68 174.932 221.332 174.84 220.94 174.84C220.596 174.84 220.276 174.904 219.98 175.032C219.684 175.16 219.436 175.34 219.236 175.572V178.332C219.436 178.556 219.684 178.732 219.98 178.86C220.284 178.988 220.604 179.052 220.94 179.052ZM228.253 180.108C227.653 180.108 227.109 179.968 226.621 179.688C226.141 179.408 225.757 179.028 225.469 178.548C225.189 178.068 225.049 177.532 225.049 176.94C225.049 176.356 225.185 175.828 225.457 175.356C225.729 174.876 226.097 174.496 226.561 174.216C227.025 173.928 227.541 173.784 228.109 173.784C228.677 173.784 229.181 173.928 229.621 174.216C230.061 174.496 230.409 174.88 230.665 175.368C230.929 175.848 231.061 176.392 231.061 177V177.336H226.249C226.313 177.672 226.437 177.972 226.621 178.236C226.813 178.5 227.053 178.708 227.341 178.86C227.637 179.012 227.957 179.088 228.301 179.088C228.597 179.088 228.881 179.044 229.153 178.956C229.433 178.86 229.665 178.724 229.849 178.548L230.617 179.304C230.257 179.576 229.885 179.78 229.501 179.916C229.125 180.044 228.709 180.108 228.253 180.108ZM226.261 176.436H229.873C229.825 176.116 229.713 175.836 229.537 175.596C229.369 175.348 229.157 175.156 228.901 175.02C228.653 174.876 228.381 174.804 228.085 174.804C227.781 174.804 227.501 174.872 227.245 175.008C226.989 175.144 226.773 175.336 226.597 175.584C226.429 175.824 226.317 176.108 226.261 176.436ZM232.204 180V173.892H233.404V174.672C233.596 174.384 233.832 174.16 234.112 174C234.4 173.832 234.724 173.748 235.084 173.748C235.332 173.756 235.536 173.792 235.696 173.856V174.936C235.584 174.888 235.468 174.856 235.348 174.84C235.228 174.816 235.108 174.804 234.988 174.804C234.636 174.804 234.324 174.9 234.052 175.092C233.78 175.276 233.564 175.548 233.404 175.908V180H232.204Z" fill="black"/>
<path d="M296.11 180.132C295.502 180.132 294.934 180.024 294.406 179.808C293.878 179.584 293.41 179.276 293.002 178.884C292.602 178.484 292.29 178.024 292.066 177.504C291.85 176.976 291.742 176.408 291.742 175.8C291.742 175.192 291.85 174.628 292.066 174.108C292.29 173.58 292.602 173.12 293.002 172.728C293.41 172.328 293.878 172.02 294.406 171.804C294.934 171.58 295.502 171.468 296.11 171.468C296.718 171.468 297.286 171.58 297.814 171.804C298.35 172.02 298.818 172.328 299.218 172.728C299.618 173.12 299.93 173.58 300.154 174.108C300.378 174.628 300.49 175.192 300.49 175.8C300.49 176.408 300.378 176.976 300.154 177.504C299.93 178.024 299.618 178.484 299.218 178.884C298.818 179.276 298.35 179.584 297.814 179.808C297.286 180.024 296.718 180.132 296.11 180.132ZM296.122 178.968C296.554 178.968 296.954 178.888 297.322 178.728C297.698 178.568 298.026 178.348 298.306 178.068C298.586 177.78 298.806 177.444 298.966 177.06C299.126 176.668 299.206 176.248 299.206 175.8C299.206 175.344 299.126 174.924 298.966 174.54C298.806 174.156 298.586 173.824 298.306 173.544C298.026 173.256 297.698 173.032 297.322 172.872C296.954 172.712 296.554 172.632 296.122 172.632C295.682 172.632 295.274 172.712 294.898 172.872C294.522 173.032 294.194 173.256 293.914 173.544C293.634 173.824 293.414 174.156 293.254 174.54C293.102 174.924 293.026 175.344 293.026 175.8C293.026 176.248 293.102 176.668 293.254 177.06C293.414 177.444 293.634 177.78 293.914 178.068C294.194 178.348 294.522 178.568 294.898 178.728C295.274 178.888 295.682 178.968 296.122 178.968ZM304.541 180.108C303.957 180.108 303.425 179.968 302.945 179.688C302.465 179.408 302.085 179.028 301.805 178.548C301.533 178.068 301.397 177.532 301.397 176.94C301.397 176.348 301.537 175.816 301.817 175.344C302.097 174.864 302.473 174.484 302.945 174.204C303.425 173.916 303.957 173.772 304.541 173.772C305.005 173.772 305.449 173.86 305.873 174.036C306.305 174.212 306.677 174.46 306.989 174.78L306.245 175.608C306.013 175.352 305.753 175.16 305.465 175.032C305.177 174.904 304.877 174.84 304.565 174.84C304.197 174.84 303.861 174.932 303.557 175.116C303.261 175.3 303.025 175.552 302.849 175.872C302.673 176.192 302.585 176.548 302.585 176.94C302.585 177.332 302.673 177.688 302.849 178.008C303.025 178.328 303.265 178.584 303.569 178.776C303.873 178.96 304.213 179.052 304.589 179.052C304.901 179.052 305.193 178.992 305.465 178.872C305.737 178.744 305.993 178.56 306.233 178.32L306.965 179.088C306.645 179.416 306.273 179.668 305.849 179.844C305.433 180.02 304.997 180.108 304.541 180.108ZM310.664 180.108C310.072 180.108 309.62 179.972 309.308 179.7C308.996 179.42 308.84 179.016 308.84 178.488V174.9H307.544V173.892H308.84V172.332L310.028 172.044V173.892H311.828V174.9H310.028V178.212C310.028 178.524 310.096 178.748 310.232 178.884C310.376 179.012 310.608 179.076 310.928 179.076C311.096 179.076 311.244 179.064 311.372 179.04C311.508 179.016 311.652 178.98 311.804 178.932V179.94C311.644 179.996 311.456 180.036 311.24 180.06C311.032 180.092 310.84 180.108 310.664 180.108ZM315.522 180.12C314.93 180.12 314.39 179.98 313.902 179.7C313.422 179.42 313.042 179.04 312.762 178.56C312.482 178.08 312.342 177.544 312.342 176.952C312.342 176.36 312.482 175.824 312.762 175.344C313.042 174.864 313.422 174.484 313.902 174.204C314.39 173.916 314.93 173.772 315.522 173.772C316.122 173.772 316.662 173.916 317.142 174.204C317.622 174.484 318.002 174.864 318.282 175.344C318.562 175.824 318.702 176.36 318.702 176.952C318.702 177.544 318.562 178.08 318.282 178.56C318.002 179.04 317.622 179.42 317.142 179.7C316.662 179.98 316.122 180.12 315.522 180.12ZM315.522 179.064C315.898 179.064 316.238 178.972 316.542 178.788C316.846 178.596 317.086 178.34 317.262 178.02C317.438 177.7 317.526 177.34 317.526 176.94C317.526 176.548 317.434 176.196 317.25 175.884C317.074 175.564 316.834 175.308 316.53 175.116C316.234 174.924 315.898 174.828 315.522 174.828C315.146 174.828 314.806 174.924 314.502 175.116C314.206 175.308 313.966 175.564 313.782 175.884C313.606 176.196 313.518 176.548 313.518 176.94C313.518 177.34 313.606 177.7 313.782 178.02C313.958 178.34 314.198 178.596 314.502 178.788C314.806 178.972 315.146 179.064 315.522 179.064ZM319.837 180V171.6L321.037 171.372V174.468C321.549 174.02 322.169 173.796 322.897 173.796C323.473 173.796 323.993 173.936 324.457 174.216C324.929 174.496 325.301 174.872 325.573 175.344C325.845 175.816 325.981 176.348 325.981 176.94C325.981 177.532 325.841 178.068 325.561 178.548C325.289 179.02 324.917 179.396 324.445 179.676C323.981 179.956 323.457 180.096 322.873 180.096C322.537 180.096 322.209 180.044 321.889 179.94C321.577 179.828 321.289 179.672 321.025 179.472V180H319.837ZM322.741 179.052C323.133 179.052 323.481 178.96 323.785 178.776C324.097 178.592 324.345 178.344 324.529 178.032C324.713 177.712 324.805 177.352 324.805 176.952C324.805 176.552 324.713 176.192 324.529 175.872C324.345 175.552 324.097 175.3 323.785 175.116C323.481 174.932 323.133 174.84 322.741 174.84C322.397 174.84 322.077 174.904 321.781 175.032C321.485 175.16 321.237 175.34 321.037 175.572V178.332C321.237 178.556 321.485 178.732 321.781 178.86C322.085 178.988 322.405 179.052 322.741 179.052ZM330.054 180.108C329.454 180.108 328.91 179.968 328.422 179.688C327.942 179.408 327.558 179.028 327.27 178.548C326.99 178.068 326.85 177.532 326.85 176.94C326.85 176.356 326.986 175.828 327.258 175.356C327.53 174.876 327.898 174.496 328.362 174.216C328.826 173.928 329.342 173.784 329.91 173.784C330.478 173.784 330.982 173.928 331.422 174.216C331.862 174.496 332.21 174.88 332.466 175.368C332.73 175.848 332.862 176.392 332.862 177V177.336H328.05C328.114 177.672 328.238 177.972 328.422 178.236C328.614 178.5 328.854 178.708 329.142 178.86C329.438 179.012 329.758 179.088 330.102 179.088C330.398 179.088 330.682 179.044 330.954 178.956C331.234 178.86 331.466 178.724 331.65 178.548L332.418 179.304C332.058 179.576 331.686 179.78 331.302 179.916C330.926 180.044 330.51 180.108 330.054 180.108ZM328.062 176.436H331.674C331.626 176.116 331.514 175.836 331.338 175.596C331.17 175.348 330.958 175.156 330.702 175.02C330.454 174.876 330.182 174.804 329.886 174.804C329.582 174.804 329.302 174.872 329.046 175.008C328.79 175.144 328.574 175.336 328.398 175.584C328.23 175.824 328.118 176.108 328.062 176.436ZM334.005 180V173.892H335.205V174.672C335.397 174.384 335.633 174.16 335.913 174C336.201 173.832 336.525 173.748 336.885 173.748C337.133 173.756 337.337 173.792 337.497 173.856V174.936C337.385 174.888 337.269 174.856 337.149 174.84C337.029 174.816 336.909 174.804 336.789 174.804C336.437 174.804 336.125 174.9 335.853 175.092C335.581 175.276 335.365 175.548 335.205 175.908V180H334.005Z" fill="black"/>
<defs>
<filter id="filter0_d_1_666" x="0.00769234" y="0.0153847" width="389.938" height="203.938" filterUnits="userSpaceOnUse" color-interpolation-filters="sRGB">
<feFlood flood-opacity="0" result="BackgroundImageFix"/>
<feColorMatrix in="SourceAlpha" type="matrix" values="0 0 0 0 0 0 0 0 0 0 0 0 0 0 0 0 0 0 127 0" result="hardAlpha"/>
<feOffset dx="5.97692" dy="3.98462"/>
<feGaussianBlur stdDeviation="3.98462"/>
<feComposite in2="hardAlpha" operator="out"/>
<feColorMatrix type="matrix" values="0 0 0 0 0 0 0 0 0 0 0 0 0 0 0 0 0 0 0.25 0"/>
<feBlend mode="normal" in2="BackgroundImageFix" result="effect1_dropShadow_1_666"/>
<feBlend mode="normal" in="SourceGraphic" in2="effect1_dropShadow_1_666" result="shape"/>
</filter>
</defs>
</svg>
